Inconsolable-Bold.ufo
<glyph name="exclam" format="1">
  <advance width="500"/>
  <unicode hex="0021"/>
  <outline>
    <contour>
      <point x="195" y="198" type="line"/>
      <point x="285" y="198" type="line"/>
      <point x="311" y="575" type="line" smooth="yes"/>
      <point x="316" y="646"/>
      <point x="284" y="671"/>
      <point x="241" y="671" type="curve" smooth="yes"/>
      <point x="197" y="671"/>
      <point x="167" y="644"/>
      <point x="171" y="575" type="curve" smooth="yes"/>
    </contour>
    <contour>
      <point x="239" y="-10" type="curve" smooth="yes"/>
      <point x="281" y="-10"/>
      <point x="318" y="23"/>
      <point x="318" y="62" type="curve" smooth="yes"/>
      <point x="318" y="98"/>
      <point x="284" y="135"/>
      <point x="239" y="135" type="curve" smooth="yes"/>
      <point x="197" y="135"/>
      <point x="162" y="101"/>
      <point x="162" y="62" type="curve" smooth="yes"/>
      <point x="162" y="22"/>
      <point x="197" y="-10"/>
    </contour>
  </outline>
</glyph>
<glyph name="numbersign" format="1">
  <advance width="500"/>
  <unicode hex="0023"/>
  <outline>
    <contour>
      <point x="243" y="7" type="line"/>
      <point x="346" y="13" type="line"/>
      <point x="366" y="179" type="line"/>
      <point x="458" y="179" type="line"/>
      <point x="464" y="257" type="line"/>
      <point x="375" y="257" type="line"/>
      <point x="390" y="392" type="line"/>
      <point x="474" y="392" type="line"/>
      <point x="484" y="472" type="line"/>
      <point x="400" y="472" type="line"/>
      <point x="418" y="625" type="line"/>
      <point x="315" y="624" type="line"/>
      <point x="297" y="470" type="line"/>
      <point x="243" y="470" type="line"/>
      <point x="262" y="627" type="line"/>
      <point x="159" y="626" type="line"/>
      <point x="141" y="468" type="line"/>
      <point x="38" y="468" type="line"/>
      <point x="33" y="389" type="line"/>
      <point x="132" y="389" type="line"/>
      <point x="117" y="253" type="line"/>
      <point x="25" y="253" type="line"/>
      <point x="19" y="175" type="line"/>
      <point x="106" y="175" type="line"/>
      <point x="88" y="11" type="line"/>
      <point x="188" y="12" type="line"/>
      <point x="208" y="176" type="line"/>
      <point x="264" y="176" type="line"/>
    </contour>
    <contour>
      <point x="217" y="255" type="line"/>
      <point x="232" y="390" type="line"/>
      <point x="288" y="390" type="line"/>
      <point x="272" y="255" type="line"/>
    </contour>
  </outline>
</glyph>
<glyph name="dollar" format="1">
  <advance width="500"/>
  <unicode hex="0024"/>
  <outline>
    <contour>
      <point x="213" y="-44" type="line"/>
      <point x="313" y="-44" type="line"/>
      <point x="313" y="10" type="line"/>
      <point x="410" y="30"/>
      <point x="469" y="101"/>
      <point x="469" y="183" type="curve" smooth="yes"/>
      <point x="469" y="270"/>
      <point x="414" y="319"/>
      <point x="308" y="352" type="curve"/>
      <point x="308" y="499" type="line"/>
      <point x="333" y="493"/>
      <point x="356" y="477"/>
      <point x="369" y="462" type="curve"/>
      <point x="377" y="449"/>
      <point x="376" y="429"/>
      <point x="395" y="429" type="curve"/>
      <point x="454" y="504" type="line"/>
      <point x="416" y="550"/>
      <point x="368" y="583"/>
      <point x="313" y="594" type="curve"/>
      <point x="313" y="610" type="line"/>
      <point x="313" y="617"/>
      <point x="319" y="637"/>
      <point x="319" y="641" type="curve" smooth="yes"/>
      <point x="319" y="645"/>
      <point x="318" y="649"/>
      <point x="313" y="651" type="curve"/>
      <point x="213" y="651" type="line"/>
      <point x="213" y="593" type="line"/>
      <point x="124" y="575"/>
      <point x="67" y="513"/>
      <point x="67" y="440" type="curve" smooth="yes"/>
      <point x="67" y="363"/>
      <point x="123" y="313"/>
      <point x="218" y="278" type="curve"/>
      <point x="218" y="99" type="line"/>
      <point x="184" y="106"/>
      <point x="160" y="124"/>
      <point x="138" y="148" type="curve" smooth="yes"/>
      <point x="132" y="155"/>
      <point x="132" y="177"/>
      <point x="110" y="183" type="curve"/>
      <point x="49" y="97" type="line"/>
      <point x="93" y="49"/>
      <point x="152" y="17"/>
      <point x="213" y="7" type="curve"/>
    </contour>
    <contour>
      <point x="308" y="105" type="curve"/>
      <point x="308" y="246" type="line"/>
      <point x="348" y="232"/>
      <point x="367" y="208"/>
      <point x="367" y="177" type="curve" smooth="yes"/>
      <point x="367" y="139"/>
      <point x="343" y="117"/>
    </contour>
    <contour>
      <point x="218" y="388" type="line"/>
      <point x="184" y="400"/>
      <point x="172" y="425"/>
      <point x="172" y="446" type="curve" smooth="yes"/>
      <point x="172" y="474"/>
      <point x="191" y="493"/>
      <point x="218" y="500" type="curve"/>
    </contour>
  </outline>
</glyph>
<glyph name="percent" format="1">
  <advance width="500"/>
  <unicode hex="0025"/>
  <outline>
    <contour>
      <point x="42" y="0" type="line"/>
      <point x="111" y="0" type="line"/>
      <point x="468" y="623" type="line"/>
      <point x="396" y="623" type="line"/>
    </contour>
    <contour>
      <point x="365" y="-10" type="curve" smooth="yes"/>
      <point x="436" y="-10"/>
      <point x="489" y="46"/>
      <point x="489" y="126" type="curve" smooth="yes"/>
      <point x="489" y="202"/>
      <point x="433" y="263"/>
      <point x="365" y="263" type="curve" smooth="yes"/>
      <point x="298" y="263"/>
      <point x="241" y="203"/>
      <point x="241" y="127" type="curve" smooth="yes"/>
      <point x="241" y="48"/>
      <point x="298" y="-10"/>
    </contour>
    <contour>
      <point x="363" y="53" type="curve" smooth="yes"/>
      <point x="329" y="53"/>
      <point x="314" y="85"/>
      <point x="314" y="126" type="curve" smooth="yes"/>
      <point x="314" y="166"/>
      <point x="329" y="200"/>
      <point x="363" y="200" type="curve" smooth="yes"/>
      <point x="397" y="200"/>
      <point x="412" y="166"/>
      <point x="412" y="126" type="curve" smooth="yes"/>
      <point x="412" y="85"/>
      <point x="397" y="53"/>
    </contour>
    <contour>
      <point x="137" y="361" type="curve" smooth="yes"/>
      <point x="208" y="361"/>
      <point x="261" y="417"/>
      <point x="261" y="497" type="curve" smooth="yes"/>
      <point x="261" y="573"/>
      <point x="205" y="634"/>
      <point x="137" y="634" type="curve" smooth="yes"/>
      <point x="70" y="634"/>
      <point x="13" y="574"/>
      <point x="13" y="498" type="curve" smooth="yes"/>
      <point x="13" y="419"/>
      <point x="70" y="361"/>
    </contour>
    <contour>
      <point x="135" y="424" type="curve" smooth="yes"/>
      <point x="101" y="424"/>
      <point x="86" y="456"/>
      <point x="86" y="497" type="curve" smooth="yes"/>
      <point x="86" y="537"/>
      <point x="101" y="571"/>
      <point x="135" y="571" type="curve" smooth="yes"/>
      <point x="169" y="571"/>
      <point x="184" y="537"/>
      <point x="184" y="497" type="curve" smooth="yes"/>
      <point x="184" y="456"/>
      <point x="169" y="424"/>
    </contour>
  </outline>
</glyph>
<glyph name="ampersand" format="1">
  <advance width="500"/>
  <unicode hex="0026"/>
  <outline>
    <contour>
      <point x="403" y="-21" type="line"/>
      <point x="487" y="41" type="line"/>
      <point x="420" y="129" type="line"/>
      <point x="441" y="159"/>
      <point x="466" y="199"/>
      <point x="491" y="242" type="curve"/>
      <point x="401" y="305" type="line"/>
      <point x="386" y="294"/>
      <point x="391" y="276"/>
      <point x="389" y="260" type="curve"/>
      <point x="384" y="242"/>
      <point x="375" y="222"/>
      <point x="363" y="206" type="curve"/>
      <point x="278" y="328" type="line"/>
      <point x="338" y="361"/>
      <point x="377" y="431"/>
      <point x="377" y="493" type="curve" smooth="yes"/>
      <point x="377" y="564"/>
      <point x="319" y="633"/>
      <point x="232" y="633" type="curve" smooth="yes"/>
      <point x="151" y="633"/>
      <point x="84" y="572"/>
      <point x="84" y="493" type="curve" smooth="yes"/>
      <point x="84" y="449"/>
      <point x="108" y="396"/>
      <point x="154" y="345" type="curve"/>
      <point x="83" y="305"/>
      <point x="30" y="226"/>
      <point x="30" y="149" type="curve" smooth="yes"/>
      <point x="30" y="55"/>
      <point x="88" y="-16"/>
      <point x="198" y="-16" type="curve" smooth="yes"/>
      <point x="256" y="-16"/>
      <point x="314" y="16"/>
      <point x="354" y="56" type="curve"/>
    </contour>
    <contour>
      <point x="212" y="72" type="curve" smooth="yes"/>
      <point x="170" y="72"/>
      <point x="139" y="116"/>
      <point x="139" y="160" type="curve" smooth="yes"/>
      <point x="139" y="200"/>
      <point x="155" y="248"/>
      <point x="198" y="275" type="curve"/>
      <point x="300" y="129" type="line"/>
      <point x="279" y="97"/>
      <point x="249" y="72"/>
    </contour>
    <contour>
      <point x="230" y="395" type="curve"/>
      <point x="199" y="435"/>
      <point x="186" y="467"/>
      <point x="186" y="492" type="curve" smooth="yes"/>
      <point x="186" y="525"/>
      <point x="202" y="550"/>
      <point x="233" y="550" type="curve" smooth="yes"/>
      <point x="261" y="550"/>
      <point x="278" y="522"/>
      <point x="278" y="488" type="curve" smooth="yes"/>
      <point x="278" y="454"/>
      <point x="263" y="415"/>
    </contour>
  </outline>
</glyph>
<glyph name="quotesingle" format="1">
  <advance width="500"/>
  <unicode hex="0027"/>
  <outline>
    <contour>
      <point x="200" y="665" type="line"/>
      <point x="200" y="505"/>
      <point x="207" y="493"/>
      <point x="216" y="407" type="curve"/>
      <point x="284" y="407" type="line"/>
      <point x="293" y="493"/>
      <point x="300" y="506"/>
      <point x="300" y="665" type="curve"/>
    </contour>
  </outline>
</glyph>
<glyph name="parenleft" format="1">
  <advance width="500"/>
  <unicode hex="0028"/>
  <outline>
    <contour>
      <point x="397" y="-111" type="curve"/>
      <point x="423" y="-26" type="line"/>
      <point x="288" y="37"/>
      <point x="209" y="171"/>
      <point x="209" y="317" type="curve" smooth="yes"/>
      <point x="209" y="467"/>
      <point x="284" y="587"/>
      <point x="417" y="655" type="curve"/>
      <point x="391" y="742" type="line"/>
      <point x="214" y="667"/>
      <point x="105" y="499"/>
      <point x="105" y="320" type="curve" smooth="yes"/>
      <point x="105" y="139"/>
      <point x="218" y="-37"/>
    </contour>
  </outline>
</glyph>
<glyph name="plus" format="1">
  <advance width="500"/>
  <unicode hex="002B"/>
  <outline>
    <contour>
      <point x="207" y="108" type="line"/>
      <point x="304" y="108" type="line"/>
      <point x="304" y="283" type="line"/>
      <point x="464" y="283" type="line"/>
      <point x="464" y="368" type="line"/>
      <point x="304" y="368" type="line"/>
      <point x="304" y="529" type="line"/>
      <point x="207" y="529" type="line"/>
      <point x="207" y="368" type="line"/>
      <point x="41" y="368" type="line"/>
      <point x="41" y="283" type="line"/>
      <point x="207" y="283" type="line"/>
    </contour>
  </outline>
</glyph>
<glyph name="comma" format="1">
  <advance width="500"/>
  <unicode hex="002C"/>
  <outline>
    <contour>
      <point x="205" y="-169" type="line"/>
      <point x="284" y="-88"/>
      <point x="323" y="-23"/>
      <point x="323" y="30" type="curve" smooth="yes"/>
      <point x="323" y="84"/>
      <point x="283" y="122"/>
      <point x="241" y="122" type="curve" smooth="yes"/>
      <point x="196" y="122"/>
      <point x="166" y="91"/>
      <point x="166" y="52" type="curve" smooth="yes"/>
      <point x="166" y="17"/>
      <point x="214" y="-4"/>
      <point x="214" y="-20" type="curve" smooth="yes"/>
      <point x="214" y="-41"/>
      <point x="186" y="-83"/>
      <point x="149" y="-118" type="curve"/>
    </contour>
  </outline>
</glyph>
<glyph name="hyphen" format="1">
  <advance width="500"/>
  <unicode hex="002D"/>
  <outline>
    <contour>
      <point x="111" y="255" type="line"/>
      <point x="391" y="295" type="line"/>
      <point x="391" y="386" type="line"/>
      <point x="111" y="346" type="line"/>
    </contour>
  </outline>
</glyph>
<glyph name="period" format="1">
  <advance width="500"/>
  <unicode hex="002E"/>
  <outline>
    <contour>
      <point x="240" y="-13" type="curve" smooth="yes"/>
      <point x="277" y="-13"/>
      <point x="307" y="17"/>
      <point x="307" y="55" type="curve" smooth="yes"/>
      <point x="307" y="92"/>
      <point x="277" y="122"/>
      <point x="240" y="122" type="curve" smooth="yes"/>
      <point x="202" y="122"/>
      <point x="172" y="92"/>
      <point x="172" y="55" type="curve" smooth="yes"/>
      <point x="172" y="17"/>
      <point x="202" y="-13"/>
    </contour>
  </outline>
</glyph>
<glyph name="slash" format="1">
  <advance width="500"/>
  <unicode hex="002F"/>
  <outline>
    <contour>
      <point x="140" y="-47" type="line"/>
      <point x="449" y="622" type="line"/>
      <point x="362" y="667" type="line"/>
      <point x="52" y="-5" type="line"/>
    </contour>
  </outline>
</glyph>
<glyph name="zero" format="1">
  <advance width="500"/>
  <unicode hex="0030"/>
  <outline>
    <contour>
      <point x="250" y="-19" type="curve"/>
      <point x="386" y="-19"/>
      <point x="466" y="102"/>
      <point x="466" y="308" type="curve" smooth="yes"/>
      <point x="466" y="514"/>
      <point x="386" y="635"/>
      <point x="250" y="635" type="curve"/>
      <point x="114" y="635"/>
      <point x="34" y="514"/>
      <point x="34" y="308" type="curve" smooth="yes"/>
      <point x="34" y="102"/>
      <point x="114" y="-19"/>
    </contour>
    <contour>
      <point x="250" y="71" type="curve"/>
      <point x="181" y="71"/>
      <point x="141" y="159"/>
      <point x="141" y="308" type="curve" smooth="yes"/>
      <point x="141" y="457"/>
      <point x="181" y="545"/>
      <point x="250" y="545" type="curve"/>
      <point x="319" y="545"/>
      <point x="359" y="457"/>
      <point x="359" y="308" type="curve" smooth="yes"/>
      <point x="359" y="159"/>
      <point x="319" y="71"/>
    </contour>
    <contour>
      <point x="106" y="187" type="line"/>
      <point x="124" y="114" type="line"/>
      <point x="390" y="430" type="line"/>
      <point x="372" y="503" type="line"/>
    </contour>
  </outline>
</glyph>
<glyph name="one" format="1">
  <advance width="500"/>
  <unicode hex="0031"/>
  <outline>
    <contour>
      <point x="209" y="0" type="line"/>
      <point x="319" y="0" type="line"/>
      <point x="319" y="623" type="line"/>
      <point x="244" y="623" type="line"/>
      <point x="75" y="532" type="line"/>
      <point x="102" y="464" type="line"/>
      <point x="209" y="496" type="line"/>
    </contour>
  </outline>
</glyph>
<glyph name="two" format="1">
  <advance width="500"/>
  <unicode hex="0032"/>
  <outline>
    <contour>
      <point x="57" y="0" type="line"/>
      <point x="444" y="0" type="line"/>
      <point x="444" y="93" type="line" name="_corner01"/>
      <point x="192" y="93" type="line"/>
      <point x="339" y="240"/>
      <point x="443" y="331"/>
      <point x="443" y="454" type="curve" smooth="yes"/>
      <point x="443" y="563"/>
      <point x="360" y="637"/>
      <point x="248" y="637" type="curve" smooth="yes"/>
      <point x="161" y="637"/>
      <point x="90" y="594"/>
      <point x="42" y="517" type="curve"/>
      <point x="116" y="461" type="line" name="_corner00"/>
      <point x="147" y="517"/>
      <point x="192" y="539"/>
      <point x="246" y="539" type="curve" smooth="yes"/>
      <point x="302" y="539"/>
      <point x="338" y="506"/>
      <point x="338" y="453" type="curve" smooth="yes"/>
      <point x="338" y="351"/>
      <point x="256" y="273"/>
      <point x="57" y="82" type="curve"/>
    </contour>
  </outline>
</glyph>
<glyph name="three" format="1">
  <advance width="500"/>
  <unicode hex="0033"/>
  <outline>
    <contour>
      <point x="232" y="-19" type="curve" smooth="yes"/>
      <point x="365" y="-19"/>
      <point x="442" y="68"/>
      <point x="442" y="175" type="curve" smooth="yes"/>
      <point x="442" y="265"/>
      <point x="390" y="314"/>
      <point x="339" y="332" type="curve"/>
      <point x="381" y="351"/>
      <point x="426" y="399"/>
      <point x="426" y="471" type="curve" smooth="yes"/>
      <point x="426" y="565"/>
      <point x="347" y="637"/>
      <point x="231" y="637" type="curve" smooth="yes"/>
      <point x="162" y="637"/>
      <point x="96" y="612"/>
      <point x="47" y="553" type="curve"/>
      <point x="110" y="489" type="line"/>
      <point x="153" y="528"/>
      <point x="188" y="541"/>
      <point x="232" y="541" type="curve" smooth="yes"/>
      <point x="285" y="541"/>
      <point x="313" y="507"/>
      <point x="313" y="460" type="curve" smooth="yes"/>
      <point x="313" y="404"/>
      <point x="283" y="361"/>
      <point x="155" y="366" type="curve"/>
      <point x="155" y="276" type="line"/>
      <point x="289" y="290"/>
      <point x="330" y="254"/>
      <point x="330" y="179" type="curve" smooth="yes"/>
      <point x="330" y="119"/>
      <point x="295" y="78"/>
      <point x="233" y="78" type="curve" smooth="yes"/>
      <point x="159" y="78"/>
      <point x="114" y="101"/>
      <point x="84" y="159" type="curve" name="_corner00"/>
      <point x="37" y="65" type="line"/>
      <point x="85" y="5"/>
      <point x="153" y="-19"/>
    </contour>
  </outline>
</glyph>
<glyph name="four" format="1">
  <advance width="500"/>
  <unicode hex="0034"/>
  <outline>
    <contour>
      <point x="272" y="0" type="line"/>
      <point x="385" y="0" type="line"/>
      <point x="385" y="153" type="line"/>
      <point x="468" y="153" type="line"/>
      <point x="468" y="247" type="line"/>
      <point x="385" y="247" type="line"/>
      <point x="385" y="623" type="line"/>
      <point x="304" y="623" type="line"/>
      <point x="34" y="224" type="line"/>
      <point x="34" y="154" type="line"/>
      <point x="272" y="154" type="line"/>
    </contour>
    <contour>
      <point x="150" y="244" type="line"/>
      <point x="276" y="430" type="line"/>
      <point x="276" y="244" type="line"/>
    </contour>
  </outline>
</glyph>
<glyph name="five" format="1">
  <advance width="500"/>
  <unicode hex="0035"/>
  <outline>
    <contour>
      <point x="254" y="-19" type="curve" smooth="yes"/>
      <point x="381" y="-19"/>
      <point x="461" y="71"/>
      <point x="461" y="201" type="curve" smooth="yes"/>
      <point x="461" y="338"/>
      <point x="385" y="418"/>
      <point x="266" y="418" type="curve" smooth="yes"/>
      <point x="242" y="418"/>
      <point x="220" y="414"/>
      <point x="197" y="407" type="curve"/>
      <point x="205" y="528" type="line"/>
      <point x="442" y="528" type="line"/>
      <point x="442" y="623" type="line"/>
      <point x="107" y="623" type="line"/>
      <point x="84" y="296" type="line"/>
      <point x="156" y="265" type="line"/>
      <point x="185" y="306"/>
      <point x="214" y="325"/>
      <point x="254" y="325" type="curve" smooth="yes"/>
      <point x="311" y="325"/>
      <point x="350" y="281"/>
      <point x="350" y="202" type="curve" smooth="yes"/>
      <point x="350" y="121"/>
      <point x="306" y="80"/>
      <point x="250" y="80" type="curve" smooth="yes"/>
      <point x="186" y="80"/>
      <point x="159" y="120"/>
      <point x="137" y="163" type="curve" name="_corner00"/>
      <point x="53" y="99" type="line"/>
      <point x="99" y="13"/>
      <point x="171" y="-19"/>
    </contour>
  </outline>
</glyph>
<glyph name="six" format="1">
  <advance width="500"/>
  <unicode hex="0036"/>
  <outline>
    <contour>
      <point x="259" y="-19" type="curve" smooth="yes"/>
      <point x="367" y="-19"/>
      <point x="454" y="77"/>
      <point x="454" y="202" type="curve" smooth="yes"/>
      <point x="454" y="327"/>
      <point x="370" y="415"/>
      <point x="266" y="415" type="curve" smooth="yes"/>
      <point x="230" y="415"/>
      <point x="189" y="394"/>
      <point x="163" y="368" type="curve"/>
      <point x="177" y="497"/>
      <point x="235" y="540"/>
      <point x="283" y="540" type="curve" smooth="yes"/>
      <point x="332" y="540"/>
      <point x="345" y="517"/>
      <point x="369" y="488" type="curve" name="_corner00"/>
      <point x="440" y="563" type="line"/>
      <point x="394" y="610"/>
      <point x="340" y="636"/>
      <point x="283" y="636" type="curve" smooth="yes"/>
      <point x="145" y="636"/>
      <point x="51" y="504"/>
      <point x="51" y="287" type="curve" smooth="yes"/>
      <point x="51" y="109"/>
      <point x="128" y="-19"/>
    </contour>
    <contour>
      <point x="261" y="84" type="curve" smooth="yes"/>
      <point x="206" y="84"/>
      <point x="165" y="148"/>
      <point x="165" y="256" type="curve"/>
      <point x="187" y="292"/>
      <point x="224" y="316"/>
      <point x="260" y="316" type="curve" smooth="yes"/>
      <point x="299" y="316"/>
      <point x="343" y="281"/>
      <point x="343" y="202" type="curve" smooth="yes"/>
      <point x="343" y="126"/>
      <point x="306" y="84"/>
    </contour>
  </outline>
</glyph>
<glyph name="seven" format="1">
  <advance width="500"/>
  <unicode hex="0037"/>
  <outline>
    <contour>
      <point x="114" y="0" type="curve"/>
      <point x="235" y="0" type="line"/>
      <point x="295" y="196"/>
      <point x="364" y="390"/>
      <point x="441" y="566" type="curve"/>
      <point x="441" y="623" type="line"/>
      <point x="66" y="623" type="line"/>
      <point x="66" y="525" type="line"/>
      <point x="306" y="525" type="line"/>
      <point x="236" y="356"/>
      <point x="173" y="176"/>
    </contour>
  </outline>
</glyph>
<glyph name="eight" format="1">
  <advance width="500"/>
  <unicode hex="0038"/>
  <outline>
    <contour>
      <point x="250" y="-19" type="curve" smooth="yes"/>
      <point x="367" y="-19"/>
      <point x="459" y="61"/>
      <point x="459" y="165" type="curve" smooth="yes"/>
      <point x="459" y="234"/>
      <point x="412" y="298"/>
      <point x="347" y="334" type="curve"/>
      <point x="397" y="367"/>
      <point x="438" y="422"/>
      <point x="438" y="477" type="curve" smooth="yes"/>
      <point x="438" y="565"/>
      <point x="360" y="639"/>
      <point x="256" y="639" type="curve" smooth="yes"/>
      <point x="154" y="639"/>
      <point x="71" y="563"/>
      <point x="71" y="471" type="curve" smooth="yes"/>
      <point x="71" y="417"/>
      <point x="108" y="364"/>
      <point x="157" y="331" type="curve"/>
      <point x="89" y="293"/>
      <point x="42" y="228"/>
      <point x="42" y="162" type="curve" smooth="yes"/>
      <point x="42" y="61"/>
      <point x="132" y="-19"/>
    </contour>
    <contour>
      <point x="252" y="82" type="curve" smooth="yes"/>
      <point x="202" y="82"/>
      <point x="160" y="122"/>
      <point x="160" y="169" type="curve" smooth="yes"/>
      <point x="160" y="216"/>
      <point x="194" y="258"/>
      <point x="239" y="281" type="curve"/>
      <point x="301" y="259"/>
      <point x="341" y="214"/>
      <point x="341" y="166" type="curve" smooth="yes"/>
      <point x="341" y="119"/>
      <point x="304" y="82"/>
    </contour>
    <contour>
      <point x="266" y="380" type="curve"/>
      <point x="222" y="403"/>
      <point x="184" y="434"/>
      <point x="184" y="476" type="curve" smooth="yes"/>
      <point x="184" y="511"/>
      <point x="213" y="541"/>
      <point x="253" y="541" type="curve" smooth="yes"/>
      <point x="293" y="541"/>
      <point x="325" y="510"/>
      <point x="325" y="474" type="curve" smooth="yes"/>
      <point x="325" y="438"/>
      <point x="300" y="403"/>
    </contour>
  </outline>
</glyph>
<glyph name="nine" format="1">
  <advance width="500"/>
  <unicode hex="0039"/>
  <outline>
    <contour>
      <point x="231" y="-19" type="curve" smooth="yes"/>
      <point x="383" y="-19"/>
      <point x="445" y="113"/>
      <point x="445" y="330" type="curve" smooth="yes"/>
      <point x="445" y="538"/>
      <point x="377" y="636"/>
      <point x="252" y="636" type="curve" smooth="yes"/>
      <point x="128" y="636"/>
      <point x="42" y="540"/>
      <point x="42" y="418" type="curve" smooth="yes"/>
      <point x="42" y="290"/>
      <point x="136" y="202"/>
      <point x="229" y="202" type="curve" smooth="yes"/>
      <point x="281" y="202"/>
      <point x="318" y="229"/>
      <point x="343" y="260" type="curve"/>
      <point x="339" y="376" type="line"/>
      <point x="319" y="332"/>
      <point x="297" y="301"/>
      <point x="244" y="301" type="curve" smooth="yes"/>
      <point x="187" y="301"/>
      <point x="153" y="336"/>
      <point x="153" y="411" type="curve" smooth="yes"/>
      <point x="153" y="491"/>
      <point x="191" y="536"/>
      <point x="254" y="536" type="curve" smooth="yes"/>
      <point x="316" y="536"/>
      <point x="344" y="492"/>
      <point x="336" y="278" type="curve" smooth="yes"/>
      <point x="330" y="136"/>
      <point x="309" y="81"/>
      <point x="225" y="81" type="curve" smooth="yes"/>
      <point x="183" y="81"/>
      <point x="149" y="95"/>
      <point x="114" y="131" type="curve" name="_corner00"/>
      <point x="46" y="55" type="line"/>
      <point x="100" y="4"/>
      <point x="168" y="-19"/>
    </contour>
  </outline>
</glyph>
<glyph name="colon" format="1">
  <advance width="500"/>
  <unicode hex="003A"/>
  <outline>
    <contour>
      <point x="233" y="299" type="curve" smooth="yes"/>
      <point x="274" y="299"/>
      <point x="308" y="330"/>
      <point x="308" y="367" type="curve" smooth="yes"/>
      <point x="308" y="407"/>
      <point x="269" y="435"/>
      <point x="233" y="435" type="curve"/>
      <point x="194" y="435"/>
      <point x="159" y="404"/>
      <point x="159" y="367" type="curve" smooth="yes"/>
      <point x="159" y="330"/>
      <point x="194" y="299"/>
    </contour>
    <contour>
      <point x="233" y="-13" type="curve" smooth="yes"/>
      <point x="275" y="-13"/>
      <point x="308" y="18"/>
      <point x="308" y="54" type="curve" smooth="yes"/>
      <point x="308" y="94"/>
      <point x="269" y="123"/>
      <point x="233" y="123" type="curve"/>
      <point x="194" y="123"/>
      <point x="159" y="92"/>
      <point x="159" y="54" type="curve" smooth="yes"/>
      <point x="159" y="17"/>
      <point x="192" y="-13"/>
    </contour>
  </outline>
</glyph>
<glyph name="semicolon" format="1">
  <advance width="500"/>
  <unicode hex="003B"/>
  <outline>
    <contour>
      <point x="198" y="-169" type="line"/>
      <point x="277" y="-88"/>
      <point x="316" y="-23"/>
      <point x="316" y="30" type="curve" smooth="yes"/>
      <point x="316" y="84"/>
      <point x="276" y="122"/>
      <point x="233" y="122" type="curve" smooth="yes"/>
      <point x="189" y="122"/>
      <point x="159" y="91"/>
      <point x="159" y="52" type="curve" smooth="yes"/>
      <point x="159" y="17"/>
      <point x="207" y="-4"/>
      <point x="207" y="-20" type="curve" smooth="yes"/>
      <point x="207" y="-41"/>
      <point x="179" y="-83"/>
      <point x="141" y="-118" type="curve"/>
    </contour>
    <contour>
      <point x="233" y="299" type="curve" smooth="yes"/>
      <point x="274" y="299"/>
      <point x="308" y="330"/>
      <point x="308" y="367" type="curve" smooth="yes"/>
      <point x="308" y="407"/>
      <point x="269" y="435"/>
      <point x="233" y="435" type="curve"/>
      <point x="194" y="435"/>
      <point x="159" y="404"/>
      <point x="159" y="367" type="curve" smooth="yes"/>
      <point x="159" y="330"/>
      <point x="194" y="299"/>
    </contour>
  </outline>
</glyph>
<glyph name="less" format="1">
  <advance width="500"/>
  <unicode hex="003C"/>
  <outline>
    <contour>
      <point x="469" y="39" type="line"/>
      <point x="469" y="146" type="line"/>
      <point x="154" y="323" type="line"/>
      <point x="466" y="483" type="line"/>
      <point x="466" y="582" type="line"/>
      <point x="32" y="353" type="line"/>
      <point x="32" y="295" type="line"/>
    </contour>
  </outline>
</glyph>
<glyph name="equal" format="1">
  <advance width="500"/>
  <unicode hex="003D"/>
  <outline>
    <contour>
      <point x="41" y="388" type="line"/>
      <point x="464" y="388" type="line"/>
      <point x="464" y="473" type="line"/>
      <point x="41" y="473" type="line"/>
    </contour>
    <contour>
      <point x="41" y="178" type="line"/>
      <point x="464" y="178" type="line"/>
      <point x="464" y="263" type="line"/>
      <point x="41" y="263" type="line"/>
    </contour>
  </outline>
</glyph>
<glyph name="greater" format="1">
  <advance width="500"/>
  <unicode hex="003E"/>
  <outline>
    <contour>
      <point x="37" y="39" type="line"/>
      <point x="474" y="295" type="line"/>
      <point x="474" y="353" type="line"/>
      <point x="38" y="582" type="line"/>
      <point x="38" y="483" type="line"/>
      <point x="351" y="323" type="line"/>
      <point x="37" y="146" type="line"/>
    </contour>
  </outline>
</glyph>
<glyph name="question" format="1">
  <advance width="500"/>
  <unicode hex="003F"/>
  <outline>
    <contour>
      <point x="211" y="185" type="line"/>
      <point x="310" y="185" type="line"/>
      <point x="310" y="240" type="line" smooth="yes"/>
      <point x="310" y="359"/>
      <point x="445" y="360"/>
      <point x="445" y="501" type="curve" smooth="yes"/>
      <point x="445" y="589"/>
      <point x="374" y="672"/>
      <point x="259" y="672" type="curve" smooth="yes"/>
      <point x="176" y="672"/>
      <point x="102" y="628"/>
      <point x="55" y="557" type="curve"/>
      <point x="122" y="497" type="line" name="_corner00"/>
      <point x="156" y="552"/>
      <point x="196" y="583"/>
      <point x="255" y="583" type="curve" smooth="yes"/>
      <point x="317" y="583"/>
      <point x="346" y="549"/>
      <point x="346" y="499" type="curve" smooth="yes"/>
      <point x="346" y="397"/>
      <point x="211" y="365"/>
      <point x="211" y="240" type="curve" smooth="yes"/>
    </contour>
    <component base="period" xOffset="23"/>
  </outline>
</glyph>
<glyph name="at" format="1">
  <advance width="500"/>
  <unicode hex="0040"/>
  <outline>
    <contour>
      <point x="294" y="-14" type="curve" smooth="yes"/>
      <point x="352" y="-14"/>
      <point x="401" y="-2"/>
      <point x="448" y="34" type="curve"/>
      <point x="408" y="108" type="line"/>
      <point x="371" y="76"/>
      <point x="332" y="67"/>
      <point x="300" y="67" type="curve" smooth="yes"/>
      <point x="203" y="67"/>
      <point x="117" y="157"/>
      <point x="117" y="318" type="curve" smooth="yes"/>
      <point x="117" y="482"/>
      <point x="194" y="560"/>
      <point x="269" y="560" type="curve" smooth="yes"/>
      <point x="328" y="560"/>
      <point x="369" y="517"/>
      <point x="375" y="454" type="curve"/>
      <point x="227" y="452"/>
      <point x="163" y="393"/>
      <point x="163" y="294" type="curve" smooth="yes"/>
      <point x="163" y="215"/>
      <point x="222" y="156"/>
      <point x="299" y="156" type="curve" smooth="yes"/>
      <point x="333" y="156"/>
      <point x="365" y="173"/>
      <point x="382" y="194" type="curve"/>
      <point x="382" y="163" type="line"/>
      <point x="473" y="163" type="line"/>
      <point x="473" y="379" type="line" smooth="yes"/>
      <point x="473" y="558"/>
      <point x="394" y="639"/>
      <point x="272" y="639" type="curve" smooth="yes"/>
      <point x="150" y="639"/>
      <point x="25" y="534"/>
      <point x="25" y="317" type="curve" smooth="yes"/>
      <point x="25" y="98"/>
      <point x="148" y="-14"/>
    </contour>
    <contour>
      <point x="311" y="235" type="curve" smooth="yes"/>
      <point x="280" y="235"/>
      <point x="259" y="261"/>
      <point x="259" y="301" type="curve" smooth="yes"/>
      <point x="259" y="341"/>
      <point x="296" y="378"/>
      <point x="379" y="379" type="curve"/>
      <point x="379" y="280"/>
      <point x="365" y="235"/>
    </contour>
  </outline>
</glyph>
<glyph name="A" format="1">
  <advance width="500"/>
  <unicode hex="0041"/>
  <outline>
    <contour>
      <point x="373" y="161" type="line"/>
      <point x="353" y="239" type="line"/>
      <point x="135" y="239" type="line"/>
      <point x="118" y="161" type="line"/>
    </contour>
    <contour>
      <point x="251" y="446" type="line"/>
      <point x="374" y="0" type="line"/>
      <point x="491" y="0" type="line"/>
      <point x="283" y="623" type="line"/>
      <point x="218" y="623" type="line"/>
      <point x="10" y="0" type="line"/>
      <point x="125" y="0" type="line"/>
    </contour>
    <contour>
      <point x="250" y="0" type="move" name="bottom"/>
    </contour>
    <contour>
      <point x="426" y="0" type="move" name="ogonek"/>
    </contour>
    <contour>
      <point x="251" y="623" type="move" name="top"/>
    </contour>
  </outline>
</glyph>
<glyph name="B" format="1">
  <advance width="500"/>
  <unicode hex="0042"/>
  <outline>
    <contour>
      <point x="40" y="0" type="line"/>
      <point x="228" y="0" type="line" smooth="yes"/>
      <point x="395" y="0"/>
      <point x="471" y="73"/>
      <point x="471" y="183" type="curve" smooth="yes"/>
      <point x="471" y="243"/>
      <point x="429" y="306"/>
      <point x="371" y="334" type="curve"/>
      <point x="418" y="360"/>
      <point x="447" y="413"/>
      <point x="447" y="462" type="curve" smooth="yes"/>
      <point x="447" y="557"/>
      <point x="380" y="623"/>
      <point x="229" y="623" type="curve" smooth="yes"/>
      <point x="40" y="623" type="line"/>
    </contour>
    <contour>
      <point x="152" y="95" type="line"/>
      <point x="152" y="289" type="line"/>
      <point x="223" y="289" type="line"/>
      <point x="319" y="289"/>
      <point x="354" y="244"/>
      <point x="354" y="186" type="curve" smooth="yes"/>
      <point x="354" y="117"/>
      <point x="309" y="95"/>
      <point x="239" y="95" type="curve" smooth="yes"/>
    </contour>
    <contour>
      <point x="152" y="380" type="line"/>
      <point x="152" y="530" type="line"/>
      <point x="230" y="530" type="line"/>
      <point x="301" y="530"/>
      <point x="334" y="495"/>
      <point x="334" y="456" type="curve" smooth="yes"/>
      <point x="334" y="413"/>
      <point x="305" y="380"/>
      <point x="220" y="380" type="curve" smooth="yes"/>
    </contour>
    <contour>
      <point x="250" y="0" type="move" name="bottom"/>
    </contour>
    <contour>
      <point x="250" y="623" type="move" name="top"/>
    </contour>
  </outline>
</glyph>
<glyph name="C" format="1">
  <advance width="500"/>
  <unicode hex="0043"/>
  <outline>
    <contour>
      <point x="275" y="-18" type="curve" smooth="yes"/>
      <point x="364" y="-18"/>
      <point x="433" y="24"/>
      <point x="480" y="104" type="curve"/>
      <point x="395" y="159" type="line"/>
      <point x="366" y="108"/>
      <point x="330" y="72"/>
      <point x="282" y="72" type="curve" smooth="yes"/>
      <point x="201" y="72"/>
      <point x="145" y="177"/>
      <point x="145" y="313" type="curve" smooth="yes"/>
      <point x="145" y="454"/>
      <point x="187" y="549"/>
      <point x="287" y="549" type="curve" smooth="yes"/>
      <point x="330" y="549"/>
      <point x="378" y="532"/>
      <point x="405" y="457" type="curve" name="_corner00"/>
      <point x="487" y="497" type="line"/>
      <point x="450" y="584"/>
      <point x="381" y="639"/>
      <point x="284" y="639" type="curve" smooth="yes"/>
      <point x="165" y="639"/>
      <point x="29" y="553"/>
      <point x="29" y="308" type="curve"/>
      <point x="29" y="87"/>
      <point x="138" y="-18"/>
    </contour>
    <contour>
      <point x="270" y="0" type="move" name="bottom"/>
    </contour>
    <contour>
      <point x="270" y="623" type="move" name="top"/>
    </contour>
  </outline>
</glyph>
<glyph name="D" format="1">
  <advance width="500"/>
  <unicode hex="0044"/>
  <outline>
    <contour>
      <point x="44" y="0" type="line"/>
      <point x="193" y="0" type="line" smooth="yes"/>
      <point x="394" y="0"/>
      <point x="476" y="118"/>
      <point x="476" y="307" type="curve" smooth="yes"/>
      <point x="476" y="402"/>
      <point x="454" y="479"/>
      <point x="412" y="536" type="curve" smooth="yes"/>
      <point x="370" y="592"/>
      <point x="316" y="623"/>
      <point x="205" y="623" type="curve" smooth="yes"/>
      <point x="44" y="623" type="line"/>
    </contour>
    <contour>
      <point x="153" y="88" type="line"/>
      <point x="153" y="530" type="line"/>
      <point x="201" y="530" type="line"/>
      <point x="317" y="530"/>
      <point x="364" y="445"/>
      <point x="364" y="304" type="curve" smooth="yes"/>
      <point x="364" y="165"/>
      <point x="309" y="88"/>
      <point x="191" y="88" type="curve" smooth="yes"/>
    </contour>
    <contour>
      <point x="241" y="0" type="move" name="bottom"/>
    </contour>
    <contour>
      <point x="250" y="312" type="move" name="center"/>
    </contour>
    <contour>
      <point x="220" y="623" type="move" name="top"/>
    </contour>
  </outline>
</glyph>
<glyph name="E" format="1">
  <advance width="500"/>
  <unicode hex="0045"/>
  <outline>
    <contour>
      <point x="56" y="0" type="line"/>
      <point x="460" y="0" type="line"/>
      <point x="460" y="96" type="line"/>
      <point x="165" y="96" type="line"/>
      <point x="165" y="275" type="line"/>
      <point x="411" y="275" type="line"/>
      <point x="411" y="373" type="line"/>
      <point x="165" y="373" type="line"/>
      <point x="165" y="527" type="line"/>
      <point x="462" y="527" type="line"/>
      <point x="462" y="623" type="line"/>
      <point x="56" y="623" type="line"/>
    </contour>
    <contour>
      <point x="250" y="0" type="move" name="bottom"/>
    </contour>
    <contour>
      <point x="384" y="1" type="move" name="ogonek"/>
    </contour>
    <contour>
      <point x="270" y="623" type="move" name="top"/>
    </contour>
    <contour>
      <point x="20" y="623" type="move" name="topleft"/>
    </contour>
  </outline>
</glyph>
<glyph name="F" format="1">
  <advance width="500"/>
  <unicode hex="0046"/>
  <outline>
    <contour>
      <point x="68" y="0" type="line"/>
      <point x="180" y="0" type="line"/>
      <point x="180" y="288" type="line"/>
      <point x="402" y="288" type="line"/>
      <point x="402" y="382" type="line"/>
      <point x="180" y="382" type="line"/>
      <point x="180" y="528" type="line"/>
      <point x="455" y="528" type="line"/>
      <point x="455" y="623" type="line"/>
      <point x="68" y="623" type="line"/>
    </contour>
    <contour>
      <point x="250" y="0" type="move" name="bottom"/>
    </contour>
    <contour>
      <point x="250" y="623" type="move" name="top"/>
    </contour>
  </outline>
</glyph>
<glyph name="I" format="1">
  <advance width="500"/>
  <unicode hex="0049"/>
  <outline>
    <contour>
      <point x="73" y="0" type="line"/>
      <point x="432" y="0" type="line"/>
      <point x="432" y="92" type="line"/>
      <point x="306" y="92" type="line"/>
      <point x="306" y="530" type="line"/>
      <point x="427" y="530" type="line"/>
      <point x="427" y="623" type="line"/>
      <point x="79" y="623" type="line"/>
      <point x="79" y="530" type="line"/>
      <point x="194" y="530" type="line"/>
      <point x="194" y="93" type="line"/>
      <point x="73" y="93" type="line"/>
    </contour>
    <contour>
      <point x="250" y="0" type="move" name="bottom"/>
    </contour>
    <contour>
      <point x="356" y="0" type="move" name="ogonek"/>
    </contour>
    <contour>
      <point x="250" y="623" type="move" name="top"/>
    </contour>
    <contour>
      <point x="20" y="623" type="move" name="topleft"/>
    </contour>
  </outline>
</glyph>
<glyph name="J" format="1">
  <advance width="500"/>
  <unicode hex="004A"/>
  <outline>
    <contour>
      <point x="192" y="-17" type="curve"/>
      <point x="289" y="-17"/>
      <point x="370" y="49"/>
      <point x="370" y="201" type="curve"/>
      <point x="370" y="530" type="line"/>
      <point x="464" y="530" type="line"/>
      <point x="464" y="623" type="line"/>
      <point x="142" y="623" type="line"/>
      <point x="142" y="530" type="line"/>
      <point x="258" y="530" type="line"/>
      <point x="258" y="214" type="line"/>
      <point x="258" y="118"/>
      <point x="236" y="79"/>
      <point x="180" y="79" type="curve" smooth="yes"/>
      <point x="142" y="79"/>
      <point x="116" y="97"/>
      <point x="89" y="143" type="curve" name="_corner00"/>
      <point x="25" y="70" type="line"/>
      <point x="68" y="13"/>
      <point x="125" y="-17"/>
    </contour>
    <contour>
      <point x="193" y="0" type="move" name="bottom"/>
    </contour>
    <contour>
      <point x="310" y="623" type="move" name="top"/>
    </contour>
  </outline>
</glyph>
<glyph name="K" format="1">
  <advance width="500"/>
  <unicode hex="004B"/>
  <outline>
    <contour>
      <point x="370" y="-5" type="line"/>
      <point x="506" y="1" type="line"/>
      <point x="265" y="358" type="line"/>
      <point x="497" y="623" type="line"/>
      <point x="428" y="623" type="line" smooth="yes"/>
      <point x="413" y="623"/>
      <point x="392" y="626"/>
      <point x="370" y="631" type="curve"/>
      <point x="158" y="385" type="line"/>
      <point x="158" y="623" type="line" name="_corner00"/>
      <point x="43" y="623" type="line"/>
      <point x="43" y="0" type="line"/>
      <point x="158" y="0" type="line"/>
      <point x="158" y="255" type="line"/>
      <point x="185" y="284" type="line"/>
    </contour>
  </outline>
</glyph>
<glyph name="L" format="1">
  <advance width="500"/>
  <unicode hex="004C"/>
  <outline>
    <contour>
      <point x="61" y="0" type="line"/>
      <point x="459" y="0" type="line"/>
      <point x="459" y="94" type="line"/>
      <point x="176" y="94" type="line"/>
      <point x="176" y="623" type="line" name="_corner00"/>
      <point x="61" y="623" type="line"/>
    </contour>
    <contour>
      <point x="250" y="0" type="move" name="bottom"/>
    </contour>
    <contour>
      <point x="129" y="312" type="move" name="center"/>
    </contour>
    <contour>
      <point x="250" y="623" type="move" name="top"/>
    </contour>
    <contour>
      <point x="213" y="467" type="move" name="topright"/>
    </contour>
  </outline>
</glyph>
<glyph name="M" format="1">
  <advance width="500"/>
  <unicode hex="004D"/>
  <outline>
    <contour>
      <point x="30" y="0" type="line"/>
      <point x="130" y="0" type="line"/>
      <point x="130" y="452" type="line"/>
      <point x="214" y="217" type="line"/>
      <point x="288" y="217" type="line"/>
      <point x="375" y="452" type="line"/>
      <point x="375" y="0" type="line"/>
      <point x="476" y="0" type="line"/>
      <point x="476" y="624" type="line"/>
      <point x="357" y="624" type="line"/>
      <point x="253" y="330" type="line"/>
      <point x="148" y="623" type="line"/>
      <point x="30" y="623" type="line"/>
    </contour>
    <contour>
      <point x="250" y="0" type="move" name="bottom"/>
    </contour>
    <contour>
      <point x="250" y="623" type="move" name="top"/>
    </contour>
  </outline>
</glyph>
<glyph name="N" format="1">
  <advance width="500"/>
  <unicode hex="004E"/>
  <outline>
    <contour>
      <point x="32" y="0" type="line"/>
      <point x="133" y="0" type="line"/>
      <point x="133" y="471" type="line"/>
      <point x="344" y="0" type="line"/>
      <point x="468" y="0" type="line"/>
      <point x="468" y="623" type="line" name="_corner00"/>
      <point x="367" y="623" type="line"/>
      <point x="367" y="177" type="line"/>
      <point x="169" y="623" type="line"/>
      <point x="32" y="623" type="line"/>
    </contour>
    <contour>
      <point x="250" y="0" type="move" name="bottom"/>
    </contour>
    <contour>
      <point x="250" y="623" type="move" name="top"/>
    </contour>
  </outline>
</glyph>
<glyph name="O" format="1">
  <advance width="500"/>
  <unicode hex="004F"/>
  <outline>
    <contour>
      <point x="253" y="-18" type="curve"/>
      <point x="401" y="-18"/>
      <point x="489" y="105"/>
      <point x="489" y="313" type="curve" smooth="yes"/>
      <point x="489" y="518"/>
      <point x="401" y="639"/>
      <point x="253" y="639" type="curve"/>
      <point x="105" y="639"/>
      <point x="17" y="518"/>
      <point x="17" y="313" type="curve" smooth="yes"/>
      <point x="17" y="105"/>
      <point x="105" y="-18"/>
    </contour>
    <contour>
      <point x="253" y="72" type="curve"/>
      <point x="178" y="72"/>
      <point x="133" y="170"/>
      <point x="133" y="319" type="curve" smooth="yes"/>
      <point x="133" y="457"/>
      <point x="178" y="549"/>
      <point x="253" y="549" type="curve"/>
      <point x="328" y="549"/>
      <point x="373" y="457"/>
      <point x="373" y="319" type="curve" smooth="yes"/>
      <point x="373" y="170"/>
      <point x="328" y="72"/>
    </contour>
    <contour>
      <point x="253" y="0" type="move" name="bottom"/>
    </contour>
    <contour>
      <point x="250" y="312" type="move" name="center"/>
    </contour>
    <contour>
      <point x="286" y="10" type="move" name="ogonek"/>
    </contour>
    <contour>
      <point x="252" y="623" type="move" name="top"/>
    </contour>
    <contour>
      <point x="20" y="623" type="move" name="topleft"/>
    </contour>
    <contour>
      <point x="424" y="576" type="move" name="topright"/>
    </contour>
  </outline>
</glyph>
<glyph name="P" format="1">
  <advance width="500"/>
  <unicode hex="0050"/>
  <outline>
    <contour>
      <point x="50" y="0" type="line"/>
      <point x="164" y="0" type="line"/>
      <point x="164" y="252" type="line"/>
      <point x="266" y="252" type="line"/>
      <point x="410" y="252"/>
      <point x="471" y="335"/>
      <point x="471" y="436" type="curve" smooth="yes"/>
      <point x="471" y="537"/>
      <point x="409" y="623"/>
      <point x="261" y="623" type="curve"/>
      <point x="50" y="623" type="line"/>
    </contour>
    <contour>
      <point x="164" y="347" type="line"/>
      <point x="164" y="524" type="line"/>
      <point x="259" y="524" type="line"/>
      <point x="325" y="524"/>
      <point x="356" y="485"/>
      <point x="356" y="433" type="curve" smooth="yes"/>
      <point x="356" y="384"/>
      <point x="327" y="347"/>
      <point x="258" y="347" type="curve"/>
    </contour>
    <contour>
      <point x="250" y="0" type="move" name="bottom"/>
    </contour>
    <contour>
      <point x="250" y="623" type="move" name="top"/>
    </contour>
  </outline>
</glyph>
<glyph name="Q" format="1">
  <advance width="500"/>
  <unicode hex="0051"/>
  <outline>
    <contour>
      <point x="363" y="-146" type="curve" smooth="yes"/>
      <point x="443" y="-146" type="line"/>
      <point x="446" y="-45" type="line"/>
      <point x="347" y="-49" type="line" smooth="yes"/>
      <point x="319" y="-50"/>
      <point x="305" y="-34"/>
      <point x="303" y="-11" type="curve"/>
      <point x="399" y="13"/>
      <point x="483" y="108"/>
      <point x="483" y="312" type="curve" smooth="yes"/>
      <point x="483" y="533"/>
      <point x="377" y="639"/>
      <point x="252" y="639" type="curve" smooth="yes"/>
      <point x="108" y="639"/>
      <point x="17" y="506"/>
      <point x="17" y="313" type="curve" smooth="yes"/>
      <point x="17" y="146"/>
      <point x="82" y="19"/>
      <point x="196" y="-11" type="curve"/>
      <point x="199" y="-107"/>
      <point x="250" y="-146"/>
    </contour>
    <contour>
      <point x="252" y="84" type="curve" smooth="yes"/>
      <point x="182" y="84"/>
      <point x="133" y="166"/>
      <point x="133" y="319" type="curve" smooth="yes"/>
      <point x="133" y="488"/>
      <point x="189" y="539"/>
      <point x="253" y="539" type="curve" smooth="yes"/>
      <point x="306" y="539"/>
      <point x="366" y="481"/>
      <point x="366" y="314" type="curve" smooth="yes"/>
      <point x="366" y="139"/>
      <point x="312" y="84"/>
    </contour>
    <contour>
      <point x="250" y="0" type="move" name="bottom"/>
    </contour>
    <contour>
      <point x="250" y="623" type="move" name="top"/>
    </contour>
  </outline>
</glyph>
<glyph name="R" format="1">
  <advance width="500"/>
  <unicode hex="0052"/>
  <outline>
    <contour>
      <point x="47" y="0" type="line"/>
      <point x="161" y="0" type="line"/>
      <point x="161" y="258" type="line"/>
      <point x="234" y="258" type="line"/>
      <point x="363" y="0" type="line"/>
      <point x="489" y="0" type="line"/>
      <point x="343" y="271" type="line"/>
      <point x="415" y="294"/>
      <point x="462" y="369"/>
      <point x="462" y="437" type="curve" smooth="yes"/>
      <point x="462" y="549"/>
      <point x="399" y="623"/>
      <point x="244" y="623" type="curve" smooth="yes"/>
      <point x="47" y="623" type="line"/>
    </contour>
    <contour>
      <point x="161" y="353" type="line"/>
      <point x="161" y="524" type="line"/>
      <point x="251" y="524" type="line"/>
      <point x="318" y="524"/>
      <point x="347" y="495"/>
      <point x="347" y="437" type="curve" smooth="yes"/>
      <point x="347" y="387"/>
      <point x="318" y="353"/>
      <point x="251" y="353" type="curve" smooth="yes"/>
    </contour>
    <contour>
      <point x="250" y="0" type="move" name="bottom"/>
    </contour>
    <contour>
      <point x="250" y="623" type="move" name="top"/>
    </contour>
  </outline>
</glyph>
<glyph name="S" format="1">
  <advance width="500"/>
  <unicode hex="0053"/>
  <outline>
    <contour>
      <point x="239" y="-18" type="curve" smooth="yes"/>
      <point x="399" y="-18"/>
      <point x="460" y="78"/>
      <point x="460" y="172" type="curve" smooth="yes"/>
      <point x="460" y="251"/>
      <point x="424" y="300"/>
      <point x="297" y="361" type="curve" smooth="yes"/>
      <point x="194" y="411"/>
      <point x="165" y="435"/>
      <point x="165" y="478" type="curve" smooth="yes"/>
      <point x="165" y="514"/>
      <point x="195" y="547"/>
      <point x="252" y="547" type="curve" smooth="yes"/>
      <point x="305" y="547"/>
      <point x="357" y="528"/>
      <point x="389" y="476" type="curve" name="_corner01"/>
      <point x="446" y="555" type="line"/>
      <point x="393" y="611"/>
      <point x="338" y="639"/>
      <point x="253" y="639" type="curve" smooth="yes"/>
      <point x="140" y="639"/>
      <point x="59" y="565"/>
      <point x="59" y="474" type="curve" smooth="yes"/>
      <point x="59" y="393"/>
      <point x="106" y="332"/>
      <point x="224" y="281" type="curve" smooth="yes"/>
      <point x="319" y="239"/>
      <point x="346" y="208"/>
      <point x="346" y="166" type="curve" smooth="yes"/>
      <point x="346" y="106"/>
      <point x="309" y="78"/>
      <point x="248" y="78" type="curve" smooth="yes"/>
      <point x="167" y="78"/>
      <point x="112" y="118"/>
      <point x="77" y="155" type="curve" name="_corner00"/>
      <point x="28" y="69" type="line"/>
      <point x="85" y="13"/>
      <point x="155" y="-18"/>
    </contour>
    <contour>
      <point x="258" y="0" type="move" name="bottom"/>
    </contour>
    <contour>
      <point x="250" y="623" type="move" name="top"/>
    </contour>
  </outline>
</glyph>
<glyph name="T" format="1">
  <advance width="500"/>
  <unicode hex="0054"/>
  <outline>
    <contour>
      <point x="189" y="0" type="line"/>
      <point x="303" y="0" type="line"/>
      <point x="303" y="526" type="line"/>
      <point x="479" y="526" type="line"/>
      <point x="479" y="623" type="line"/>
      <point x="20" y="623" type="line"/>
      <point x="20" y="526" type="line"/>
      <point x="189" y="526" type="line"/>
    </contour>
    <contour>
      <point x="250" y="0" type="move" name="bottom"/>
    </contour>
    <contour>
      <point x="245" y="312" type="move" name="center"/>
    </contour>
    <contour>
      <point x="250" y="623" type="move" name="top"/>
    </contour>
  </outline>
</glyph>
<glyph name="U" format="1">
  <advance width="500"/>
  <unicode hex="0055"/>
  <outline>
    <contour>
      <point x="249" y="-14" type="curve" smooth="yes"/>
      <point x="379" y="-14"/>
      <point x="463" y="61"/>
      <point x="463" y="223" type="curve" smooth="yes"/>
      <point x="463" y="623" type="line"/>
      <point x="353" y="623" type="line"/>
      <point x="353" y="222" type="line" smooth="yes"/>
      <point x="353" y="134"/>
      <point x="329" y="79"/>
      <point x="250" y="79" type="curve" smooth="yes"/>
      <point x="173" y="79"/>
      <point x="149" y="133"/>
      <point x="149" y="219" type="curve" smooth="yes"/>
      <point x="149" y="623" type="line" name="_corner00"/>
      <point x="37" y="623" type="line"/>
      <point x="37" y="220" type="line" smooth="yes"/>
      <point x="37" y="74"/>
      <point x="110" y="-14"/>
    </contour>
    <contour>
      <point x="250" y="0" type="move" name="bottom"/>
    </contour>
    <contour>
      <point x="282" y="10" type="move" name="ogonek"/>
    </contour>
    <contour>
      <point x="250" y="623" type="move" name="top"/>
    </contour>
    <contour>
      <point x="463" y="623" type="move" name="topright"/>
    </contour>
  </outline>
</glyph>
<glyph name="V" format="1">
  <advance width="500"/>
  <unicode hex="0056"/>
  <outline>
    <contour>
      <point x="212" y="0" type="line"/>
      <point x="298" y="0" type="line"/>
      <point x="498" y="623" type="line"/>
      <point x="383" y="623" type="line"/>
      <point x="259" y="181" type="line"/>
      <point x="128" y="623" type="line"/>
      <point x="10" y="623" type="line"/>
    </contour>
    <contour>
      <point x="250" y="0" type="move" name="bottom"/>
    </contour>
    <contour>
      <point x="250" y="623" type="move" name="top"/>
    </contour>
  </outline>
</glyph>
<glyph name="W" format="1">
  <advance width="500"/>
  <unicode hex="0057"/>
  <outline>
    <contour>
      <point x="82" y="0" type="line"/>
      <point x="172" y="0" type="line"/>
      <point x="255" y="379" type="line"/>
      <point x="337" y="0" type="line"/>
      <point x="425" y="0" type="line"/>
      <point x="499" y="623" type="line"/>
      <point x="395" y="623" type="line"/>
      <point x="369" y="215" type="line"/>
      <point x="296" y="572" type="line"/>
      <point x="224" y="572" type="line"/>
      <point x="151" y="212" type="line"/>
      <point x="115" y="623" type="line"/>
      <point x="6" y="623" type="line"/>
    </contour>
    <contour>
      <point x="250" y="0" type="move" name="bottom"/>
    </contour>
    <contour>
      <point x="255" y="623" type="move" name="top"/>
    </contour>
  </outline>
</glyph>
<glyph name="X" format="1">
  <advance width="500"/>
  <unicode hex="0058"/>
  <outline>
    <contour>
      <point x="21" y="0" type="line"/>
      <point x="143" y="0" type="line"/>
      <point x="254" y="214" type="line"/>
      <point x="368" y="0" type="line"/>
      <point x="494" y="0" type="line"/>
      <point x="319" y="319" type="line"/>
      <point x="474" y="623" type="line"/>
      <point x="358" y="623" type="line"/>
      <point x="253" y="419" type="line"/>
      <point x="145" y="623" type="line"/>
      <point x="23" y="623" type="line"/>
      <point x="189" y="318" type="line"/>
    </contour>
    <contour>
      <point x="250" y="0" type="move" name="bottom"/>
    </contour>
    <contour>
      <point x="250" y="623" type="move" name="top"/>
    </contour>
  </outline>
</glyph>
<glyph name="Y" format="1">
  <advance width="500"/>
  <unicode hex="0059"/>
  <outline>
    <contour>
      <point x="201" y="0" type="line"/>
      <point x="319" y="0" type="line"/>
      <point x="319" y="245" type="line"/>
      <point x="497" y="623" type="line"/>
      <point x="376" y="623" type="line"/>
      <point x="262" y="371" type="line"/>
      <point x="134" y="623" type="line"/>
      <point x="9" y="623" type="line"/>
      <point x="201" y="246" type="line"/>
    </contour>
    <contour>
      <point x="262" y="0" type="move" name="bottom"/>
    </contour>
    <contour>
      <point x="250" y="623" type="move" name="top"/>
    </contour>
    <contour>
      <point x="20" y="623" type="move" name="topleft"/>
    </contour>
  </outline>
</glyph>
<glyph name="Z" format="1">
  <advance width="500"/>
  <unicode hex="005A"/>
  <outline>
    <contour>
      <point x="41" y="0" type="line"/>
      <point x="476" y="0" type="line"/>
      <point x="476" y="96" type="line" name="_corner00"/>
      <point x="184" y="96" type="line"/>
      <point x="461" y="555" type="line"/>
      <point x="461" y="623" type="line"/>
      <point x="52" y="623" type="line"/>
      <point x="52" y="526" type="line"/>
      <point x="323" y="526" type="line"/>
      <point x="41" y="68" type="line"/>
    </contour>
    <contour>
      <point x="266" y="0" type="move" name="bottom"/>
    </contour>
    <contour>
      <point x="260" y="623" type="move" name="top"/>
    </contour>
  </outline>
</glyph>
<glyph name="bracketleft" format="1">
  <advance width="500"/>
  <unicode hex="005B"/>
  <outline>
    <contour>
      <point x="118" y="-90" type="line"/>
      <point x="428" y="-90" type="line"/>
      <point x="428" y="0" type="line"/>
      <point x="223" y="0" type="line"/>
      <point x="223" y="576" type="line"/>
      <point x="428" y="576" type="line"/>
      <point x="428" y="669" type="line"/>
      <point x="118" y="669" type="line"/>
    </contour>
  </outline>
</glyph>
<glyph name="backslash" format="1">
  <advance width="500"/>
  <unicode hex="005C"/>
  <outline>
    <contour>
      <point x="363" y="-47" type="line"/>
      <point x="450" y="-5" type="line"/>
      <point x="138" y="671" type="line"/>
      <point x="51" y="625" type="line"/>
    </contour>
  </outline>
</glyph>
<glyph name="asciicircum" format="1">
  <advance width="500"/>
  <unicode hex="005E"/>
  <outline>
    <contour>
      <point x="159" y="332" type="line"/>
      <point x="248" y="505" type="line"/>
      <point x="336" y="332" type="line"/>
      <point x="418" y="371" type="line"/>
      <point x="265" y="625" type="line"/>
      <point x="229" y="625" type="line"/>
      <point x="77" y="371" type="line"/>
    </contour>
  </outline>
</glyph>
<glyph name="underscore" format="1">
  <advance width="500"/>
  <unicode hex="005F"/>
  <outline>
    <contour>
      <point x="29" y="-101" type="line"/>
      <point x="471" y="-101" type="line"/>
      <point x="471" y="-8" type="line"/>
      <point x="29" y="-8" type="line"/>
    </contour>
  </outline>
</glyph>
<glyph name="a" format="1">
  <advance width="500"/>
  <unicode hex="0061"/>
  <outline>
    <contour>
      <point x="189" y="-12" type="curve" smooth="yes"/>
      <point x="248" y="-12"/>
      <point x="300" y="9"/>
      <point x="335" y="42" type="curve"/>
      <point x="335" y="0" type="line"/>
      <point x="442" y="0" type="line"/>
      <point x="442" y="284" type="line" smooth="yes"/>
      <point x="442" y="435"/>
      <point x="350" y="482"/>
      <point x="239" y="482" type="curve" smooth="yes"/>
      <point x="176" y="482"/>
      <point x="105" y="456"/>
      <point x="45" y="401" type="curve"/>
      <point x="102" y="327" type="line"/>
      <point x="141" y="367"/>
      <point x="190" y="391"/>
      <point x="233" y="391" type="curve" smooth="yes"/>
      <point x="310" y="391"/>
      <point x="340" y="350"/>
      <point x="340" y="238" type="curve" smooth="yes"/>
      <point x="340" y="120"/>
      <point x="297" y="73"/>
      <point x="225" y="73" type="curve" smooth="yes"/>
      <point x="181" y="73"/>
      <point x="151" y="88"/>
      <point x="151" y="126" type="curve" smooth="yes"/>
      <point x="151" y="179"/>
      <point x="201" y="203"/>
      <point x="316" y="203" type="curve" smooth="yes"/>
      <point x="328" y="203"/>
      <point x="341" y="203"/>
      <point x="353" y="203" type="curve"/>
      <point x="350" y="278" type="line"/>
      <point x="335" y="278"/>
      <point x="319" y="278"/>
      <point x="304" y="278" type="curve" smooth="yes"/>
      <point x="139" y="278"/>
      <point x="40" y="221"/>
      <point x="40" y="121" type="curve" smooth="yes"/>
      <point x="40" y="41"/>
      <point x="90" y="-12"/>
    </contour>
    <contour>
      <point x="250" y="0" type="move" name="bottom"/>
    </contour>
    <contour>
      <point x="366" y="0" type="move" name="ogonek"/>
    </contour>
    <contour>
      <point x="240" y="467" type="move" name="top"/>
    </contour>
  </outline>
</glyph>
<glyph name="b" format="1">
  <advance width="500"/>
  <unicode hex="0062"/>
  <outline>
    <contour>
      <point x="266" y="-15" type="curve" smooth="yes"/>
      <point x="365" y="-15"/>
      <point x="467" y="71"/>
      <point x="467" y="243" type="curve" smooth="yes"/>
      <point x="467" y="399"/>
      <point x="375" y="477"/>
      <point x="270" y="477" type="curve" smooth="yes"/>
      <point x="231" y="477"/>
      <point x="191" y="459"/>
      <point x="162" y="427" type="curve"/>
      <point x="162" y="675" type="line" name="_corner00"/>
      <point x="50" y="675" type="line"/>
      <point x="50" y="0" type="line"/>
      <point x="128" y="0" type="line"/>
      <point x="143" y="45" type="line"/>
      <point x="174" y="6"/>
      <point x="219" y="-15"/>
    </contour>
    <contour>
      <point x="252" y="78" type="curve" smooth="yes"/>
      <point x="196" y="78"/>
      <point x="161" y="123"/>
      <point x="161" y="239" type="curve" smooth="yes"/>
      <point x="161" y="317"/>
      <point x="177" y="386"/>
      <point x="249" y="386" type="curve" smooth="yes"/>
      <point x="322" y="386"/>
      <point x="354" y="318"/>
      <point x="354" y="228" type="curve" smooth="yes"/>
      <point x="354" y="116" name="_corner00"/>
      <point x="297" y="78"/>
    </contour>
    <contour>
      <point x="270" y="0" type="move" name="bottom"/>
    </contour>
    <contour>
      <point x="270" y="467" type="move" name="top"/>
    </contour>
  </outline>
</glyph>
<glyph name="c" format="1">
  <advance width="500"/>
  <unicode hex="0063"/>
  <outline>
    <contour>
      <point x="274" y="-16" type="curve" smooth="yes"/>
      <point x="341" y="-16"/>
      <point x="406" y="8"/>
      <point x="458" y="67" type="curve"/>
      <point x="393" y="142" type="line"/>
      <point x="356" y="96"/>
      <point x="313" y="80"/>
      <point x="274" y="80" type="curve" smooth="yes"/>
      <point x="202" y="80"/>
      <point x="152" y="137"/>
      <point x="152" y="227" type="curve" smooth="yes"/>
      <point x="152" y="322"/>
      <point x="207" y="384"/>
      <point x="275" y="384" type="curve" smooth="yes"/>
      <point x="336" y="384"/>
      <point x="372" y="360"/>
      <point x="399" y="313" type="curve" name="_corner00"/>
      <point x="462" y="387" type="line"/>
      <point x="423" y="446"/>
      <point x="350" y="477"/>
      <point x="275" y="477" type="curve" smooth="yes"/>
      <point x="134" y="477"/>
      <point x="38" y="368"/>
      <point x="38" y="229" type="curve" smooth="yes"/>
      <point x="38" y="88"/>
      <point x="135" y="-16"/>
    </contour>
    <contour>
      <point x="270" y="0" type="move" name="bottom"/>
    </contour>
    <contour>
      <point x="270" y="467" type="move" name="top"/>
    </contour>
  </outline>
</glyph>
<glyph name="d" format="1">
  <advance width="500"/>
  <unicode hex="0064"/>
  <outline>
    <contour>
      <point x="229" y="-15" type="curve" smooth="yes"/>
      <point x="269" y="-15"/>
      <point x="320" y="6"/>
      <point x="341" y="56" type="curve"/>
      <point x="341" y="37"/>
      <point x="340" y="19"/>
      <point x="350" y="0" type="curve"/>
      <point x="459" y="0" type="line"/>
      <point x="449" y="19"/>
      <point x="448" y="37"/>
      <point x="448" y="56" type="curve"/>
      <point x="450" y="675" type="line" name="_corner00"/>
      <point x="336" y="675" type="line"/>
      <point x="336" y="430" type="line"/>
      <point x="309" y="458"/>
      <point x="264" y="477"/>
      <point x="228" y="477" type="curve" smooth="yes"/>
      <point x="123" y="477"/>
      <point x="30" y="384"/>
      <point x="30" y="226" type="curve" smooth="yes"/>
      <point x="30" y="64"/>
      <point x="120" y="-15"/>
    </contour>
    <contour>
      <point x="245" y="78" type="curve" smooth="yes"/>
      <point x="200" y="78"/>
      <point x="143" y="116"/>
      <point x="143" y="228" type="curve" smooth="yes"/>
      <point x="143" y="316"/>
      <point x="174" y="386"/>
      <point x="248" y="386" type="curve" smooth="yes"/>
      <point x="320" y="386"/>
      <point x="337" y="317"/>
      <point x="337" y="239" type="curve" smooth="yes"/>
      <point x="337" y="123"/>
      <point x="301" y="78" name="_corner00"/>
    </contour>
    <contour>
      <point x="250" y="0" type="move" name="bottom"/>
    </contour>
    <contour>
      <point x="362" y="564" type="move" name="center"/>
    </contour>
    <contour>
      <point x="250" y="467" type="move" name="top"/>
    </contour>
    <contour>
      <point x="472" y="467" type="move" name="topright"/>
    </contour>
  </outline>
</glyph>
<glyph name="e" format="1">
  <advance width="500"/>
  <unicode hex="0065"/>
  <outline>
    <contour>
      <point x="270" y="-16" type="curve" smooth="yes"/>
      <point x="340" y="-16"/>
      <point x="399" y="11"/>
      <point x="447" y="68" type="curve"/>
      <point x="385" y="130" type="line"/>
      <point x="356" y="93"/>
      <point x="307" y="73"/>
      <point x="266" y="73" type="curve" smooth="yes"/>
      <point x="209" y="73"/>
      <point x="158" y="113"/>
      <point x="148" y="202" type="curve"/>
      <point x="454" y="202" type="line"/>
      <point x="455" y="217"/>
      <point x="457" y="233"/>
      <point x="457" y="249" type="curve" smooth="yes"/>
      <point x="457" y="399"/>
      <point x="368" y="477"/>
      <point x="258" y="477" type="curve" smooth="yes"/>
      <point x="131" y="477"/>
      <point x="37" y="382"/>
      <point x="37" y="227" type="curve" smooth="yes"/>
      <point x="37" y="74"/>
      <point x="136" y="-16"/>
    </contour>
    <contour>
      <point x="152" y="284" type="line"/>
      <point x="159" y="350"/>
      <point x="197" y="393"/>
      <point x="252" y="393" type="curve" smooth="yes"/>
      <point x="309" y="393"/>
      <point x="345" y="343"/>
      <point x="345" y="284" type="curve"/>
    </contour>
    <contour>
      <point x="260" y="0" type="move" name="bottom"/>
    </contour>
    <contour>
      <point x="301" y="10" type="move" name="ogonek"/>
    </contour>
    <contour>
      <point x="258" y="467" type="move" name="top"/>
    </contour>
  </outline>
</glyph>
<glyph name="f" format="1">
  <advance width="500"/>
  <unicode hex="0066"/>
  <outline>
    <contour>
      <point x="139" y="0" type="line"/>
      <point x="248" y="0" type="line"/>
      <point x="248" y="378" type="line"/>
      <point x="391" y="378" type="line"/>
      <point x="391" y="467" type="line"/>
      <point x="248" y="467" type="line"/>
      <point x="248" y="486" type="line" smooth="yes"/>
      <point x="248" y="557"/>
      <point x="280" y="594"/>
      <point x="341" y="594" type="curve" smooth="yes"/>
      <point x="376" y="594"/>
      <point x="399" y="584"/>
      <point x="441" y="546" type="curve" name="_corner00"/>
      <point x="487" y="618" type="line"/>
      <point x="446" y="659"/>
      <point x="394" y="683"/>
      <point x="332" y="683" type="curve" smooth="yes"/>
      <point x="227" y="683"/>
      <point x="139" y="614"/>
      <point x="139" y="485" type="curve" smooth="yes"/>
      <point x="139" y="467" type="line"/>
      <point x="38" y="467" type="line"/>
      <point x="38" y="378" type="line"/>
      <point x="139" y="378" type="line"/>
    </contour>
  </outline>
</glyph>
<glyph name="g" format="1">
  <advance width="500"/>
  <unicode hex="0067"/>
  <outline>
    <contour>
      <point x="233" y="-173" type="curve" smooth="yes"/>
      <point x="385" y="-173"/>
      <point x="453" y="-100"/>
      <point x="453" y="-18" type="curve" smooth="yes"/>
      <point x="453" y="50"/>
      <point x="417" y="102"/>
      <point x="302" y="102" type="curve" smooth="yes"/>
      <point x="186" y="102"/>
      <point x="152" y="117"/>
      <point x="152" y="139" type="curve" smooth="yes"/>
      <point x="152" y="154"/>
      <point x="158" y="162"/>
      <point x="176" y="178" type="curve"/>
      <point x="134" y="205" type="line"/>
      <point x="94" y="181"/>
      <point x="63" y="153"/>
      <point x="63" y="108" type="curve" smooth="yes"/>
      <point x="63" y="19"/>
      <point x="174" y="10"/>
      <point x="271" y="10" type="curve" smooth="yes"/>
      <point x="334" y="10"/>
      <point x="350" y="-3"/>
      <point x="350" y="-32" type="curve" smooth="yes"/>
      <point x="350" y="-67"/>
      <point x="313" y="-90"/>
      <point x="248" y="-90" type="curve" smooth="yes"/>
      <point x="184" y="-90"/>
      <point x="142" y="-73"/>
      <point x="142" y="-34" type="curve" smooth="yes"/>
      <point x="142" y="-9"/>
      <point x="152" y="6"/>
      <point x="175" y="24" type="curve"/>
      <point x="128" y="47" type="line"/>
      <point x="77" y="27"/>
      <point x="52" y="-15"/>
      <point x="52" y="-58" type="curve" smooth="yes"/>
      <point x="52" y="-128"/>
      <point x="109" y="-173"/>
    </contour>
    <contour>
      <point x="232" y="151" type="curve" smooth="yes"/>
      <point x="326" y="151"/>
      <point x="403" y="226"/>
      <point x="403" y="318" type="curve" smooth="yes"/>
      <point x="403" y="410"/>
      <point x="326" y="485"/>
      <point x="232" y="485" type="curve" smooth="yes"/>
      <point x="138" y="485"/>
      <point x="61" y="410"/>
      <point x="61" y="318" type="curve" smooth="yes"/>
      <point x="61" y="226"/>
      <point x="138" y="151"/>
    </contour>
    <contour>
      <point x="232" y="242" type="curve" smooth="yes"/>
      <point x="193" y="242"/>
      <point x="161" y="276"/>
      <point x="161" y="318" type="curve" smooth="yes"/>
      <point x="161" y="360"/>
      <point x="193" y="394"/>
      <point x="232" y="394" type="curve" smooth="yes"/>
      <point x="272" y="394"/>
      <point x="303" y="360"/>
      <point x="303" y="318" type="curve" smooth="yes"/>
      <point x="303" y="276"/>
      <point x="272" y="242"/>
    </contour>
    <contour>
      <point x="368" y="385" type="line"/>
      <point x="394" y="401"/>
      <point x="448" y="402"/>
      <point x="485" y="393" type="curve"/>
      <point x="473" y="478" type="line"/>
      <point x="418" y="482"/>
      <point x="363" y="465"/>
      <point x="326" y="441" type="curve"/>
    </contour>
    <contour>
      <point x="240" y="-166" type="move" name="bottom"/>
    </contour>
    <contour>
      <point x="235" y="467" type="move" name="top"/>
    </contour>
  </outline>
</glyph>
<glyph name="h" format="1">
  <advance width="500"/>
  <unicode hex="0068"/>
  <outline>
    <contour>
      <point x="60" y="0" type="line"/>
      <point x="173" y="0" type="line"/>
      <point x="173" y="270" type="line" smooth="yes"/>
      <point x="173" y="338"/>
      <point x="217" y="385"/>
      <point x="273" y="385" type="curve" smooth="yes"/>
      <point x="313" y="385"/>
      <point x="340" y="354"/>
      <point x="340" y="282" type="curve" smooth="yes"/>
      <point x="340" y="0" type="line"/>
      <point x="453" y="0" type="line"/>
      <point x="453" y="283" type="line" smooth="yes"/>
      <point x="453" y="423"/>
      <point x="390" y="477"/>
      <point x="295" y="477" type="curve" smooth="yes"/>
      <point x="251" y="477"/>
      <point x="205" y="454"/>
      <point x="173" y="419" type="curve"/>
      <point x="173" y="675" type="line" name="_corner00"/>
      <point x="60" y="675" type="line"/>
    </contour>
    <contour>
      <point x="250" y="0" type="move" name="bottom"/>
    </contour>
    <contour>
      <point x="138" y="554" type="move" name="center"/>
    </contour>
    <contour>
      <point x="118" y="675" type="move" name="top"/>
    </contour>
  </outline>
</glyph>
<glyph name="k" format="1">
  <advance width="500"/>
  <unicode hex="006B"/>
  <outline>
    <contour>
      <point x="365" y="-4" type="line"/>
      <point x="502" y="1" type="line"/>
      <point x="291" y="280" type="line"/>
      <point x="482" y="464" type="line"/>
      <point x="409" y="464" type="line" smooth="yes"/>
      <point x="395" y="464"/>
      <point x="375" y="467"/>
      <point x="352" y="472" type="curve"/>
      <point x="173" y="295" type="line"/>
      <point x="173" y="675" type="line" name="_corner00"/>
      <point x="60" y="675" type="line"/>
      <point x="60" y="0" type="line"/>
      <point x="173" y="0" type="line"/>
      <point x="173" y="175" type="line"/>
      <point x="211" y="211" type="line"/>
    </contour>
    <contour>
      <point x="250" y="0" type="move" name="bottom"/>
    </contour>
    <contour>
      <point x="110" y="675" type="move" name="top"/>
    </contour>
  </outline>
</glyph>
<glyph name="l" format="1">
  <advance width="500"/>
  <unicode hex="006C"/>
  <outline>
    <contour>
      <point x="67" y="0" type="line"/>
      <point x="435" y="0" type="line"/>
      <point x="435" y="87" type="line"/>
      <point x="308" y="87" type="line"/>
      <point x="308" y="675" type="line"/>
      <point x="73" y="675" type="line"/>
      <point x="73" y="588" type="line"/>
      <point x="195" y="588" type="line"/>
      <point x="195" y="87" type="line"/>
      <point x="67" y="87" type="line"/>
    </contour>
    <contour>
      <point x="250" y="0" type="move" name="bottom"/>
    </contour>
    <contour>
      <point x="250" y="234" type="move" name="center"/>
    </contour>
    <contour>
      <point x="250" y="675" type="move" name="top"/>
    </contour>
    <contour>
      <point x="480" y="467" type="move" name="topright"/>
    </contour>
  </outline>
</glyph>
<glyph name="m" format="1">
  <advance width="500"/>
  <unicode hex="006D"/>
  <outline>
    <contour>
      <point x="32" y="0" type="line"/>
      <point x="133" y="0" type="line"/>
      <point x="133" y="310" type="line" smooth="yes"/>
      <point x="133" y="380"/>
      <point x="149" y="399"/>
      <point x="174" y="399" type="curve" smooth="yes"/>
      <point x="188" y="399"/>
      <point x="203" y="387"/>
      <point x="203" y="321" type="curve" smooth="yes"/>
      <point x="203" y="0" type="line"/>
      <point x="306" y="0" type="line"/>
      <point x="306" y="307" type="line" smooth="yes"/>
      <point x="306" y="369"/>
      <point x="319" y="399"/>
      <point x="344" y="399" type="curve" smooth="yes"/>
      <point x="366" y="399"/>
      <point x="374" y="378"/>
      <point x="374" y="326" type="curve" smooth="yes"/>
      <point x="374" y="0" type="line"/>
      <point x="478" y="0" type="line"/>
      <point x="478" y="345" type="line" smooth="yes"/>
      <point x="478" y="438"/>
      <point x="456" y="487"/>
      <point x="385" y="487" type="curve" smooth="yes"/>
      <point x="340" y="487"/>
      <point x="313" y="468"/>
      <point x="290" y="431" type="curve"/>
      <point x="271" y="473"/>
      <point x="239" y="487"/>
      <point x="210" y="487" type="curve" smooth="yes"/>
      <point x="180" y="487"/>
      <point x="151" y="473"/>
      <point x="128" y="443" type="curve"/>
      <point x="128" y="472" type="line"/>
      <point x="32" y="472" type="line"/>
    </contour>
    <contour>
      <point x="250" y="0" type="move" name="bottom"/>
    </contour>
    <contour>
      <point x="250" y="467" type="move" name="top"/>
    </contour>
  </outline>
</glyph>
<glyph name="n" format="1">
  <advance width="500"/>
  <unicode hex="006E"/>
  <outline>
    <contour>
      <point x="60" y="0" type="line"/>
      <point x="173" y="0" type="line"/>
      <point x="173" y="300" type="line"/>
      <point x="173" y="358"/>
      <point x="217" y="385"/>
      <point x="263" y="385" type="curve" smooth="yes"/>
      <point x="313" y="385"/>
      <point x="340" y="354"/>
      <point x="340" y="282" type="curve"/>
      <point x="340" y="0" type="line"/>
      <point x="452" y="0" type="line"/>
      <point x="452" y="283" type="line"/>
      <point x="452" y="423"/>
      <point x="389" y="477"/>
      <point x="306" y="477" type="curve" smooth="yes"/>
      <point x="251" y="477"/>
      <point x="205" y="454"/>
      <point x="173" y="419" type="curve"/>
      <point x="173" y="467" type="line"/>
      <point x="60" y="467" type="line"/>
    </contour>
    <contour>
      <point x="260" y="0" type="move" name="bottom"/>
    </contour>
    <contour>
      <point x="260" y="467" type="move" name="top"/>
    </contour>
  </outline>
</glyph>
<glyph name="o" format="1">
  <advance width="500"/>
  <unicode hex="006F"/>
  <outline>
    <contour>
      <point x="251" y="-16" type="curve"/>
      <point x="376" y="-16"/>
      <point x="473" y="86"/>
      <point x="473" y="233" type="curve" smooth="yes"/>
      <point x="473" y="371"/>
      <point x="374" y="477"/>
      <point x="251" y="477" type="curve"/>
      <point x="128" y="477"/>
      <point x="29" y="371"/>
      <point x="29" y="233" type="curve" smooth="yes"/>
      <point x="29" y="86"/>
      <point x="126" y="-16"/>
    </contour>
    <contour>
      <point x="251" y="74" type="curve"/>
      <point x="184" y="74"/>
      <point x="144" y="137"/>
      <point x="144" y="233" type="curve" smooth="yes"/>
      <point x="144" y="329"/>
      <point x="187" y="387"/>
      <point x="251" y="387" type="curve"/>
      <point x="318" y="387"/>
      <point x="360" y="329"/>
      <point x="360" y="233" type="curve" smooth="yes"/>
      <point x="360" y="137"/>
      <point x="318" y="74"/>
    </contour>
    <contour>
      <point x="250" y="0" type="move" name="bottom"/>
    </contour>
    <contour>
      <point x="250" y="234" type="move" name="center"/>
    </contour>
    <contour>
      <point x="305" y="25" type="move" name="ogonek"/>
    </contour>
    <contour>
      <point x="251" y="467" type="move" name="top"/>
    </contour>
    <contour>
      <point x="362" y="447" type="move" name="topright"/>
    </contour>
  </outline>
</glyph>
<glyph name="p" format="1">
  <advance width="500"/>
  <unicode hex="0070"/>
  <outline>
    <contour>
      <point x="55" y="-167" type="line"/>
      <point x="167" y="-167" type="line"/>
      <point x="167" y="51" type="line"/>
      <point x="194" y="3"/>
      <point x="237" y="-15"/>
      <point x="283" y="-15" type="curve" smooth="yes"/>
      <point x="380" y="-15"/>
      <point x="472" y="65"/>
      <point x="472" y="231" type="curve" smooth="yes"/>
      <point x="472" y="393"/>
      <point x="383" y="477"/>
      <point x="282" y="477" type="curve" smooth="yes"/>
      <point x="233" y="477"/>
      <point x="192" y="458"/>
      <point x="162" y="409" type="curve"/>
      <point x="162" y="467" type="line"/>
      <point x="54" y="467" type="line"/>
    </contour>
    <contour>
      <point x="258" y="77" type="curve" smooth="yes"/>
      <point x="204" y="77"/>
      <point x="167" y="122"/>
      <point x="167" y="227" type="curve" smooth="yes"/>
      <point x="167" y="316"/>
      <point x="193" y="385"/>
      <point x="265" y="385" type="curve" smooth="yes"/>
      <point x="335" y="385"/>
      <point x="360" y="319"/>
      <point x="360" y="237" type="curve" smooth="yes"/>
      <point x="360" y="125"/>
      <point x="313" y="77"/>
    </contour>
    <contour>
      <point x="270" y="0" type="move" name="bottom"/>
    </contour>
    <contour>
      <point x="270" y="467" type="move" name="top"/>
    </contour>
  </outline>
</glyph>
<glyph name="q" format="1">
  <advance width="500"/>
  <unicode hex="0071"/>
  <outline>
    <contour>
      <point x="335" y="-167" type="line"/>
      <point x="447" y="-167" type="line"/>
      <point x="447" y="467" type="line"/>
      <point x="339" y="467" type="line"/>
      <point x="339" y="429" type="line"/>
      <point x="315" y="458"/>
      <point x="265" y="477"/>
      <point x="227" y="477" type="curve" smooth="yes"/>
      <point x="114" y="477"/>
      <point x="29" y="381"/>
      <point x="29" y="234" type="curve" smooth="yes"/>
      <point x="29" y="87"/>
      <point x="117" y="-16"/>
      <point x="226" y="-16" type="curve" smooth="yes"/>
      <point x="264" y="-16"/>
      <point x="309" y="2"/>
      <point x="335" y="32" type="curve"/>
    </contour>
    <contour>
      <point x="242" y="79" type="curve" smooth="yes"/>
      <point x="187" y="79"/>
      <point x="142" y="143"/>
      <point x="142" y="238" type="curve" smooth="yes"/>
      <point x="142" y="332"/>
      <point x="186" y="386"/>
      <point x="238" y="386" type="curve" smooth="yes"/>
      <point x="296" y="386"/>
      <point x="333" y="342"/>
      <point x="333" y="235" type="curve" smooth="yes"/>
      <point x="333" y="131"/>
      <point x="299" y="79"/>
    </contour>
  </outline>
</glyph>
<glyph name="r" format="1">
  <advance width="500"/>
  <unicode hex="0072"/>
  <outline>
    <contour>
      <point x="89" y="0" type="line"/>
      <point x="202" y="0" type="line"/>
      <point x="202" y="244" type="line" smooth="yes"/>
      <point x="202" y="329"/>
      <point x="257" y="382"/>
      <point x="328" y="382" type="curve" smooth="yes"/>
      <point x="365" y="382"/>
      <point x="393" y="367"/>
      <point x="419" y="325" type="curve" name="_corner00"/>
      <point x="469" y="426" type="line"/>
      <point x="432" y="461"/>
      <point x="383" y="477"/>
      <point x="339" y="477" type="curve" smooth="yes"/>
      <point x="259" y="477"/>
      <point x="196" y="424"/>
      <point x="188" y="345" type="curve"/>
      <point x="204" y="341" type="line"/>
      <point x="204" y="467" type="line"/>
      <point x="89" y="467" type="line"/>
    </contour>
    <contour>
      <point x="300" y="0" type="move" name="bottom"/>
    </contour>
    <contour>
      <point x="280" y="467" type="move" name="top"/>
    </contour>
  </outline>
</glyph>
<glyph name="s" format="1">
  <advance width="500"/>
  <unicode hex="0073"/>
  <outline>
    <contour>
      <point x="265" y="-16" type="curve" smooth="yes"/>
      <point x="371" y="-16"/>
      <point x="449" y="57"/>
      <point x="449" y="138" type="curve" smooth="yes"/>
      <point x="449" y="214"/>
      <point x="406" y="245"/>
      <point x="296" y="279" type="curve" smooth="yes"/>
      <point x="221" y="302"/>
      <point x="188" y="316"/>
      <point x="188" y="349" type="curve" smooth="yes"/>
      <point x="188" y="373"/>
      <point x="219" y="387"/>
      <point x="258" y="387" type="curve" smooth="yes"/>
      <point x="308" y="387"/>
      <point x="354" y="365"/>
      <point x="382" y="325" type="curve" name="_corner00"/>
      <point x="439" y="405" type="line"/>
      <point x="388" y="453"/>
      <point x="329" y="477"/>
      <point x="256" y="477" type="curve" smooth="yes"/>
      <point x="144" y="477"/>
      <point x="76" y="419"/>
      <point x="76" y="338" type="curve" smooth="yes"/>
      <point x="76" y="257"/>
      <point x="153" y="221"/>
      <point x="246" y="197" type="curve" smooth="yes"/>
      <point x="319" y="176"/>
      <point x="346" y="159"/>
      <point x="346" y="127" type="curve" smooth="yes"/>
      <point x="346" y="89"/>
      <point x="314" y="74"/>
      <point x="266" y="74" type="curve" smooth="yes"/>
      <point x="188" y="74"/>
      <point x="139" y="97"/>
      <point x="94" y="146" type="curve" name="_corner01"/>
      <point x="47" y="63" type="line"/>
      <point x="105" y="8"/>
      <point x="172" y="-16"/>
    </contour>
  </outline>
</glyph>
<glyph name="t" format="1">
  <advance width="500"/>
  <unicode hex="0074"/>
  <outline>
    <contour>
      <point x="294" y="-14" type="curve" smooth="yes"/>
      <point x="358" y="-14"/>
      <point x="409" y="8"/>
      <point x="455" y="42" type="curve"/>
      <point x="431" y="128" type="line"/>
      <point x="390" y="92"/>
      <point x="359" y="77"/>
      <point x="318" y="77" type="curve" smooth="yes"/>
      <point x="270" y="77"/>
      <point x="258" y="112"/>
      <point x="258" y="243" type="curve" smooth="yes"/>
      <point x="258" y="396" type="line"/>
      <point x="252" y="396" type="line"/>
      <point x="262" y="595" type="line" name="_corner00"/>
      <point x="147" y="576" type="line"/>
      <point x="147" y="236" type="line" smooth="yes"/>
      <point x="147" y="38"/>
      <point x="194" y="-14"/>
    </contour>
    <contour>
      <point x="44" y="376" type="line"/>
      <point x="402" y="376" type="line"/>
      <point x="404" y="467" type="line"/>
      <point x="46" y="467" type="line"/>
    </contour>
    <contour>
      <point x="290" y="0" type="move" name="bottom"/>
    </contour>
    <contour>
      <point x="210" y="293" type="move" name="center"/>
    </contour>
    <contour>
      <point x="240" y="587" type="move" name="top"/>
    </contour>
    <contour>
      <point x="300" y="467" type="move" name="topright"/>
    </contour>
  </outline>
</glyph>
<glyph name="u" format="1">
  <advance width="500"/>
  <unicode hex="0075"/>
  <outline>
    <contour>
      <point x="206" y="-20" type="curve" smooth="yes"/>
      <point x="250" y="-20"/>
      <point x="305" y="8"/>
      <point x="332" y="54" type="curve"/>
      <point x="332" y="36"/>
      <point x="332" y="18"/>
      <point x="342" y="0" type="curve"/>
      <point x="451" y="0" type="line"/>
      <point x="441" y="22"/>
      <point x="441" y="44"/>
      <point x="441" y="76" type="curve"/>
      <point x="441" y="467" type="line"/>
      <point x="328" y="467" type="line"/>
      <point x="328" y="187" type="line" smooth="yes"/>
      <point x="328" y="119"/>
      <point x="284" y="72"/>
      <point x="228" y="72" type="curve" smooth="yes"/>
      <point x="188" y="72"/>
      <point x="161" y="103"/>
      <point x="161" y="175" type="curve" smooth="yes"/>
      <point x="161" y="467" type="line"/>
      <point x="51" y="467" type="line"/>
      <point x="51" y="175" type="line" smooth="yes"/>
      <point x="51" y="35"/>
      <point x="109" y="-20"/>
    </contour>
    <contour>
      <point x="220" y="0" type="move" name="bottom"/>
    </contour>
    <contour>
      <point x="376" y="0" type="move" name="ogonek"/>
    </contour>
    <contour>
      <point x="250" y="467" type="move" name="top"/>
    </contour>
    <contour>
      <point x="441" y="467" type="move" name="topright"/>
    </contour>
  </outline>
</glyph>
<glyph name="v" format="1">
  <advance width="500"/>
  <unicode hex="0076"/>
  <outline>
    <contour>
      <point x="202" y="0" type="line"/>
      <point x="294" y="0" type="line"/>
      <point x="405" y="281" type="line"/>
      <point x="429" y="343"/>
      <point x="454" y="405"/>
      <point x="458" y="467" type="curve"/>
      <point x="359" y="467" type="line"/>
      <point x="359" y="409"/>
      <point x="340" y="352"/>
      <point x="320" y="294" type="curve"/>
      <point x="240" y="93" type="line"/>
      <point x="263" y="94" type="line"/>
      <point x="136" y="467" type="line"/>
      <point x="25" y="467" type="line"/>
    </contour>
    <contour>
      <point x="250" y="0" type="move" name="bottom"/>
    </contour>
    <contour>
      <point x="248" y="467" type="move" name="top"/>
    </contour>
  </outline>
</glyph>
<glyph name="w" format="1">
  <advance width="500"/>
  <unicode hex="0077"/>
  <outline>
    <contour>
      <point x="96" y="0" type="line"/>
      <point x="198" y="0" type="line"/>
      <point x="256" y="260" type="line"/>
      <point x="317" y="0" type="line"/>
      <point x="416" y="0" type="line"/>
      <point x="445" y="141"/>
      <point x="471" y="323"/>
      <point x="488" y="467" type="curve"/>
      <point x="382" y="467" type="line"/>
      <point x="382" y="436" type="line"/>
      <point x="382" y="388"/>
      <point x="379" y="274"/>
      <point x="358" y="138" type="curve"/>
      <point x="292" y="413" type="line"/>
      <point x="223" y="413" type="line"/>
      <point x="165" y="137" type="line"/>
      <point x="118" y="467" type="line"/>
      <point x="8" y="467" type="line"/>
    </contour>
    <contour>
      <point x="250" y="0" type="move" name="bottom"/>
    </contour>
    <contour>
      <point x="250" y="467" type="move" name="top"/>
    </contour>
  </outline>
</glyph>
<glyph name="x" format="1">
  <advance width="500"/>
  <unicode hex="0078"/>
  <outline>
    <contour>
      <point x="25" y="0" type="line"/>
      <point x="153" y="0" type="line"/>
      <point x="249" y="158" type="line"/>
      <point x="351" y="0" type="line"/>
      <point x="479" y="0" type="line"/>
      <point x="311" y="240" type="line"/>
      <point x="460" y="467" type="line"/>
      <point x="339" y="467" type="line"/>
      <point x="248" y="316" type="line"/>
      <point x="153" y="467" type="line"/>
      <point x="27" y="467" type="line"/>
      <point x="186" y="237" type="line"/>
    </contour>
    <contour>
      <point x="250" y="0" type="move" name="bottom"/>
    </contour>
    <contour>
      <point x="250" y="467" type="move" name="top"/>
    </contour>
  </outline>
</glyph>
<glyph name="y" format="1">
  <advance width="500"/>
  <unicode hex="0079"/>
  <outline>
    <contour>
      <point x="125" y="-177" type="curve" smooth="yes"/>
      <point x="199" y="-177"/>
      <point x="254" y="-140"/>
      <point x="293" y="-33" type="curve" smooth="yes"/>
      <point x="409" y="287" type="line" smooth="yes"/>
      <point x="431" y="347"/>
      <point x="452" y="407"/>
      <point x="454" y="467" type="curve"/>
      <point x="347" y="467" type="line"/>
      <point x="350" y="413"/>
      <point x="335" y="360"/>
      <point x="318" y="306" type="curve" smooth="yes"/>
      <point x="215" y="21" type="line" smooth="yes"/>
      <point x="191" y="-47"/>
      <point x="159" y="-91"/>
      <point x="122" y="-91" type="curve" smooth="yes"/>
      <point x="92" y="-91"/>
      <point x="67" y="-65"/>
      <point x="47" y="-50" type="curve" name="_corner00"/>
      <point x="10" y="-131" type="line"/>
      <point x="48" y="-161"/>
      <point x="79" y="-177"/>
    </contour>
    <contour>
      <point x="212" y="-9" type="line"/>
      <point x="268" y="110" type="line"/>
      <point x="140" y="467" type="line"/>
      <point x="31" y="467" type="line"/>
    </contour>
    <contour>
      <point x="397" y="0" type="move" name="bottom"/>
    </contour>
    <contour>
      <point x="260" y="467" type="move" name="top"/>
    </contour>
  </outline>
</glyph>
<glyph name="z" format="1">
  <advance width="500"/>
  <unicode hex="007A"/>
  <outline>
    <contour>
      <point x="43" y="0" type="line"/>
      <point x="457" y="0" type="line"/>
      <point x="457" y="94" type="line" name="_corner00"/>
      <point x="196" y="94" type="line"/>
      <point x="435" y="397" type="line"/>
      <point x="435" y="467" type="line"/>
      <point x="62" y="467" type="line"/>
      <point x="62" y="372" type="line"/>
      <point x="285" y="372" type="line"/>
      <point x="43" y="70" type="line"/>
    </contour>
    <contour>
      <point x="250" y="0" type="move" name="bottom"/>
    </contour>
    <contour>
      <point x="255" y="467" type="move" name="top"/>
    </contour>
  </outline>
</glyph>
<glyph name="braceleft" format="1">
  <advance width="500"/>
  <unicode hex="007B"/>
  <outline>
    <contour>
      <point x="350" y="-78" type="curve"/>
      <point x="406" y="-78" type="line"/>
      <point x="406" y="10" type="line"/>
      <point x="336" y="10" type="line"/>
      <point x="271" y="10"/>
      <point x="244" y="39"/>
      <point x="244" y="107" type="curve"/>
      <point x="246" y="177" type="line"/>
      <point x="246" y="242"/>
      <point x="217" y="294"/>
      <point x="177" y="320" type="curve"/>
      <point x="221" y="348"/>
      <point x="248" y="396"/>
      <point x="248" y="455" type="curve"/>
      <point x="246" y="548" type="line"/>
      <point x="246" y="601"/>
      <point x="266" y="628"/>
      <point x="309" y="628" type="curve"/>
      <point x="407" y="628" type="line"/>
      <point x="407" y="718" type="line"/>
      <point x="326" y="718" type="line"/>
      <point x="200" y="718"/>
      <point x="135" y="656"/>
      <point x="135" y="538" type="curve"/>
      <point x="137" y="444" type="line"/>
      <point x="137" y="388"/>
      <point x="117" y="364"/>
      <point x="76" y="364" type="curve"/>
      <point x="35" y="364" type="line"/>
      <point x="35" y="275" type="line"/>
      <point x="77" y="275" type="line"/>
      <point x="114" y="275"/>
      <point x="135" y="257"/>
      <point x="135" y="191" type="curve"/>
      <point x="132" y="107" type="line"/>
      <point x="132" y="-38"/>
      <point x="210" y="-78"/>
    </contour>
  </outline>
</glyph>
<glyph name="bar" format="1">
  <advance width="500"/>
  <unicode hex="007C"/>
  <outline>
    <contour>
      <point x="197" y="-151" type="line"/>
      <point x="304" y="-151" type="line"/>
      <point x="304" y="652" type="line"/>
      <point x="197" y="652" type="line"/>
    </contour>
  </outline>
</glyph>
<glyph name="asciitilde" format="1">
  <advance width="500"/>
  <unicode hex="007E"/>
  <outline>
    <contour>
      <point x="341" y="277" type="curve" smooth="yes"/>
      <point x="389" y="277"/>
      <point x="430" y="308"/>
      <point x="459" y="357" type="curve"/>
      <point x="412" y="419" type="line"/>
      <point x="387" y="384"/>
      <point x="367" y="366"/>
      <point x="337" y="366" type="curve" smooth="yes"/>
      <point x="291" y="366"/>
      <point x="255" y="426"/>
      <point x="181" y="426" type="curve" smooth="yes"/>
      <point x="118" y="426"/>
      <point x="79" y="396"/>
      <point x="54" y="335" type="curve"/>
      <point x="108" y="282" type="line"/>
      <point x="121" y="325"/>
      <point x="148" y="339"/>
      <point x="185" y="339" type="curve" smooth="yes"/>
      <point x="241" y="339"/>
      <point x="267" y="277"/>
    </contour>
  </outline>
</glyph>
<glyph name="cent" format="1">
  <advance width="500"/>
  <unicode hex="00A2"/>
  <outline>
    <contour>
      <point x="266" y="-73" type="line"/>
      <point x="358" y="623" type="line"/>
      <point x="289" y="623" type="line"/>
      <point x="194" y="-73" type="line"/>
    </contour>
    <component base="c" yOffset="43"/>
  </outline>
</glyph>
<glyph name="sterling" format="1">
  <advance width="500"/>
  <unicode hex="00A3"/>
  <outline>
    <contour>
      <point x="68" y="-17" type="line"/>
      <point x="124" y="12"/>
      <point x="154" y="28"/>
      <point x="196" y="28" type="curve" smooth="yes"/>
      <point x="248" y="28"/>
      <point x="301" y="-14"/>
      <point x="355" y="-14" type="curve" smooth="yes"/>
      <point x="403" y="-14"/>
      <point x="437" y="4"/>
      <point x="480" y="39" type="curve"/>
      <point x="438" y="125" type="line"/>
      <point x="404" y="97"/>
      <point x="384" y="84"/>
      <point x="363" y="84" type="curve" smooth="yes"/>
      <point x="311" y="84"/>
      <point x="266" y="136"/>
      <point x="211" y="115" type="curve"/>
      <point x="235" y="143"/>
      <point x="240" y="191"/>
      <point x="240" y="227" type="curve" smooth="yes"/>
      <point x="240" y="248"/>
      <point x="238" y="281"/>
      <point x="233" y="308" type="curve"/>
      <point x="352" y="308" type="line"/>
      <point x="352" y="397" type="line"/>
      <point x="212" y="397" type="line"/>
      <point x="209" y="417"/>
      <point x="208" y="429"/>
      <point x="208" y="440" type="curve" smooth="yes"/>
      <point x="208" y="506"/>
      <point x="245" y="539"/>
      <point x="285" y="539" type="curve" smooth="yes"/>
      <point x="342" y="539"/>
      <point x="350" y="502"/>
      <point x="366" y="477" type="curve"/>
      <point x="433" y="560" type="line"/>
      <point x="390" y="606"/>
      <point x="344" y="629"/>
      <point x="285" y="629" type="curve" smooth="yes"/>
      <point x="181" y="629"/>
      <point x="100" y="550"/>
      <point x="100" y="439" type="curve" smooth="yes"/>
      <point x="100" y="426"/>
      <point x="101" y="413"/>
      <point x="104" y="397" type="curve"/>
      <point x="59" y="397" type="line"/>
      <point x="59" y="308" type="line"/>
      <point x="124" y="308" type="line"/>
      <point x="131" y="280"/>
      <point x="133" y="245"/>
      <point x="133" y="226" type="curve" smooth="yes"/>
      <point x="133" y="137"/>
      <point x="107" y="103"/>
      <point x="28" y="72" type="curve"/>
    </contour>
  </outline>
</glyph>
<glyph name="currency" format="1">
  <advance width="500"/>
  <unicode hex="00A4"/>
  <outline>
    <contour>
      <point x="117" y="151" type="line"/>
      <point x="170" y="205" type="line"/>
      <point x="195" y="191"/>
      <point x="221" y="185"/>
      <point x="251" y="185" type="curve" smooth="yes"/>
      <point x="279" y="185"/>
      <point x="305" y="190"/>
      <point x="330" y="204" type="curve"/>
      <point x="383" y="151" type="line"/>
      <point x="448" y="210" type="line"/>
      <point x="393" y="264" type="line"/>
      <point x="409" y="290"/>
      <point x="416" y="317"/>
      <point x="416" y="346" type="curve" smooth="yes"/>
      <point x="416" y="374"/>
      <point x="410" y="402"/>
      <point x="393" y="428" type="curve"/>
      <point x="448" y="482" type="line"/>
      <point x="383" y="541" type="line"/>
      <point x="329" y="488" type="line"/>
      <point x="305" y="500"/>
      <point x="278" y="507"/>
      <point x="251" y="507" type="curve" smooth="yes"/>
      <point x="224" y="507"/>
      <point x="195" y="499"/>
      <point x="171" y="487" type="curve"/>
      <point x="117" y="541" type="line"/>
      <point x="52" y="482" type="line"/>
      <point x="107" y="427" type="line"/>
      <point x="91" y="400"/>
      <point x="85" y="374"/>
      <point x="85" y="346" type="curve" smooth="yes"/>
      <point x="85" y="319"/>
      <point x="93" y="291"/>
      <point x="107" y="266" type="curve"/>
      <point x="52" y="210" type="line"/>
    </contour>
    <contour>
      <point x="250" y="264" type="curve" smooth="yes"/>
      <point x="198" y="264"/>
      <point x="176" y="300"/>
      <point x="176" y="345" type="curve" smooth="yes"/>
      <point x="176" y="390"/>
      <point x="198" y="427"/>
      <point x="250" y="427" type="curve" smooth="yes"/>
      <point x="302" y="427"/>
      <point x="324" y="390"/>
      <point x="324" y="345" type="curve" smooth="yes"/>
      <point x="324" y="300"/>
      <point x="302" y="264"/>
    </contour>
  </outline>
</glyph>
<glyph name="yen" format="1">
  <advance width="500"/>
  <unicode hex="00A5"/>
  <outline>
    <contour>
      <point x="219" y="230" type="line"/>
      <point x="216" y="289" type="line"/>
      <point x="74" y="289" type="line"/>
      <point x="74" y="230" type="line"/>
    </contour>
    <contour>
      <point x="296" y="289" type="line"/>
      <point x="296" y="230" type="line"/>
      <point x="435" y="230" type="line"/>
      <point x="435" y="289" type="line"/>
    </contour>
    <contour>
      <point x="219" y="120" type="line"/>
      <point x="219" y="178" type="line"/>
      <point x="74" y="178" type="line"/>
      <point x="74" y="120" type="line"/>
    </contour>
    <contour>
      <point x="296" y="178" type="line"/>
      <point x="296" y="120" type="line"/>
      <point x="435" y="120" type="line"/>
      <point x="435" y="178" type="line"/>
    </contour>
    <contour>
      <point x="312" y="0" type="line"/>
      <point x="312" y="289" type="line"/>
      <point x="483" y="623" type="line"/>
      <point x="366" y="623" type="line"/>
      <point x="258" y="387" type="line"/>
      <point x="141" y="623" type="line"/>
      <point x="17" y="623" type="line"/>
      <point x="203" y="284" type="line"/>
      <point x="203" y="0" type="line"/>
    </contour>
  </outline>
</glyph>
<glyph name="section" format="1">
  <advance width="500"/>
  <unicode hex="00A7"/>
  <outline>
    <contour>
      <point x="238" y="-57" type="curve" smooth="yes"/>
      <point x="344" y="-57"/>
      <point x="418" y="14"/>
      <point x="418" y="106" type="curve" smooth="yes"/>
      <point x="418" y="145"/>
      <point x="398" y="181"/>
      <point x="363" y="208" type="curve"/>
      <point x="399" y="225"/>
      <point x="427" y="266"/>
      <point x="427" y="307" type="curve" smooth="yes"/>
      <point x="427" y="379"/>
      <point x="361" y="425"/>
      <point x="306" y="444" type="curve" smooth="yes"/>
      <point x="229" y="471"/>
      <point x="196" y="491"/>
      <point x="196" y="529" type="curve" smooth="yes"/>
      <point x="196" y="559"/>
      <point x="221" y="586"/>
      <point x="255" y="586" type="curve" smooth="yes"/>
      <point x="292" y="586"/>
      <point x="322" y="557"/>
      <point x="328" y="525" type="curve"/>
      <point x="331" y="505"/>
      <point x="332" y="501"/>
      <point x="344" y="498" type="curve"/>
      <point x="427" y="570" type="line"/>
      <point x="390" y="634"/>
      <point x="330" y="677"/>
      <point x="256" y="677" type="curve" smooth="yes"/>
      <point x="155" y="677"/>
      <point x="83" y="604"/>
      <point x="83" y="524" type="curve" smooth="yes"/>
      <point x="83" y="486"/>
      <point x="108" y="443"/>
      <point x="144" y="422" type="curve"/>
      <point x="100" y="404"/>
      <point x="69" y="355"/>
      <point x="69" y="317" type="curve" smooth="yes"/>
      <point x="69" y="254"/>
      <point x="109" y="207"/>
      <point x="215" y="174" type="curve" smooth="yes"/>
      <point x="287" y="152"/>
      <point x="307" y="132"/>
      <point x="307" y="99" type="curve" smooth="yes"/>
      <point x="307" y="69"/>
      <point x="282" y="41"/>
      <point x="235" y="41" type="curve" smooth="yes"/>
      <point x="191" y="41"/>
      <point x="146" y="79"/>
      <point x="138" y="107" type="curve"/>
      <point x="134" y="119"/>
      <point x="132" y="123"/>
      <point x="122" y="123" type="curve"/>
      <point x="53" y="42" type="line"/>
      <point x="100" y="-23"/>
      <point x="165" y="-57"/>
    </contour>
    <contour>
      <point x="298" y="249" type="curve"/>
      <point x="275" y="257"/>
      <point x="268" y="258"/>
      <point x="261" y="260" type="curve" smooth="yes"/>
      <point x="208" y="277"/>
      <point x="182" y="304"/>
      <point x="182" y="335" type="curve" smooth="yes"/>
      <point x="182" y="352"/>
      <point x="189" y="374"/>
      <point x="201" y="380" type="curve"/>
      <point x="233" y="369" type="line"/>
      <point x="288" y="350"/>
      <point x="312" y="323"/>
      <point x="312" y="292" type="curve" smooth="yes"/>
      <point x="312" y="275"/>
      <point x="307" y="257"/>
    </contour>
  </outline>
</glyph>
<glyph name="dieresis" format="1">
  <advance width="500"/>
  <unicode hex="00A8"/>
  <outline>
    <contour>
      <point x="159" y="548" type="curve" smooth="yes"/>
      <point x="197" y="548"/>
      <point x="229" y="577"/>
      <point x="229" y="612" type="curve" smooth="yes"/>
      <point x="229" y="651"/>
      <point x="194" y="677"/>
      <point x="159" y="677" type="curve" smooth="yes"/>
      <point x="121" y="677"/>
      <point x="90" y="647"/>
      <point x="90" y="612" type="curve" smooth="yes"/>
      <point x="90" y="577"/>
      <point x="121" y="548"/>
    </contour>
    <contour>
      <point x="343" y="548" type="curve" smooth="yes"/>
      <point x="381" y="548"/>
      <point x="412" y="577"/>
      <point x="412" y="612" type="curve" smooth="yes"/>
      <point x="412" y="651"/>
      <point x="377" y="677"/>
      <point x="343" y="677" type="curve" smooth="yes"/>
      <point x="305" y="677"/>
      <point x="274" y="648"/>
      <point x="274" y="612" type="curve" smooth="yes"/>
      <point x="274" y="576"/>
      <point x="305" y="548"/>
    </contour>
  </outline>
</glyph>
<glyph name="copyright" format="1">
  <advance width="500"/>
  <unicode hex="00A9"/>
  <outline>
    <contour>
      <point x="253" y="117" type="curve" smooth="yes"/>
      <point x="310" y="117"/>
      <point x="360" y="149"/>
      <point x="388" y="199" type="curve"/>
      <point x="318" y="244" type="line"/>
      <point x="305" y="211"/>
      <point x="287" y="194"/>
      <point x="257" y="194" type="curve" smooth="yes"/>
      <point x="216" y="194"/>
      <point x="197" y="230"/>
      <point x="197" y="281" type="curve" smooth="yes"/>
      <point x="197" y="336"/>
      <point x="227" y="354"/>
      <point x="254" y="354" type="curve" smooth="yes"/>
      <point x="278" y="354"/>
      <point x="297" y="340"/>
      <point x="304" y="319" type="curve" smooth="yes"/>
      <point x="308" y="307"/>
      <point x="304" y="294"/>
      <point x="314" y="291" type="curve"/>
      <point x="392" y="319" type="line"/>
      <point x="377" y="382"/>
      <point x="329" y="429"/>
      <point x="246" y="429" type="curve" smooth="yes"/>
      <point x="171" y="429"/>
      <point x="107" y="363"/>
      <point x="107" y="276" type="curve" smooth="yes"/>
      <point x="107" y="191"/>
      <point x="164" y="117"/>
    </contour>
    <contour>
      <point x="247" y="18" type="curve" smooth="yes"/>
      <point x="316" y="18"/>
      <point x="377" y="45"/>
      <point x="424" y="94" type="curve" smooth="yes"/>
      <point x="473" y="145"/>
      <point x="497" y="204"/>
      <point x="497" y="273" type="curve" smooth="yes"/>
      <point x="497" y="413"/>
      <point x="384" y="528"/>
      <point x="251" y="528" type="curve" smooth="yes"/>
      <point x="116" y="528"/>
      <point x="5" y="413"/>
      <point x="5" y="273" type="curve" smooth="yes"/>
      <point x="5" y="134"/>
      <point x="112" y="18"/>
    </contour>
    <contour>
      <point x="252" y="76" type="curve" smooth="yes"/>
      <point x="154" y="76"/>
      <point x="76" y="164"/>
      <point x="76" y="273" type="curve" smooth="yes"/>
      <point x="76" y="384"/>
      <point x="154" y="472"/>
      <point x="252" y="472" type="curve" smooth="yes"/>
      <point x="350" y="472"/>
      <point x="428" y="381"/>
      <point x="428" y="274" type="curve" smooth="yes"/>
      <point x="428" y="167"/>
      <point x="348" y="76"/>
    </contour>
  </outline>
</glyph>
<glyph name="ordfeminine" format="1">
  <advance width="500"/>
  <unicode hex="00AA"/>
  <outline>
    <contour>
      <point x="208" y="251" type="curve" smooth="yes"/>
      <point x="256" y="251"/>
      <point x="285" y="268"/>
      <point x="304" y="306" type="curve"/>
      <point x="304" y="261" type="line"/>
      <point x="403" y="261" type="line"/>
      <point x="403" y="489" type="line"/>
      <point x="403" y="577"/>
      <point x="349" y="623"/>
      <point x="258" y="623" type="curve"/>
      <point x="199" y="623"/>
      <point x="153" y="604"/>
      <point x="108" y="558" type="curve"/>
      <point x="163" y="503" type="line"/>
      <point x="193" y="530"/>
      <point x="220" y="543"/>
      <point x="252" y="543" type="curve" smooth="yes"/>
      <point x="285" y="543"/>
      <point x="303" y="525"/>
      <point x="303" y="474" type="curve"/>
      <point x="191" y="484"/>
      <point x="89" y="457"/>
      <point x="89" y="364" type="curve" smooth="yes"/>
      <point x="89" y="298"/>
      <point x="143" y="251"/>
    </contour>
    <contour>
      <point x="69" y="143" type="line"/>
      <point x="434" y="143" type="line"/>
      <point x="434" y="221" type="line"/>
      <point x="69" y="221" type="line"/>
    </contour>
    <contour>
      <point x="234" y="330" type="curve" smooth="yes"/>
      <point x="206" y="330"/>
      <point x="191" y="348"/>
      <point x="191" y="365" type="curve" smooth="yes"/>
      <point x="191" y="399"/>
      <point x="218" y="418"/>
      <point x="306" y="411" type="curve"/>
      <point x="306" y="346"/>
      <point x="266" y="330"/>
    </contour>
  </outline>
</glyph>
<glyph name="guillemetleft" format="1">
  <advance width="500"/>
  <unicode hex="00AB"/>
  <outline>
    <contour>
      <point x="226" y="47" type="line"/>
      <point x="281" y="99" type="line"/>
      <point x="154" y="242" type="line"/>
      <point x="273" y="364" type="line"/>
      <point x="223" y="418" type="line"/>
      <point x="59" y="260" type="line"/>
      <point x="59" y="227" type="line"/>
    </contour>
    <contour>
      <point x="393" y="47" type="line"/>
      <point x="451" y="100" type="line"/>
      <point x="320" y="242" type="line"/>
      <point x="444" y="361" type="line"/>
      <point x="389" y="418" type="line"/>
      <point x="226" y="260" type="line"/>
      <point x="226" y="227" type="line"/>
    </contour>
  </outline>
</glyph>
<glyph name="logicalnot" format="1">
  <advance width="500"/>
  <unicode hex="00AC"/>
  <outline>
    <contour>
      <point x="319" y="154" type="line"/>
      <point x="424" y="154" type="line"/>
      <point x="424" y="366" type="line"/>
      <point x="81" y="366" type="line"/>
      <point x="81" y="271" type="line"/>
      <point x="319" y="271" type="line"/>
    </contour>
  </outline>
</glyph>
<glyph name="softhyphen" format="1">
  <advance width="500"/>
  <unicode hex="00AD"/>
  <outline>
    <contour>
      <point x="64" y="275" type="line"/>
      <point x="439" y="275" type="line"/>
      <point x="439" y="366" type="line"/>
      <point x="64" y="366" type="line"/>
    </contour>
  </outline>
</glyph>
<glyph name="registered" format="1">
  <advance width="500"/>
  <unicode hex="00AE"/>
  <outline>
    <contour>
      <point x="247" y="18" type="curve" smooth="yes"/>
      <point x="316" y="18"/>
      <point x="377" y="45"/>
      <point x="424" y="94" type="curve" smooth="yes"/>
      <point x="473" y="145"/>
      <point x="497" y="204"/>
      <point x="497" y="273" type="curve" smooth="yes"/>
      <point x="497" y="413"/>
      <point x="384" y="528"/>
      <point x="251" y="528" type="curve" smooth="yes"/>
      <point x="116" y="528"/>
      <point x="5" y="413"/>
      <point x="5" y="273" type="curve" smooth="yes"/>
      <point x="5" y="134"/>
      <point x="112" y="18"/>
    </contour>
    <contour>
      <point x="252" y="76" type="curve" smooth="yes"/>
      <point x="154" y="76"/>
      <point x="76" y="164"/>
      <point x="76" y="273" type="curve" smooth="yes"/>
      <point x="76" y="384"/>
      <point x="154" y="472"/>
      <point x="252" y="472" type="curve" smooth="yes"/>
      <point x="350" y="472"/>
      <point x="428" y="381"/>
      <point x="428" y="274" type="curve" smooth="yes"/>
      <point x="428" y="167"/>
      <point x="348" y="76"/>
    </contour>
    <contour>
      <point x="301" y="133" type="line"/>
      <point x="374" y="144" type="line"/>
      <point x="316" y="257" type="line"/>
      <point x="348" y="272"/>
      <point x="367" y="301"/>
      <point x="367" y="333" type="curve" smooth="yes"/>
      <point x="367" y="385"/>
      <point x="332" y="418"/>
      <point x="242" y="418" type="curve"/>
      <point x="149" y="418" type="line"/>
      <point x="149" y="137" type="line"/>
      <point x="218" y="137" type="line"/>
      <point x="218" y="246" type="line"/>
      <point x="245" y="246" type="line"/>
    </contour>
    <contour>
      <point x="218" y="302" type="line"/>
      <point x="218" y="357" type="line"/>
      <point x="242" y="357" type="line"/>
      <point x="276" y="357"/>
      <point x="290" y="347"/>
      <point x="290" y="331" type="curve" smooth="yes"/>
      <point x="290" y="313"/>
      <point x="277" y="302"/>
      <point x="245" y="302" type="curve"/>
    </contour>
  </outline>
</glyph>
<glyph name="macron" format="1">
  <advance width="500"/>
  <unicode hex="00AF"/>
  <outline>
    <contour>
      <point x="108" y="578" type="line"/>
      <point x="388" y="578" type="line"/>
      <point x="388" y="642" type="line"/>
      <point x="108" y="642" type="line"/>
    </contour>
  </outline>
</glyph>
<glyph name="degree" format="1">
  <advance width="500"/>
  <unicode hex="00B0"/>
  <outline>
    <contour>
      <point x="256" y="382" type="curve" smooth="yes"/>
      <point x="338" y="382"/>
      <point x="403" y="448"/>
      <point x="403" y="524" type="curve" smooth="yes"/>
      <point x="403" y="600"/>
      <point x="338" y="666"/>
      <point x="256" y="666" type="curve" smooth="yes"/>
      <point x="178" y="666"/>
      <point x="109" y="604"/>
      <point x="109" y="524" type="curve" smooth="yes"/>
      <point x="109" y="445"/>
      <point x="174" y="382"/>
    </contour>
    <contour>
      <point x="256" y="463" type="curve" smooth="yes"/>
      <point x="225" y="463"/>
      <point x="204" y="489"/>
      <point x="204" y="525" type="curve" smooth="yes"/>
      <point x="204" y="561"/>
      <point x="225" y="588"/>
      <point x="256" y="588" type="curve" smooth="yes"/>
      <point x="287" y="588"/>
      <point x="309" y="561"/>
      <point x="309" y="525" type="curve" smooth="yes"/>
      <point x="309" y="489"/>
      <point x="287" y="463"/>
    </contour>
  </outline>
</glyph>
<glyph name="plusminus" format="1">
  <advance width="500"/>
  <unicode hex="00B1"/>
  <outline>
    <contour>
      <point x="201" y="153" type="line"/>
      <point x="305" y="153" type="line"/>
      <point x="305" y="325" type="line"/>
      <point x="462" y="325" type="line"/>
      <point x="462" y="418" type="line"/>
      <point x="305" y="418" type="line"/>
      <point x="305" y="576" type="line"/>
      <point x="201" y="576" type="line"/>
      <point x="201" y="418" type="line"/>
      <point x="38" y="418" type="line"/>
      <point x="38" y="325" type="line"/>
      <point x="201" y="325" type="line"/>
    </contour>
    <contour>
      <point x="39" y="16" type="line"/>
      <point x="463" y="16" type="line"/>
      <point x="463" y="110" type="line"/>
      <point x="39" y="110" type="line"/>
    </contour>
  </outline>
</glyph>
<glyph name="twosuperior" format="1">
  <advance width="500"/>
  <unicode hex="00B2"/>
  <outline>
    <contour>
      <point x="118" y="262" type="line"/>
      <point x="421" y="262" type="line"/>
      <point x="421" y="348" type="line" name="_corner00"/>
      <point x="191" y="348" type="line"/>
      <point x="199" y="321" type="line"/>
      <point x="312" y="416"/>
      <point x="398" y="460"/>
      <point x="398" y="549" type="curve" smooth="yes"/>
      <point x="398" y="618"/>
      <point x="342" y="663"/>
      <point x="268" y="663" type="curve" smooth="yes"/>
      <point x="188" y="663"/>
      <point x="139" y="628"/>
      <point x="102" y="569" type="curve"/>
      <point x="163" y="521" type="line" name="_corner01"/>
      <point x="192" y="565"/>
      <point x="220" y="580"/>
      <point x="256" y="580" type="curve" smooth="yes"/>
      <point x="285" y="580"/>
      <point x="303" y="566"/>
      <point x="303" y="541" type="curve" smooth="yes"/>
      <point x="303" y="478"/>
      <point x="217" y="425"/>
      <point x="118" y="335" type="curve"/>
    </contour>
  </outline>
</glyph>
<glyph name="threesuperior" format="1">
  <advance width="500"/>
  <unicode hex="00B3"/>
  <outline>
    <contour>
      <point x="253" y="251" type="curve" smooth="yes"/>
      <point x="339" y="251"/>
      <point x="410" y="305"/>
      <point x="410" y="379" type="curve" smooth="yes"/>
      <point x="410" y="422"/>
      <point x="382" y="451"/>
      <point x="339" y="468" type="curve"/>
      <point x="377" y="488"/>
      <point x="394" y="520"/>
      <point x="394" y="557" type="curve" smooth="yes"/>
      <point x="394" y="610"/>
      <point x="338" y="663"/>
      <point x="253" y="663" type="curve" smooth="yes"/>
      <point x="186" y="663"/>
      <point x="137" y="638"/>
      <point x="100" y="591" type="curve"/>
      <point x="161" y="543" type="line"/>
      <point x="182" y="568"/>
      <point x="217" y="583"/>
      <point x="246" y="583" type="curve" smooth="yes"/>
      <point x="279" y="583"/>
      <point x="302" y="571"/>
      <point x="302" y="540" type="curve" smooth="yes"/>
      <point x="302" y="510"/>
      <point x="281" y="494"/>
      <point x="257" y="494" type="curve" smooth="yes"/>
      <point x="254" y="494"/>
      <point x="228" y="494"/>
      <point x="209" y="496" type="curve"/>
      <point x="209" y="427" type="line"/>
      <point x="234" y="429"/>
      <point x="241" y="429"/>
      <point x="256" y="429" type="curve" smooth="yes"/>
      <point x="296" y="429"/>
      <point x="314" y="412"/>
      <point x="314" y="386" type="curve" smooth="yes"/>
      <point x="314" y="353"/>
      <point x="282" y="336"/>
      <point x="246" y="336" type="curve" smooth="yes"/>
      <point x="206" y="336"/>
      <point x="160" y="357"/>
      <point x="148" y="401" type="curve" name="_corner00"/>
      <point x="86" y="329" type="line"/>
      <point x="132" y="277"/>
      <point x="183" y="251"/>
    </contour>
  </outline>
</glyph>
<glyph name="acute" format="1">
  <advance width="500"/>
  <unicode hex="00B4"/>
  <outline>
    <contour>
      <point x="255" y="517" type="line"/>
      <point x="360" y="658" type="line"/>
      <point x="292" y="707" type="line"/>
      <point x="212" y="542" type="line"/>
    </contour>
  </outline>
</glyph>
<glyph name="micro" format="1">
  <advance width="500"/>
  <unicode hex="00B5"/>
  <outline>
    <contour>
      <point x="10" y="-154" type="curve"/>
      <point x="113" y="-154" type="line"/>
      <point x="113" y="-103"/>
      <point x="113" y="-41"/>
      <point x="113" y="14" type="curve"/>
      <point x="136" y="-1"/>
      <point x="166" y="-9"/>
      <point x="195" y="-9" type="curve" smooth="yes"/>
      <point x="233" y="-9"/>
      <point x="274" y="6"/>
      <point x="303" y="33" type="curve"/>
      <point x="320" y="7"/>
      <point x="349" y="-9"/>
      <point x="384" y="-9" type="curve" smooth="yes"/>
      <point x="423" y="-9"/>
      <point x="458" y="13"/>
      <point x="490" y="59" type="curve"/>
      <point x="439" y="154" type="line"/>
      <point x="413" y="104" type="line"/>
      <point x="408" y="93"/>
      <point x="397" y="80"/>
      <point x="389" y="80" type="curve" smooth="yes"/>
      <point x="380" y="80"/>
      <point x="376" y="95"/>
      <point x="376" y="125" type="curve"/>
      <point x="376" y="457" type="line"/>
      <point x="271" y="457" type="line"/>
      <point x="271" y="187" type="line"/>
      <point x="271" y="113"/>
      <point x="236" y="83"/>
      <point x="202" y="76" type="curve"/>
      <point x="167" y="80"/>
      <point x="135" y="101"/>
      <point x="135" y="189" type="curve"/>
      <point x="135" y="457" type="line"/>
      <point x="28" y="457" type="line"/>
      <point x="28" y="204" type="line"/>
      <point x="17" y="27"/>
      <point x="10" y="-104"/>
    </contour>
  </outline>
</glyph>
<glyph name="paragraph" format="1">
  <advance width="500"/>
  <unicode hex="00B6"/>
  <outline>
    <contour>
      <point x="216" y="-69" type="line"/>
      <point x="316" y="-69" type="line"/>
      <point x="316" y="577" type="line"/>
      <point x="375" y="577" type="line"/>
      <point x="375" y="-69" type="line"/>
      <point x="474" y="-69" type="line"/>
      <point x="474" y="666" type="line"/>
      <point x="301" y="666" type="line"/>
      <point x="114" y="666"/>
      <point x="51" y="587"/>
      <point x="51" y="499" type="curve" smooth="yes"/>
      <point x="51" y="406"/>
      <point x="121" y="331"/>
      <point x="216" y="317" type="curve"/>
    </contour>
  </outline>
</glyph>
<glyph name="periodcentered" format="1">
  <advance width="500"/>
  <unicode hex="00B7"/>
  <outline>
    <contour>
      <point x="238" y="262" type="curve" smooth="yes"/>
      <point x="282" y="262"/>
      <point x="317" y="294"/>
      <point x="317" y="333" type="curve" smooth="yes"/>
      <point x="317" y="369"/>
      <point x="279" y="404"/>
      <point x="238" y="404" type="curve" smooth="yes"/>
      <point x="198" y="404"/>
      <point x="161" y="372"/>
      <point x="161" y="333" type="curve" smooth="yes"/>
      <point x="161" y="293"/>
      <point x="195" y="262"/>
    </contour>
  </outline>
</glyph>
<glyph name="cedilla" format="1">
  <advance width="500"/>
  <unicode hex="00B8"/>
  <outline>
    <contour>
      <point x="270" y="-205" type="curve" smooth="yes"/>
      <point x="357" y="-205"/>
      <point x="398" y="-149"/>
      <point x="398" y="-102" type="curve" smooth="yes"/>
      <point x="398" y="-63"/>
      <point x="370" y="-36"/>
      <point x="320" y="-31" type="curve"/>
      <point x="324" y="0" type="line"/>
      <point x="244" y="0" type="line"/>
      <point x="232" y="-89" type="line"/>
      <point x="281" y="-89" type="line" smooth="yes"/>
      <point x="316" y="-89"/>
      <point x="328" y="-96"/>
      <point x="328" y="-111" type="curve" smooth="yes"/>
      <point x="328" y="-127"/>
      <point x="313" y="-137"/>
      <point x="282" y="-137" type="curve" smooth="yes"/>
      <point x="248" y="-137"/>
      <point x="220" y="-125"/>
      <point x="181" y="-84" type="curve"/>
      <point x="144" y="-149" type="line"/>
      <point x="184" y="-189"/>
      <point x="228" y="-205"/>
    </contour>
  </outline>
</glyph>
<glyph name="onesuperior" format="1">
  <advance width="500"/>
  <unicode hex="00B9"/>
  <outline>
    <contour>
      <point x="241" y="263" type="line"/>
      <point x="331" y="263" type="line"/>
      <point x="331" y="649" type="line"/>
      <point x="275" y="649" type="line"/>
      <point x="120" y="567" type="line"/>
      <point x="149" y="509" type="line"/>
      <point x="241" y="542" type="line"/>
    </contour>
  </outline>
</glyph>
<glyph name="ordmasculine" format="1">
  <advance width="500"/>
  <unicode hex="00BA"/>
  <outline>
    <contour>
      <point x="245" y="265" type="curve" smooth="yes"/>
      <point x="331" y="265"/>
      <point x="408" y="335"/>
      <point x="408" y="454" type="curve" smooth="yes"/>
      <point x="408" y="573"/>
      <point x="338" y="639"/>
      <point x="249" y="639" type="curve" smooth="yes"/>
      <point x="163" y="639"/>
      <point x="85" y="561"/>
      <point x="85" y="447" type="curve" smooth="yes"/>
      <point x="85" y="339"/>
      <point x="156" y="265"/>
    </contour>
    <contour>
      <point x="67" y="150" type="line"/>
      <point x="434" y="150" type="line"/>
      <point x="434" y="236" type="line"/>
      <point x="67" y="236" type="line"/>
    </contour>
    <contour>
      <point x="246" y="356" type="curve" smooth="yes"/>
      <point x="214" y="356"/>
      <point x="186" y="390"/>
      <point x="186" y="451" type="curve" smooth="yes"/>
      <point x="186" y="513"/>
      <point x="214" y="550"/>
      <point x="247" y="550" type="curve" smooth="yes"/>
      <point x="279" y="550"/>
      <point x="307" y="513"/>
      <point x="307" y="450" type="curve" smooth="yes"/>
      <point x="307" y="389"/>
      <point x="279" y="356"/>
    </contour>
  </outline>
</glyph>
<glyph name="onequarter" format="1">
  <advance width="500"/>
  <unicode hex="00BC"/>
  <outline>
    <contour>
      <point x="123" y="-43" type="line"/>
      <point x="434" y="630" type="line"/>
      <point x="370" y="671" type="line"/>
      <point x="60" y="-4" type="line"/>
    </contour>
    <contour>
      <point x="311" y="64" type="line"/>
      <point x="360" y="126" type="line"/>
      <point x="360" y="64" type="line"/>
    </contour>
    <contour>
      <point x="359" y="-70" type="line"/>
      <point x="445" y="-70" type="line"/>
      <point x="445" y="4" type="line"/>
      <point x="492" y="4" type="line"/>
      <point x="492" y="66" type="line"/>
      <point x="445" y="66" type="line"/>
      <point x="445" y="251" type="line"/>
      <point x="382" y="251" type="line"/>
      <point x="223" y="49" type="line"/>
      <point x="223" y="4" type="line"/>
      <point x="359" y="4" type="line"/>
    </contour>
    <contour>
      <point x="88" y="365" type="line"/>
      <point x="178" y="365" type="line"/>
      <point x="178" y="677" type="line"/>
      <point x="117" y="677" type="line"/>
      <point x="0" y="614" type="line"/>
      <point x="23" y="568" type="line"/>
      <point x="88" y="585" type="line"/>
    </contour>
  </outline>
</glyph>
<glyph name="onehalf" format="1">
  <advance width="500"/>
  <unicode hex="00BD"/>
  <outline>
    <contour>
      <point x="103" y="-43" type="line"/>
      <point x="414" y="630" type="line"/>
      <point x="350" y="671" type="line"/>
      <point x="40" y="-4" type="line"/>
    </contour>
    <contour>
      <point x="251" y="-73" type="line"/>
      <point x="499" y="-73" type="line"/>
      <point x="499" y="9" type="line"/>
      <point x="486" y="9"/>
      <point x="481" y="-1"/>
      <point x="472" y="-3" type="curve"/>
      <point x="363" y="-3" type="line"/>
      <point x="374" y="7"/>
      <point x="387" y="18"/>
      <point x="401" y="28" type="curve" smooth="yes"/>
      <point x="474" y="80"/>
      <point x="492" y="100"/>
      <point x="492" y="144" type="curve" smooth="yes"/>
      <point x="492" y="197"/>
      <point x="444" y="245"/>
      <point x="382" y="245" type="curve" smooth="yes"/>
      <point x="318" y="245"/>
      <point x="277" y="216"/>
      <point x="244" y="164" type="curve"/>
      <point x="310" y="121" type="line"/>
      <point x="316" y="129"/>
      <point x="317" y="137"/>
      <point x="319" y="143" type="curve" smooth="yes"/>
      <point x="326" y="165"/>
      <point x="340" y="178"/>
      <point x="362" y="178" type="curve" smooth="yes"/>
      <point x="385" y="178"/>
      <point x="405" y="164"/>
      <point x="405" y="141" type="curve" smooth="yes"/>
      <point x="405" y="120"/>
      <point x="377" y="100"/>
      <point x="357" y="82" type="curve" smooth="yes"/>
      <point x="319" y="48"/>
      <point x="278" y="10"/>
      <point x="251" y="-22" type="curve"/>
    </contour>
    <contour>
      <point x="88" y="365" type="line"/>
      <point x="178" y="365" type="line"/>
      <point x="178" y="677" type="line"/>
      <point x="117" y="677" type="line"/>
      <point x="0" y="614" type="line"/>
      <point x="23" y="568" type="line"/>
      <point x="88" y="585" type="line"/>
    </contour>
  </outline>
</glyph>
<glyph name="threequarters" format="1">
  <advance width="500"/>
  <unicode hex="00BE"/>
  <outline>
    <contour>
      <point x="153" y="-43" type="line"/>
      <point x="464" y="630" type="line"/>
      <point x="400" y="671" type="line"/>
      <point x="90" y="-4" type="line"/>
    </contour>
    <contour>
      <point x="312" y="64" type="line"/>
      <point x="361" y="126" type="line"/>
      <point x="361" y="64" type="line"/>
    </contour>
    <contour>
      <point x="360" y="-70" type="line"/>
      <point x="446" y="-70" type="line"/>
      <point x="446" y="4" type="line"/>
      <point x="493" y="4" type="line"/>
      <point x="493" y="66" type="line"/>
      <point x="446" y="66" type="line"/>
      <point x="446" y="251" type="line"/>
      <point x="383" y="251" type="line"/>
      <point x="224" y="49" type="line"/>
      <point x="224" y="4" type="line"/>
      <point x="360" y="4" type="line"/>
    </contour>
    <contour>
      <point x="126" y="369" type="curve" smooth="yes"/>
      <point x="196" y="369"/>
      <point x="258" y="410"/>
      <point x="258" y="470" type="curve" smooth="yes"/>
      <point x="258" y="497"/>
      <point x="236" y="523"/>
      <point x="209" y="537" type="curve"/>
      <point x="230" y="547"/>
      <point x="245" y="572"/>
      <point x="245" y="593" type="curve" smooth="yes"/>
      <point x="245" y="645"/>
      <point x="194" y="688"/>
      <point x="129" y="688" type="curve" smooth="yes"/>
      <point x="82" y="688"/>
      <point x="44" y="667"/>
      <point x="11" y="627" type="curve"/>
      <point x="57" y="577" type="line"/>
      <point x="82" y="608"/>
      <point x="104" y="620"/>
      <point x="126" y="620" type="curve" smooth="yes"/>
      <point x="149" y="620"/>
      <point x="163" y="604"/>
      <point x="163" y="589" type="curve" smooth="yes"/>
      <point x="163" y="577"/>
      <point x="152" y="565"/>
      <point x="125" y="565" type="curve"/>
      <point x="108" y="565"/>
      <point x="101" y="567"/>
      <point x="89" y="572" type="curve"/>
      <point x="89" y="498" type="line"/>
      <point x="119" y="501"/>
      <point x="121" y="501"/>
      <point x="127" y="501" type="curve" smooth="yes"/>
      <point x="161" y="501"/>
      <point x="175" y="491"/>
      <point x="175" y="470" type="curve" smooth="yes"/>
      <point x="175" y="448"/>
      <point x="153" y="439"/>
      <point x="127" y="439" type="curve" smooth="yes"/>
      <point x="99" y="439"/>
      <point x="79" y="456"/>
      <point x="73" y="468" type="curve"/>
      <point x="69" y="477"/>
      <point x="67" y="487"/>
      <point x="57" y="495" type="curve"/>
      <point x="0" y="432" type="line"/>
      <point x="38" y="390"/>
      <point x="77" y="369"/>
    </contour>
  </outline>
</glyph>
<glyph name="AE" format="1">
  <advance width="500"/>
  <unicode hex="00C6"/>
  <outline>
    <contour>
      <point x="0" y="0" type="line"/>
      <point x="108" y="0" type="line"/>
      <point x="152" y="159" type="line"/>
      <point x="237" y="159" type="line"/>
      <point x="237" y="0" type="line"/>
      <point x="496" y="0" type="line"/>
      <point x="496" y="96" type="line"/>
      <point x="341" y="96" type="line"/>
      <point x="341" y="275" type="line"/>
      <point x="473" y="275" type="line"/>
      <point x="473" y="373" type="line"/>
      <point x="341" y="373" type="line"/>
      <point x="341" y="528" type="line"/>
      <point x="498" y="528" type="line"/>
      <point x="498" y="623" type="line"/>
      <point x="192" y="623" type="line"/>
    </contour>
    <contour>
      <point x="177" y="251" type="line"/>
      <point x="236" y="472" type="line"/>
      <point x="238" y="472" type="line"/>
      <point x="238" y="251" type="line"/>
    </contour>
  </outline>
</glyph>
<glyph name="multiply" format="1">
  <advance width="500"/>
  <unicode hex="00D7"/>
  <outline>
    <contour>
      <point x="370" y="141" type="line"/>
      <point x="442" y="214" type="line"/>
      <point x="326" y="337" type="line"/>
      <point x="445" y="461" type="line"/>
      <point x="370" y="529" type="line"/>
      <point x="256" y="410" type="line"/>
      <point x="142" y="530" type="line"/>
      <point x="69" y="459" type="line"/>
      <point x="185" y="336" type="line"/>
      <point x="69" y="216" type="line"/>
      <point x="139" y="146" type="line"/>
      <point x="254" y="264" type="line"/>
    </contour>
  </outline>
</glyph>
<glyph name="Oslash" format="1">
  <advance width="500"/>
  <unicode hex="00D8"/>
  <outline>
    <contour>
      <point x="88" y="-56" type="line"/>
      <point x="463" y="654" type="line"/>
      <point x="407" y="682" type="line"/>
      <point x="32" y="-22" type="line"/>
    </contour>
    <component base="O"/>
  </outline>
</glyph>
<glyph name="Thorn" format="1">
  <advance width="500"/>
  <unicode hex="00DE"/>
  <outline>
    <contour>
      <point x="50" y="0" type="line"/>
      <point x="164" y="0" type="line"/>
      <point x="164" y="145" type="line"/>
      <point x="266" y="145" type="line" smooth="yes"/>
      <point x="410" y="145"/>
      <point x="471" y="228"/>
      <point x="471" y="329" type="curve" smooth="yes"/>
      <point x="471" y="430"/>
      <point x="409" y="516"/>
      <point x="261" y="516" type="curve" smooth="yes"/>
      <point x="165" y="516" type="line"/>
      <point x="165" y="588" type="line"/>
      <point x="167" y="608"/>
      <point x="174" y="613"/>
      <point x="174" y="618" type="curve" smooth="yes"/>
      <point x="174" y="620"/>
      <point x="174" y="621"/>
      <point x="172" y="623" type="curve"/>
      <point x="50" y="623" type="line"/>
    </contour>
    <contour>
      <point x="164" y="240" type="line"/>
      <point x="165" y="417" type="line"/>
      <point x="259" y="417" type="line" smooth="yes"/>
      <point x="325" y="417"/>
      <point x="356" y="373"/>
      <point x="356" y="326" type="curve" smooth="yes"/>
      <point x="356" y="277"/>
      <point x="327" y="240"/>
      <point x="258" y="240" type="curve" smooth="yes"/>
    </contour>
  </outline>
</glyph>
<glyph name="germandbls" format="1">
  <advance width="500"/>
  <unicode hex="00DF"/>
  <outline>
    <contour>
      <point x="280" y="-15" type="curve" smooth="yes"/>
      <point x="393" y="-15"/>
      <point x="454" y="66"/>
      <point x="454" y="176" type="curve" smooth="yes"/>
      <point x="454" y="269"/>
      <point x="412" y="334"/>
      <point x="324" y="361" type="curve"/>
      <point x="388" y="389"/>
      <point x="419" y="451"/>
      <point x="419" y="509" type="curve" smooth="yes"/>
      <point x="419" y="592"/>
      <point x="357" y="675"/>
      <point x="236" y="675" type="curve" smooth="yes"/>
      <point x="118" y="675"/>
      <point x="38" y="601"/>
      <point x="38" y="437" type="curve" smooth="yes"/>
      <point x="38" y="0" type="line"/>
      <point x="146" y="0" type="line"/>
      <point x="146" y="449" type="line" smooth="yes"/>
      <point x="146" y="546"/>
      <point x="180" y="585"/>
      <point x="236" y="585" type="curve" smooth="yes"/>
      <point x="293" y="585"/>
      <point x="324" y="544"/>
      <point x="324" y="487" type="curve" smooth="yes"/>
      <point x="324" y="427"/>
      <point x="289" y="395"/>
      <point x="240" y="395" type="curve" smooth="yes"/>
      <point x="184" y="395" type="line"/>
      <point x="184" y="306" type="line"/>
      <point x="234" y="306" type="line" smooth="yes"/>
      <point x="309" y="306"/>
      <point x="347" y="253"/>
      <point x="347" y="184" type="curve" smooth="yes"/>
      <point x="347" y="120"/>
      <point x="316" y="80"/>
      <point x="277" y="80" type="curve" smooth="yes"/>
      <point x="257" y="80"/>
      <point x="240" y="88"/>
      <point x="223" y="104" type="curve"/>
      <point x="167" y="16" type="line"/>
      <point x="203" y="-4"/>
      <point x="234" y="-15"/>
    </contour>
  </outline>
</glyph>
<glyph name="ae" format="1">
  <advance width="500"/>
  <unicode hex="00E6"/>
  <outline>
    <contour>
      <point x="146" y="-12" type="curve" smooth="yes"/>
      <point x="189" y="-12"/>
      <point x="233" y="12"/>
      <point x="256" y="49" type="curve"/>
      <point x="283" y="11"/>
      <point x="324" y="-12"/>
      <point x="370" y="-12" type="curve" smooth="yes"/>
      <point x="420" y="-12"/>
      <point x="465" y="11"/>
      <point x="500" y="53" type="curve"/>
      <point x="445" y="121" type="line"/>
      <point x="425" y="87"/>
      <point x="402" y="70"/>
      <point x="375" y="70" type="curve" smooth="yes"/>
      <point x="326" y="70"/>
      <point x="296" y="114"/>
      <point x="296" y="178" type="curve"/>
      <point x="296" y="214" type="line"/>
      <point x="494" y="222" type="line"/>
      <point x="494" y="271" type="line"/>
      <point x="494" y="395"/>
      <point x="451" y="476"/>
      <point x="353" y="476" type="curve" smooth="yes"/>
      <point x="316" y="476"/>
      <point x="280" y="450"/>
      <point x="259" y="419" type="curve"/>
      <point x="237" y="449"/>
      <point x="191" y="476"/>
      <point x="151" y="476" type="curve" smooth="yes"/>
      <point x="98" y="476"/>
      <point x="51" y="455"/>
      <point x="17" y="411" type="curve"/>
      <point x="72" y="341" type="line"/>
      <point x="96" y="381"/>
      <point x="121" y="396"/>
      <point x="146" y="396" type="curve" smooth="yes"/>
      <point x="182" y="396"/>
      <point x="204" y="358"/>
      <point x="204" y="294" type="curve"/>
      <point x="81" y="290"/>
      <point x="2" y="224"/>
      <point x="2" y="129" type="curve" smooth="yes"/>
      <point x="2" y="37"/>
      <point x="68" y="-12"/>
    </contour>
    <contour>
      <point x="148" y="73" type="curve" smooth="yes"/>
      <point x="122" y="73"/>
      <point x="99" y="91"/>
      <point x="99" y="129" type="curve" smooth="yes"/>
      <point x="99" y="172"/>
      <point x="127" y="206"/>
      <point x="207" y="210" type="curve"/>
      <point x="207" y="107"/>
      <point x="201" y="73"/>
    </contour>
    <contour>
      <point x="296" y="297" type="line"/>
      <point x="296" y="350"/>
      <point x="319" y="396"/>
      <point x="356" y="396" type="curve" smooth="yes"/>
      <point x="386" y="396"/>
      <point x="414" y="364"/>
      <point x="414" y="300" type="curve"/>
    </contour>
  </outline>
</glyph>
<glyph name="eth" format="1">
  <advance width="500"/>
  <unicode hex="00F0"/>
  <outline>
    <contour>
      <point x="255" y="-16" type="curve" smooth="yes"/>
      <point x="398" y="-16"/>
      <point x="470" y="93"/>
      <point x="470" y="251" type="curve" smooth="yes"/>
      <point x="470" y="374"/>
      <point x="435" y="477"/>
      <point x="372" y="560" type="curve"/>
      <point x="452" y="581" type="line"/>
      <point x="424" y="656" type="line"/>
      <point x="309" y="626" type="line"/>
      <point x="285" y="647"/>
      <point x="259" y="666"/>
      <point x="231" y="684" type="curve"/>
      <point x="111" y="657" type="line"/>
      <point x="149" y="636"/>
      <point x="180" y="616"/>
      <point x="207" y="596" type="curve"/>
      <point x="124" y="575" type="line"/>
      <point x="154" y="496" type="line"/>
      <point x="278" y="531" type="line"/>
      <point x="310" y="494"/>
      <point x="326" y="461"/>
      <point x="339" y="434" type="curve"/>
      <point x="314" y="457"/>
      <point x="274" y="471"/>
      <point x="242" y="471" type="curve" smooth="yes"/>
      <point x="121" y="471"/>
      <point x="37" y="356"/>
      <point x="37" y="223" type="curve" smooth="yes"/>
      <point x="37" y="87"/>
      <point x="130" y="-16"/>
    </contour>
    <contour>
      <point x="258" y="78" type="curve" smooth="yes"/>
      <point x="194" y="78"/>
      <point x="154" y="143"/>
      <point x="154" y="232" type="curve" smooth="yes"/>
      <point x="154" y="326"/>
      <point x="198" y="378"/>
      <point x="256" y="378" type="curve" smooth="yes"/>
      <point x="308" y="378"/>
      <point x="356" y="337"/>
      <point x="356" y="232" type="curve" smooth="yes"/>
      <point x="356" y="128"/>
      <point x="314" y="78"/>
    </contour>
  </outline>
</glyph>
<glyph name="divide" format="1">
  <advance width="500"/>
  <unicode hex="00F7"/>
  <outline>
    <contour>
      <point x="62" y="273" type="line"/>
      <point x="439" y="273" type="line"/>
      <point x="439" y="372" type="line"/>
      <point x="62" y="372" type="line"/>
    </contour>
    <contour>
      <point x="255" y="120" type="curve" smooth="yes"/>
      <point x="290" y="120"/>
      <point x="319" y="146"/>
      <point x="319" y="179" type="curve" smooth="yes"/>
      <point x="319" y="203"/>
      <point x="297" y="239"/>
      <point x="255" y="239" type="curve" smooth="yes"/>
      <point x="222" y="239"/>
      <point x="190" y="215"/>
      <point x="190" y="179" type="curve" smooth="yes"/>
      <point x="190" y="146"/>
      <point x="221" y="120"/>
    </contour>
    <contour>
      <point x="255" y="403" type="curve" smooth="yes"/>
      <point x="290" y="403"/>
      <point x="319" y="430"/>
      <point x="319" y="462" type="curve" smooth="yes"/>
      <point x="319" y="487"/>
      <point x="295" y="523"/>
      <point x="255" y="523" type="curve" smooth="yes"/>
      <point x="221" y="523"/>
      <point x="191" y="495"/>
      <point x="191" y="462" type="curve" smooth="yes"/>
      <point x="191" y="430"/>
      <point x="220" y="403"/>
    </contour>
  </outline>
</glyph>
<glyph name="oslash" format="1">
  <advance width="500"/>
  <unicode hex="00F8"/>
  <outline>
    <contour>
      <point x="142" y="-68" type="line"/>
      <point x="177" y="-2" type="line"/>
      <point x="201" y="-11"/>
      <point x="226" y="-16"/>
      <point x="253" y="-16" type="curve" smooth="yes"/>
      <point x="378" y="-16"/>
      <point x="471" y="76"/>
      <point x="471" y="231" type="curve" smooth="yes"/>
      <point x="471" y="310"/>
      <point x="446" y="372"/>
      <point x="405" y="414" type="curve"/>
      <point x="439" y="476" type="line"/>
      <point x="352" y="523" type="line"/>
      <point x="321" y="467" type="line"/>
      <point x="300" y="473"/>
      <point x="277" y="477"/>
      <point x="254" y="477" type="curve" smooth="yes"/>
      <point x="131" y="477"/>
      <point x="29" y="371"/>
      <point x="29" y="229" type="curve" smooth="yes"/>
      <point x="29" y="156"/>
      <point x="54" y="94"/>
      <point x="96" y="51" type="curve"/>
      <point x="56" y="-23" type="line"/>
    </contour>
    <contour>
      <point x="154" y="158" type="line"/>
      <point x="147" y="180"/>
      <point x="144" y="205"/>
      <point x="144" y="233" type="curve" smooth="yes"/>
      <point x="144" y="329"/>
      <point x="187" y="387"/>
      <point x="251" y="387" type="curve" smooth="yes"/>
      <point x="260" y="387"/>
      <point x="268" y="386"/>
      <point x="276" y="384" type="curve"/>
    </contour>
    <contour>
      <point x="253" y="75" type="curve" smooth="yes"/>
      <point x="242" y="75"/>
      <point x="232" y="76"/>
      <point x="222" y="79" type="curve"/>
      <point x="348" y="309" type="line"/>
      <point x="356" y="286"/>
      <point x="360" y="260"/>
      <point x="360" y="229" type="curve" smooth="yes"/>
      <point x="360" y="130"/>
      <point x="318" y="75"/>
    </contour>
  </outline>
</glyph>
<glyph name="thorn" format="1">
  <advance width="500"/>
  <unicode hex="00FE"/>
  <outline>
    <contour>
      <point x="50" y="-167" type="line"/>
      <point x="163" y="-167" type="line"/>
      <point x="163" y="31" type="line"/>
      <point x="191" y="1"/>
      <point x="237" y="-15"/>
      <point x="271" y="-15" type="curve" smooth="yes"/>
      <point x="372" y="-15"/>
      <point x="467" y="71"/>
      <point x="467" y="243" type="curve" smooth="yes"/>
      <point x="467" y="399"/>
      <point x="375" y="477"/>
      <point x="270" y="477" type="curve" smooth="yes"/>
      <point x="231" y="477"/>
      <point x="191" y="456"/>
      <point x="162" y="424" type="curve"/>
      <point x="162" y="632" type="line"/>
      <point x="162" y="655"/>
      <point x="176" y="657"/>
      <point x="176" y="675" type="curve"/>
      <point x="50" y="675" type="line"/>
    </contour>
    <contour>
      <point x="252" y="78" type="curve" smooth="yes"/>
      <point x="196" y="78"/>
      <point x="161" y="123"/>
      <point x="161" y="239" type="curve" smooth="yes"/>
      <point x="161" y="317"/>
      <point x="177" y="386"/>
      <point x="249" y="386" type="curve" smooth="yes"/>
      <point x="322" y="386"/>
      <point x="354" y="318"/>
      <point x="354" y="228" type="curve" smooth="yes"/>
      <point x="354" y="116"/>
      <point x="297" y="78"/>
    </contour>
  </outline>
</glyph>
<glyph name="dcaron" format="1">
  <advance width="500"/>
  <unicode hex="010F"/>
  <outline>
    <contour>
      <point x="169" y="-15" type="curve" smooth="yes"/>
      <point x="209" y="-15"/>
      <point x="244" y="6"/>
      <point x="261" y="43" type="curve"/>
      <point x="261" y="29" type="line" smooth="yes"/>
      <point x="261" y="20"/>
      <point x="263" y="6"/>
      <point x="271" y="0" type="curve"/>
      <point x="357" y="0" type="line"/>
      <point x="352" y="20"/>
      <point x="348" y="40"/>
      <point x="348" y="56" type="curve"/>
      <point x="350" y="621" type="line" smooth="yes"/>
      <point x="350" y="652"/>
      <point x="362" y="660"/>
      <point x="362" y="675" type="curve"/>
      <point x="256" y="675" type="line"/>
      <point x="256" y="430" type="line"/>
      <point x="234" y="458"/>
      <point x="204" y="477"/>
      <point x="168" y="477" type="curve" smooth="yes"/>
      <point x="85" y="477"/>
      <point x="10" y="384"/>
      <point x="10" y="226" type="curve" smooth="yes"/>
      <point x="10" y="64"/>
      <point x="82" y="-15"/>
    </contour>
    <contour>
      <point x="185" y="78" type="curve" smooth="yes"/>
      <point x="148" y="78"/>
      <point x="103" y="116"/>
      <point x="103" y="228" type="curve" smooth="yes"/>
      <point x="103" y="326"/>
      <point x="132" y="386"/>
      <point x="188" y="386" type="curve" smooth="yes"/>
      <point x="244" y="386"/>
      <point x="257" y="317"/>
      <point x="257" y="239" type="curve" smooth="yes"/>
      <point x="257" y="123"/>
      <point x="229" y="78"/>
    </contour>
    <component base="caroncomb.alt" xOffset="169" yOffset="-20"/>
  </outline>
</glyph>
<glyph name="Hbar" format="1">
  <advance width="500"/>
  <unicode hex="0126"/>
  <outline>
    <contour>
      <point x="3" y="493" type="line"/>
      <point x="498" y="493" type="line"/>
      <point x="498" y="564" type="line"/>
      <point x="3" y="564" type="line"/>
    </contour>
    <component base="H"/>
  </outline>
</glyph>
<glyph name="idotless" format="1">
  <advance width="500"/>
  <unicode hex="0131"/>
  <outline>
    <contour>
      <point x="89" y="0" type="line"/>
      <point x="415" y="0" type="line"/>
      <point x="415" y="90" type="line"/>
      <point x="313" y="90" type="line"/>
      <point x="313" y="467" type="line"/>
      <point x="94" y="467" type="line"/>
      <point x="94" y="377" type="line"/>
      <point x="201" y="377" type="line"/>
      <point x="201" y="90" type="line"/>
      <point x="89" y="90" type="line"/>
    </contour>
    <contour>
      <point x="250" y="0" type="move" name="bottom"/>
    </contour>
    <contour>
      <point x="339" y="0" type="move" name="ogonek"/>
    </contour>
    <contour>
      <point x="250" y="467" type="move" name="top"/>
    </contour>
  </outline>
</glyph>
<glyph name="kgreenlandic" format="1">
  <advance width="500"/>
  <unicode hex="0138"/>
  <outline>
    <contour>
      <point x="365" y="-4" type="line"/>
      <point x="502" y="1" type="line"/>
      <point x="291" y="280" type="line"/>
      <point x="483" y="467" type="line"/>
      <point x="410" y="467" type="line" smooth="yes"/>
      <point x="396" y="467"/>
      <point x="376" y="470"/>
      <point x="353" y="475" type="curve"/>
      <point x="173" y="295" type="line"/>
      <point x="173" y="439" type="line"/>
      <point x="175" y="451"/>
      <point x="187" y="451"/>
      <point x="187" y="467" type="curve"/>
      <point x="60" y="467" type="line"/>
      <point x="60" y="0" type="line"/>
      <point x="173" y="0" type="line"/>
      <point x="173" y="175" type="line"/>
      <point x="211" y="211" type="line"/>
    </contour>
    <contour>
      <point x="250" y="0" type="move" name="bottom"/>
    </contour>
    <contour>
      <point x="120" y="467" type="move" name="top"/>
    </contour>
  </outline>
</glyph>
<glyph name="ldot" format="1">
  <advance width="500"/>
  <unicode hex="0140"/>
  <outline>
    <contour>
      <point x="57" y="0" type="line"/>
      <point x="425" y="0" type="line"/>
      <point x="425" y="87" type="line"/>
      <point x="277" y="87" type="line"/>
      <point x="277" y="675" type="line"/>
      <point x="63" y="675" type="line"/>
      <point x="63" y="588" type="line"/>
      <point x="165" y="588" type="line"/>
      <point x="165" y="87" type="line"/>
      <point x="57" y="87" type="line"/>
    </contour>
    <component base="periodcentered" xOffset="160"/>
  </outline>
</glyph>
<glyph name="Lslash" format="1">
  <advance width="500"/>
  <unicode hex="0141"/>
  <outline>
    <contour>
      <point x="61" y="1" type="line"/>
      <point x="459" y="1" type="line"/>
      <point x="459" y="95" type="line"/>
      <point x="176" y="95" type="line"/>
      <point x="176" y="258" type="line"/>
      <point x="350" y="315" type="line"/>
      <point x="350" y="422" type="line"/>
      <point x="339" y="413"/>
      <point x="327" y="405"/>
      <point x="314" y="399" type="curve"/>
      <point x="176" y="354" type="line"/>
      <point x="176" y="588" type="line"/>
      <point x="178" y="608"/>
      <point x="185" y="613"/>
      <point x="185" y="618" type="curve" smooth="yes"/>
      <point x="185" y="620"/>
      <point x="185" y="621"/>
      <point x="183" y="623" type="curve"/>
      <point x="61" y="623" type="line"/>
      <point x="61" y="316" type="line"/>
      <point x="5" y="298" type="line"/>
      <point x="5" y="203" type="line"/>
      <point x="61" y="221" type="line"/>
    </contour>
  </outline>
</glyph>
<glyph name="lslash" format="1">
  <advance width="500"/>
  <unicode hex="0142"/>
  <outline>
    <contour>
      <point x="67" y="0" type="line"/>
      <point x="435" y="0" type="line"/>
      <point x="435" y="87" type="line"/>
      <point x="307" y="87" type="line"/>
      <point x="307" y="293" type="line"/>
      <point x="391" y="322" type="line"/>
      <point x="391" y="420" type="line"/>
      <point x="307" y="392" type="line"/>
      <point x="307" y="675" type="line"/>
      <point x="73" y="675" type="line"/>
      <point x="73" y="588" type="line"/>
      <point x="195" y="588" type="line"/>
      <point x="195" y="353" type="line"/>
      <point x="121" y="328" type="line"/>
      <point x="121" y="231" type="line"/>
      <point x="195" y="256" type="line"/>
      <point x="195" y="87" type="line"/>
      <point x="67" y="87" type="line"/>
    </contour>
  </outline>
</glyph>
<glyph name="Eng" format="1">
  <advance width="500"/>
  <unicode hex="014A"/>
  <outline>
    <contour>
      <point x="367" y="623" type="line"/>
      <point x="367" y="184" type="line"/>
      <point x="149" y="623" type="line"/>
      <point x="32" y="623" type="line"/>
      <point x="32" y="0" type="line"/>
      <point x="133" y="0" type="line"/>
      <point x="133" y="471" type="line"/>
      <point x="366" y="-1" type="line"/>
      <point x="366" y="-65"/>
      <point x="341" y="-97"/>
      <point x="301" y="-97" type="curve" smooth="yes"/>
      <point x="259" y="-97"/>
      <point x="266" y="-66"/>
      <point x="243" y="-66" type="curve"/>
      <point x="191" y="-157" type="line"/>
      <point x="230" y="-185"/>
      <point x="270" y="-199"/>
      <point x="308" y="-199" type="curve" smooth="yes"/>
      <point x="396" y="-199"/>
      <point x="468" y="-123"/>
      <point x="468" y="0" type="curve" smooth="yes"/>
      <point x="468" y="580" type="line" smooth="yes"/>
      <point x="468" y="598"/>
      <point x="475" y="605"/>
      <point x="475" y="623" type="curve"/>
    </contour>
    <contour>
      <point x="250" y="0" type="move" name="bottom"/>
    </contour>
    <contour>
      <point x="260" y="623" type="move" name="top"/>
    </contour>
  </outline>
</glyph>
<glyph name="eng" format="1">
  <advance width="500"/>
  <unicode hex="014B"/>
  <outline>
    <contour>
      <point x="272" y="-179" type="curve" smooth="yes"/>
      <point x="374" y="-179"/>
      <point x="450" y="-110"/>
      <point x="450" y="53" type="curve" smooth="yes"/>
      <point x="450" y="283" type="line" smooth="yes"/>
      <point x="450" y="423"/>
      <point x="389" y="477"/>
      <point x="295" y="477" type="curve" smooth="yes"/>
      <point x="251" y="477"/>
      <point x="205" y="454"/>
      <point x="173" y="419" type="curve"/>
      <point x="173" y="467" type="line"/>
      <point x="60" y="467" type="line"/>
      <point x="60" y="0" type="line"/>
      <point x="173" y="0" type="line"/>
      <point x="173" y="270" type="line" smooth="yes"/>
      <point x="173" y="338"/>
      <point x="217" y="385"/>
      <point x="273" y="385" type="curve" smooth="yes"/>
      <point x="313" y="385"/>
      <point x="340" y="354"/>
      <point x="340" y="282" type="curve" smooth="yes"/>
      <point x="340" y="43" type="line" smooth="yes"/>
      <point x="340" y="-40"/>
      <point x="318" y="-80"/>
      <point x="274" y="-80" type="curve" smooth="yes"/>
      <point x="231" y="-80"/>
      <point x="229" y="-43"/>
      <point x="206" y="-36" type="curve"/>
      <point x="156" y="-134" type="line"/>
      <point x="195" y="-164"/>
      <point x="234" y="-179"/>
    </contour>
  </outline>
</glyph>
<glyph name="OE" format="1">
  <advance width="500"/>
  <unicode hex="0152"/>
  <outline>
    <contour>
      <point x="177" y="-7" type="curve" smooth="yes"/>
      <point x="196" y="-7"/>
      <point x="220" y="2"/>
      <point x="238" y="16" type="curve"/>
      <point x="238" y="0" type="line"/>
      <point x="491" y="0" type="line"/>
      <point x="491" y="96" type="line"/>
      <point x="338" y="96" type="line"/>
      <point x="338" y="276" type="line"/>
      <point x="469" y="276" type="line"/>
      <point x="469" y="373" type="line"/>
      <point x="338" y="373" type="line"/>
      <point x="338" y="528" type="line"/>
      <point x="493" y="528" type="line"/>
      <point x="493" y="624" type="line"/>
      <point x="239" y="624" type="line"/>
      <point x="239" y="609" type="line"/>
      <point x="222" y="624"/>
      <point x="198" y="632"/>
      <point x="180" y="632" type="curve" smooth="yes"/>
      <point x="67" y="632"/>
      <point x="3" y="524"/>
      <point x="3" y="312" type="curve" smooth="yes"/>
      <point x="3" y="93"/>
      <point x="72" y="-7"/>
    </contour>
    <contour>
      <point x="188" y="89" type="curve" smooth="yes"/>
      <point x="134" y="89"/>
      <point x="110" y="170"/>
      <point x="110" y="313" type="curve" smooth="yes"/>
      <point x="110" y="487"/>
      <point x="140" y="539"/>
      <point x="180" y="539" type="curve" smooth="yes"/>
      <point x="209" y="539"/>
      <point x="226" y="512"/>
      <point x="233" y="477" type="curve"/>
      <point x="233" y="144" type="line"/>
      <point x="229" y="110"/>
      <point x="213" y="89"/>
    </contour>
  </outline>
</glyph>
<glyph name="oe" format="1">
  <advance width="500"/>
  <unicode hex="0153"/>
  <outline>
    <contour>
      <point x="362" y="-15" type="curve" smooth="yes"/>
      <point x="416" y="-15"/>
      <point x="461" y="12"/>
      <point x="504" y="56" type="curve"/>
      <point x="446" y="129" type="line"/>
      <point x="414" y="95"/>
      <point x="394" y="77"/>
      <point x="359" y="77" type="curve" smooth="yes"/>
      <point x="315" y="77"/>
      <point x="286" y="106"/>
      <point x="284" y="207" type="curve"/>
      <point x="494" y="207" type="line"/>
      <point x="494" y="283" type="line"/>
      <point x="494" y="406"/>
      <point x="439" y="475"/>
      <point x="347" y="475" type="curve" smooth="yes"/>
      <point x="312" y="475"/>
      <point x="277" y="453"/>
      <point x="256" y="432" type="curve"/>
      <point x="236" y="454"/>
      <point x="203" y="475"/>
      <point x="168" y="475" type="curve" smooth="yes"/>
      <point x="83" y="475"/>
      <point x="3" y="408"/>
      <point x="3" y="232" type="curve" smooth="yes"/>
      <point x="3" y="41"/>
      <point x="86" y="-14"/>
      <point x="162" y="-14" type="curve" smooth="yes"/>
      <point x="197" y="-14"/>
      <point x="230" y="3"/>
      <point x="253" y="26" type="curve"/>
      <point x="275" y="4"/>
      <point x="324" y="-15"/>
    </contour>
    <contour>
      <point x="170" y="80" type="curve" smooth="yes"/>
      <point x="128" y="80"/>
      <point x="104" y="137"/>
      <point x="104" y="242" type="curve" smooth="yes"/>
      <point x="104" y="341"/>
      <point x="134" y="383"/>
      <point x="167" y="383" type="curve" smooth="yes"/>
      <point x="183" y="383"/>
      <point x="190" y="370"/>
      <point x="190" y="358" type="curve" smooth="yes"/>
      <point x="190" y="357"/>
      <point x="190" y="355"/>
      <point x="189" y="349" type="curve" smooth="yes"/>
      <point x="186" y="332"/>
      <point x="182" y="296"/>
      <point x="182" y="241" type="curve" smooth="yes"/>
      <point x="182" y="206"/>
      <point x="184" y="161"/>
      <point x="191" y="119" type="curve" smooth="yes"/>
      <point x="195" y="97"/>
      <point x="197" y="80"/>
    </contour>
    <contour>
      <point x="285" y="296" type="line"/>
      <point x="287" y="352"/>
      <point x="300" y="388"/>
      <point x="341" y="388" type="curve" smooth="yes"/>
      <point x="374" y="388"/>
      <point x="392" y="363"/>
      <point x="393" y="296" type="curve"/>
    </contour>
  </outline>
</glyph>
<glyph name="tbar" format="1">
  <advance width="500"/>
  <unicode hex="0167"/>
  <outline>
    <contour>
      <point x="57" y="218" type="line"/>
      <point x="412" y="218" type="line"/>
      <point x="412" y="289" type="line"/>
      <point x="57" y="289" type="line"/>
    </contour>
    <component base="t"/>
  </outline>
</glyph>
<glyph name="florin" format="1">
  <advance width="500"/>
  <unicode hex="0192"/>
  <outline>
    <contour>
      <point x="110" y="-175" type="curve" smooth="yes"/>
      <point x="191" y="-175"/>
      <point x="254" y="-111"/>
      <point x="268" y="29" type="curve"/>
      <point x="291" y="309" type="line"/>
      <point x="410" y="309" type="line"/>
      <point x="410" y="399" type="line"/>
      <point x="299" y="399" type="line"/>
      <point x="303" y="467" type="line"/>
      <point x="308" y="567"/>
      <point x="336" y="588"/>
      <point x="366" y="588" type="curve" smooth="yes"/>
      <point x="390" y="588"/>
      <point x="409" y="577"/>
      <point x="414" y="556" type="curve" smooth="yes"/>
      <point x="418" y="538"/>
      <point x="430" y="531"/>
      <point x="452" y="531" type="curve"/>
      <point x="491" y="613" type="line"/>
      <point x="455" y="656"/>
      <point x="412" y="678"/>
      <point x="362" y="678" type="curve" smooth="yes"/>
      <point x="267" y="678"/>
      <point x="206" y="617"/>
      <point x="194" y="479" type="curve" smooth="yes"/>
      <point x="187" y="399" type="line"/>
      <point x="71" y="399" type="line"/>
      <point x="71" y="309" type="line"/>
      <point x="182" y="309" type="line"/>
      <point x="160" y="33" type="line"/>
      <point x="155" y="-33"/>
      <point x="140" y="-76"/>
      <point x="117" y="-76" type="curve" smooth="yes"/>
      <point x="85" y="-76"/>
      <point x="83" y="-43"/>
      <point x="64" y="-38" type="curve"/>
      <point x="8" y="-126" type="line"/>
      <point x="38" y="-159"/>
      <point x="73" y="-175"/>
    </contour>
  </outline>
</glyph>
<glyph name="Khook" format="1">
  <advance width="500"/>
  <unicode hex="0198"/>
  <outline>
    <contour>
      <point x="43" y="0" type="line"/>
      <point x="158" y="0" type="line"/>
      <point x="158" y="235" type="line"/>
      <point x="301" y="454"/>
      <point x="366" y="523"/>
      <point x="424" y="523" type="curve" smooth="yes"/>
      <point x="450" y="523"/>
      <point x="459" y="521"/>
      <point x="480" y="508" type="curve" name="_corner01"/>
      <point x="480" y="615" type="line"/>
      <point x="468" y="624"/>
      <point x="448" y="629"/>
      <point x="426" y="629" type="curve" smooth="yes"/>
      <point x="341" y="629"/>
      <point x="282" y="554"/>
      <point x="158" y="385" type="curve"/>
      <point x="158" y="623" type="line" name="_corner00"/>
      <point x="43" y="623" type="line"/>
    </contour>
    <contour>
      <point x="370" y="-5" type="line"/>
      <point x="506" y="1" type="line"/>
      <point x="228" y="413" type="line"/>
      <point x="153" y="333" type="line"/>
    </contour>
  </outline>
</glyph>
<glyph name="uhorn" format="1">
  <advance width="500"/>
  <unicode hex="01B0"/>
  <outline>
    <component base="u.i"/>
    <component base="horncomb"/>
    <contour>
      <point x="190" y="0" type="move" name="bottom"/>
    </contour>
    <contour>
      <point x="240" y="467" type="move" name="top"/>
    </contour>
  </outline>
</glyph>
<glyph name="Ezhreversed" format="1">
  <advance width="500"/>
  <unicode hex="01B8"/>
  <outline>
    <contour>
      <point x="267" y="-19" type="curve" smooth="yes"/>
      <point x="346" y="-19"/>
      <point x="405" y="7"/>
      <point x="453" y="62" type="curve"/>
      <point x="406" y="149" type="line" name="_corner00"/>
      <point x="376" y="98"/>
      <point x="338" y="78"/>
      <point x="274" y="78" type="curve" smooth="yes"/>
      <point x="212" y="78"/>
      <point x="160" y="112"/>
      <point x="160" y="179" type="curve" smooth="yes"/>
      <point x="160" y="249"/>
      <point x="201" y="300"/>
      <point x="335" y="296" type="curve"/>
      <point x="335" y="386" type="line"/>
      <point x="301" y="386" type="line" smooth="yes"/>
      <point x="151" y="386"/>
      <point x="48" y="305"/>
      <point x="48" y="173" type="curve" smooth="yes"/>
      <point x="48" y="68"/>
      <point x="134" y="-19"/>
    </contour>
    <contour>
      <point x="246" y="355" type="line"/>
      <point x="335" y="386" type="line"/>
      <point x="203" y="526" type="line"/>
      <point x="415" y="526" type="line"/>
      <point x="415" y="623" type="line" name="_corner00"/>
      <point x="67" y="623" type="line"/>
      <point x="67" y="540" type="line"/>
    </contour>
  </outline>
</glyph>
<glyph name="LJ" format="1">
  <advance width="500"/>
  <unicode hex="01C7"/>
  <outline>
    <contour>
      <point x="297" y="-179" type="curve"/>
      <point x="394" y="-179"/>
      <point x="475" y="-113"/>
      <point x="475" y="39" type="curve"/>
      <point x="475" y="530" type="line"/>
      <point x="475" y="530" type="line"/>
      <point x="475" y="623" type="line"/>
      <point x="263" y="623" type="line"/>
      <point x="263" y="530" type="line"/>
      <point x="363" y="530" type="line"/>
      <point x="363" y="52" type="line"/>
      <point x="363" y="-44"/>
      <point x="341" y="-83"/>
      <point x="292" y="-83" type="curve" smooth="yes"/>
      <point x="271" y="-83"/>
      <point x="260" y="-74"/>
      <point x="253" y="-64" type="curve" smooth="yes"/>
      <point x="241" y="-47"/>
      <point x="246" y="-38"/>
      <point x="231" y="-26" type="curve"/>
      <point x="160" y="-112" type="line"/>
      <point x="195" y="-156"/>
      <point x="242" y="-179"/>
    </contour>
    <contour>
      <point x="61" y="0" type="line"/>
      <point x="299" y="0" type="line"/>
      <point x="299" y="94" type="line"/>
      <point x="176" y="94" type="line"/>
      <point x="176" y="588" type="line"/>
      <point x="178" y="611"/>
      <point x="183" y="609"/>
      <point x="183" y="623" type="curve"/>
      <point x="61" y="623" type="line"/>
    </contour>
  </outline>
</glyph>
<glyph name="Lj" format="1">
  <advance width="500"/>
  <unicode hex="01C8"/>
  <outline>
    <contour>
      <point x="262" y="-177" type="curve" smooth="yes"/>
      <point x="368" y="-177"/>
      <point x="452" y="-118"/>
      <point x="452" y="23" type="curve" smooth="yes"/>
      <point x="452" y="467" type="line"/>
      <point x="237" y="467" type="line"/>
      <point x="237" y="376" type="line"/>
      <point x="339" y="376" type="line"/>
      <point x="339" y="19" type="line" smooth="yes"/>
      <point x="339" y="-53"/>
      <point x="306" y="-82"/>
      <point x="265" y="-82" type="curve" smooth="yes"/>
      <point x="252" y="-82"/>
      <point x="244" y="-80"/>
      <point x="235" y="-69" type="curve" smooth="yes"/>
      <point x="222" y="-50"/>
      <point x="229" y="-42"/>
      <point x="216" y="-37" type="curve"/>
      <point x="147" y="-128" type="line"/>
      <point x="178" y="-160"/>
      <point x="216" y="-177"/>
    </contour>
    <contour>
      <point x="61" y="0" type="line"/>
      <point x="279" y="0" type="line"/>
      <point x="279" y="94" type="line"/>
      <point x="176" y="94" type="line"/>
      <point x="176" y="588" type="line" smooth="yes"/>
      <point x="176" y="606"/>
      <point x="183" y="609"/>
      <point x="183" y="623" type="curve"/>
      <point x="61" y="623" type="line"/>
    </contour>
    <component base="dotaccent" xOffset="144"/>
  </outline>
</glyph>
<glyph name="lj" format="1">
  <advance width="500"/>
  <unicode hex="01C9"/>
  <outline>
    <contour>
      <point x="262" y="-177" type="curve" smooth="yes"/>
      <point x="368" y="-177"/>
      <point x="452" y="-118"/>
      <point x="452" y="23" type="curve" smooth="yes"/>
      <point x="452" y="467" type="line"/>
      <point x="237" y="467" type="line"/>
      <point x="237" y="376" type="line"/>
      <point x="339" y="376" type="line"/>
      <point x="339" y="19" type="line" smooth="yes"/>
      <point x="339" y="-53"/>
      <point x="306" y="-82"/>
      <point x="265" y="-82" type="curve" smooth="yes"/>
      <point x="252" y="-82"/>
      <point x="244" y="-80"/>
      <point x="235" y="-69" type="curve" smooth="yes"/>
      <point x="222" y="-50"/>
      <point x="229" y="-42"/>
      <point x="216" y="-37" type="curve"/>
      <point x="147" y="-128" type="line"/>
      <point x="178" y="-160"/>
      <point x="216" y="-177"/>
    </contour>
    <contour>
      <point x="25" y="0" type="line"/>
      <point x="282" y="0" type="line"/>
      <point x="282" y="87" type="line"/>
      <point x="174" y="87" type="line"/>
      <point x="174" y="675" type="line"/>
      <point x="31" y="675" type="line"/>
      <point x="31" y="588" type="line"/>
      <point x="62" y="588" type="line"/>
      <point x="62" y="87" type="line"/>
      <point x="25" y="87" type="line"/>
    </contour>
    <component base="dotaccent" xOffset="144"/>
  </outline>
</glyph>
<glyph name="jdotless" format="1">
  <advance width="500"/>
  <unicode hex="0237"/>
  <outline>
    <contour>
      <point x="189" y="-177" type="curve" smooth="yes"/>
      <point x="290" y="-177"/>
      <point x="374" y="-118"/>
      <point x="374" y="33" type="curve" smooth="yes"/>
      <point x="374" y="467" type="line"/>
      <point x="99" y="467" type="line"/>
      <point x="99" y="376" type="line"/>
      <point x="261" y="376" type="line"/>
      <point x="261" y="19" type="line" smooth="yes"/>
      <point x="261" y="-53"/>
      <point x="235" y="-82"/>
      <point x="189" y="-82" type="curve" smooth="yes"/>
      <point x="144" y="-82"/>
      <point x="112" y="-56"/>
      <point x="88" y="-20" type="curve" name="_corner00"/>
      <point x="26" y="-101" type="line"/>
      <point x="71" y="-150"/>
      <point x="122" y="-177"/>
    </contour>
    <contour>
      <point x="250" y="-190" type="move" name="bottom"/>
    </contour>
    <contour>
      <point x="308" y="467" type="move" name="top"/>
    </contour>
  </outline>
</glyph>
<glyph name="rstroke" format="1">
  <advance width="500"/>
  <unicode hex="024D"/>
  <outline>
    <contour>
      <point x="28" y="171" type="line"/>
      <point x="323" y="171" type="line"/>
      <point x="323" y="242" type="line"/>
      <point x="28" y="242" type="line"/>
    </contour>
    <component base="r"/>
  </outline>
</glyph>
<glyph name="rhookturned" format="1">
  <advance width="500"/>
  <unicode hex="027B"/>
  <outline>
    <contour>
      <point x="425" y="-177" type="curve" smooth="yes"/>
      <point x="460" y="-177"/>
      <point x="488" y="-166"/>
      <point x="511" y="-149" type="curve"/>
      <point x="490" y="-74" type="line" name="_corner00"/>
      <point x="479" y="-84"/>
      <point x="464" y="-90"/>
      <point x="444" y="-90" type="curve" smooth="yes"/>
      <point x="400" y="-90"/>
      <point x="391" y="-53"/>
      <point x="391" y="8" type="curve" smooth="yes"/>
      <point x="391" y="467" type="line"/>
      <point x="278" y="467" type="line"/>
      <point x="278" y="223" type="line" smooth="yes"/>
      <point x="278" y="138"/>
      <point x="223" y="85"/>
      <point x="152" y="85" type="curve" smooth="yes"/>
      <point x="112" y="85"/>
      <point x="87" y="100"/>
      <point x="55" y="129" type="curve" name="_corner01"/>
      <point x="11" y="41" type="line"/>
      <point x="48" y="6"/>
      <point x="97" y="-10"/>
      <point x="141" y="-10" type="curve" smooth="yes"/>
      <point x="202" y="-10"/>
      <point x="254" y="21"/>
      <point x="278" y="71" type="curve"/>
      <point x="278" y="9" type="line" smooth="yes"/>
      <point x="278" y="-120"/>
      <point x="335" y="-177"/>
    </contour>
  </outline>
</glyph>
<glyph name="eopenclosed" format="1">
  <advance width="500"/>
  <unicode hex="029A"/>
  <outline>
    <contour>
      <point x="229" y="-17" type="curve" smooth="yes"/>
      <point x="375" y="-17"/>
      <point x="469" y="80"/>
      <point x="469" y="233" type="curve" smooth="yes"/>
      <point x="469" y="381"/>
      <point x="371" y="479"/>
      <point x="229" y="479" type="curve" smooth="yes"/>
      <point x="116" y="479"/>
      <point x="48" y="417"/>
      <point x="48" y="355" type="curve" smooth="yes"/>
      <point x="48" y="310"/>
      <point x="69" y="271"/>
      <point x="115" y="247" type="curve"/>
      <point x="63" y="224"/>
      <point x="29" y="186"/>
      <point x="29" y="129" type="curve" smooth="yes"/>
      <point x="29" y="45"/>
      <point x="95" y="-17"/>
    </contour>
    <contour>
      <point x="232" y="74" type="curve" smooth="yes"/>
      <point x="169" y="74"/>
      <point x="137" y="108"/>
      <point x="137" y="141" type="curve" smooth="yes"/>
      <point x="137" y="171"/>
      <point x="163" y="199"/>
      <point x="216" y="199" type="curve" smooth="yes"/>
      <point x="234" y="199"/>
      <point x="243" y="199"/>
      <point x="273" y="197" type="curve"/>
      <point x="273" y="281" type="line"/>
      <point x="250" y="278"/>
      <point x="218" y="278"/>
      <point x="215" y="278" type="curve" smooth="yes"/>
      <point x="178" y="278"/>
      <point x="159" y="303"/>
      <point x="159" y="329" type="curve" smooth="yes"/>
      <point x="159" y="357"/>
      <point x="182" y="387"/>
      <point x="228" y="387" type="curve" smooth="yes"/>
      <point x="333" y="387"/>
      <point x="366" y="329"/>
      <point x="366" y="233" type="curve" smooth="yes"/>
      <point x="366" y="124"/>
      <point x="323" y="74"/>
    </contour>
  </outline>
</glyph>
<glyph name="apostrophemod" format="1">
  <advance width="500"/>
  <unicode hex="02BC"/>
  <outline>
    <contour>
      <point x="226" y="438" type="line"/>
      <point x="293" y="505"/>
      <point x="326" y="560"/>
      <point x="326" y="605" type="curve" smooth="yes"/>
      <point x="326" y="652"/>
      <point x="291" y="684"/>
      <point x="253" y="684" type="curve" smooth="yes"/>
      <point x="214" y="684"/>
      <point x="186" y="658"/>
      <point x="186" y="623" type="curve" smooth="yes"/>
      <point x="186" y="593"/>
      <point x="224" y="574"/>
      <point x="224" y="566" type="curve" smooth="yes"/>
      <point x="224" y="552"/>
      <point x="201" y="519"/>
      <point x="168" y="488" type="curve"/>
    </contour>
  </outline>
</glyph>
<glyph name="ringhalfleft" format="1">
  <advance width="500"/>
  <unicode hex="02BF"/>
  <outline>
    <contour>
      <point x="309" y="460" type="curve"/>
      <point x="309" y="524" type="line"/>
      <point x="284" y="524"/>
      <point x="267" y="545"/>
      <point x="267" y="574" type="curve" smooth="yes"/>
      <point x="267" y="603"/>
      <point x="284" y="624"/>
      <point x="309" y="624" type="curve"/>
      <point x="309" y="687" type="line"/>
      <point x="246" y="687"/>
      <point x="191" y="637"/>
      <point x="191" y="573" type="curve" smooth="yes"/>
      <point x="191" y="510"/>
      <point x="243" y="460"/>
    </contour>
  </outline>
</glyph>
<glyph name="circumflex" format="1">
  <advance width="500"/>
  <unicode hex="02C6"/>
  <outline>
    <contour>
      <point x="349" y="513" type="line"/>
      <point x="406" y="551" type="line"/>
      <point x="271" y="697" type="line"/>
      <point x="239" y="697" type="line"/>
      <point x="104" y="552" type="line"/>
      <point x="144" y="513" type="line"/>
      <point x="252" y="606" type="line"/>
    </contour>
  </outline>
</glyph>
<glyph name="caron" format="1">
  <advance width="500"/>
  <unicode hex="02C7"/>
  <outline>
    <contour>
      <point x="239" y="513" type="line"/>
      <point x="271" y="513" type="line"/>
      <point x="386" y="658" type="line"/>
      <point x="338" y="701" type="line"/>
      <point x="258" y="614" type="line"/>
      <point x="182" y="702" type="line"/>
      <point x="124" y="659" type="line"/>
    </contour>
  </outline>
</glyph>
<glyph name="verticallinemod" format="1">
  <advance width="500"/>
  <unicode hex="02C8"/>
  <outline>
    <contour>
      <point x="317" y="445" type="line"/>
      <point x="317" y="665" type="line"/>
      <point x="216" y="665" type="line"/>
      <point x="216" y="445" type="line"/>
    </contour>
  </outline>
</glyph>
<glyph name="firsttonechinese" format="1">
  <advance width="500"/>
  <unicode hex="02C9"/>
  <outline>
    <contour>
      <point x="108" y="553" type="line"/>
      <point x="388" y="553" type="line"/>
      <point x="388" y="641" type="line"/>
      <point x="108" y="641" type="line"/>
    </contour>
  </outline>
</glyph>
<glyph name="secondtonechinese" format="1">
  <advance width="500"/>
  <unicode hex="02CA"/>
  <outline>
    <contour>
      <point x="244" y="552" type="line"/>
      <point x="372" y="704" type="line"/>
      <point x="283" y="704" type="line"/>
      <point x="189" y="552" type="line"/>
    </contour>
  </outline>
</glyph>
<glyph name="fourthtonechinese" format="1">
  <advance width="500"/>
  <unicode hex="02CB"/>
  <outline>
    <contour>
      <point x="279" y="517" type="line"/>
      <point x="335" y="550" type="line"/>
      <point x="255" y="714" type="line"/>
      <point x="174" y="658" type="line"/>
    </contour>
  </outline>
</glyph>
<glyph name="verticallinelowmod" format="1">
  <advance width="500"/>
  <unicode hex="02CC"/>
  <outline>
    <contour>
      <point x="301" y="-190" type="line"/>
      <point x="301" y="30" type="line"/>
      <point x="200" y="30" type="line"/>
      <point x="200" y="-190" type="line"/>
    </contour>
  </outline>
</glyph>
<glyph name="breve" format="1">
  <advance width="500"/>
  <unicode hex="02D8"/>
  <outline>
    <contour>
      <point x="250" y="518" type="curve" smooth="yes"/>
      <point x="305" y="518"/>
      <point x="367" y="549"/>
      <point x="411" y="603" type="curve"/>
      <point x="363" y="675" type="line"/>
      <point x="328" y="621"/>
      <point x="288" y="604"/>
      <point x="253" y="604" type="curve" smooth="yes"/>
      <point x="215" y="604"/>
      <point x="174" y="626"/>
      <point x="146" y="675" type="curve"/>
      <point x="85" y="601" type="line"/>
      <point x="141" y="542"/>
      <point x="198" y="518"/>
    </contour>
  </outline>
</glyph>
<glyph name="dotaccent" format="1">
  <advance width="500"/>
  <unicode hex="02D9"/>
  <outline>
    <contour>
      <point x="254" y="548" type="curve" smooth="yes"/>
      <point x="291" y="548"/>
      <point x="324" y="578"/>
      <point x="324" y="614" type="curve" smooth="yes"/>
      <point x="324" y="650"/>
      <point x="291" y="680"/>
      <point x="254" y="680" type="curve" smooth="yes"/>
      <point x="213" y="680"/>
      <point x="184" y="652"/>
      <point x="184" y="614" type="curve" smooth="yes"/>
      <point x="184" y="578"/>
      <point x="215" y="548"/>
    </contour>
  </outline>
</glyph>
<glyph name="ring" format="1">
  <advance width="500"/>
  <unicode hex="02DA"/>
  <outline>
    <contour>
      <point x="249" y="512" type="curve" smooth="yes"/>
      <point x="306" y="512"/>
      <point x="354" y="557"/>
      <point x="354" y="612" type="curve" smooth="yes"/>
      <point x="354" y="666"/>
      <point x="306" y="711"/>
      <point x="249" y="711" type="curve" smooth="yes"/>
      <point x="193" y="711"/>
      <point x="146" y="666"/>
      <point x="146" y="612" type="curve" smooth="yes"/>
      <point x="146" y="557"/>
      <point x="193" y="512"/>
    </contour>
    <contour>
      <point x="250" y="576" type="curve" smooth="yes"/>
      <point x="232" y="576"/>
      <point x="218" y="592"/>
      <point x="218" y="613" type="curve" smooth="yes"/>
      <point x="218" y="634"/>
      <point x="232" y="651"/>
      <point x="250" y="651" type="curve" smooth="yes"/>
      <point x="268" y="651"/>
      <point x="282" y="634"/>
      <point x="282" y="613" type="curve" smooth="yes"/>
      <point x="282" y="592"/>
      <point x="268" y="576"/>
    </contour>
  </outline>
</glyph>
<glyph name="ogonek" format="1">
  <advance width="500"/>
  <unicode hex="02DB"/>
  <outline>
    <contour>
      <point x="357" y="-182" type="curve" smooth="yes"/>
      <point x="388" y="-182"/>
      <point x="415" y="-171"/>
      <point x="442" y="-150" type="curve"/>
      <point x="442" y="-63" type="line"/>
      <point x="406" y="-95"/>
      <point x="394" y="-102"/>
      <point x="379" y="-102" type="curve" smooth="yes"/>
      <point x="369" y="-102"/>
      <point x="364" y="-95"/>
      <point x="364" y="-86" type="curve" smooth="yes"/>
      <point x="364" y="-70"/>
      <point x="379" y="-59"/>
      <point x="442" y="0" type="curve"/>
      <point x="335" y="0" type="line"/>
      <point x="279" y="-51"/>
      <point x="265" y="-77"/>
      <point x="265" y="-109" type="curve" smooth="yes"/>
      <point x="265" y="-152"/>
      <point x="294" y="-182"/>
    </contour>
  </outline>
</glyph>
<glyph name="hungarumlaut" format="1">
  <advance width="500"/>
  <unicode hex="02DD"/>
  <outline>
    <contour>
      <point x="332" y="517" type="line"/>
      <point x="437" y="658" type="line"/>
      <point x="356" y="714" type="line"/>
      <point x="276" y="550" type="line"/>
    </contour>
    <contour>
      <point x="177" y="517" type="line"/>
      <point x="282" y="658" type="line"/>
      <point x="201" y="714" type="line"/>
      <point x="121" y="550" type="line"/>
    </contour>
  </outline>
</glyph>
<glyph name="gravecomb" format="1">
  <advance width="500"/>
  <unicode hex="0300"/>
  <outline>
    <component base="grave"/>
    <contour>
      <point x="259" y="467" type="move" name="_top"/>
    </contour>
    <contour>
      <point x="221" y="692" type="move" name="top"/>
    </contour>
  </outline>
</glyph>
<glyph name="acutecomb" format="1">
  <advance width="500"/>
  <unicode hex="0301"/>
  <outline>
    <component base="acute"/>
    <contour>
      <point x="280" y="467" type="move" name="_top"/>
    </contour>
    <contour>
      <point x="280" y="654" type="move" name="top"/>
    </contour>
  </outline>
</glyph>
<glyph name="circumflexcomb" format="1">
  <advance width="500"/>
  <unicode hex="0302"/>
  <outline>
    <contour>
      <point x="120" y="513" type="line"/>
      <point x="247" y="626" type="line"/>
      <point x="374" y="513" type="line"/>
      <point x="417" y="552" type="line"/>
      <point x="262" y="697" type="line"/>
      <point x="232" y="697" type="line"/>
      <point x="77" y="552" type="line"/>
    </contour>
    <contour>
      <point x="247" y="467" type="move" name="_top"/>
    </contour>
    <contour>
      <point x="415" y="568" type="move" name="top"/>
    </contour>
  </outline>
</glyph>
<glyph name="tildecomb" format="1">
  <advance width="500"/>
  <unicode hex="0303"/>
  <outline>
    <contour>
      <point x="369" y="668" type="line"/>
      <point x="355" y="640"/>
      <point x="344" y="626"/>
      <point x="327" y="626" type="curve" smooth="yes"/>
      <point x="287" y="626"/>
      <point x="265" y="686"/>
      <point x="201" y="686" type="curve" smooth="yes"/>
      <point x="147" y="686"/>
      <point x="105" y="656"/>
      <point x="84" y="595" type="curve"/>
      <point x="146" y="570" type="line"/>
      <point x="161" y="607"/>
      <point x="177" y="619"/>
      <point x="205" y="619" type="curve" smooth="yes"/>
      <point x="250" y="619"/>
      <point x="271" y="557"/>
      <point x="331" y="557" type="curve" smooth="yes"/>
      <point x="371" y="557"/>
      <point x="405" y="588"/>
      <point x="429" y="637" type="curve"/>
    </contour>
    <contour>
      <point x="259" y="467" type="move" name="_top"/>
    </contour>
    <contour>
      <point x="260" y="649" type="move" name="top"/>
    </contour>
  </outline>
</glyph>
<glyph name="macroncomb" format="1">
  <advance width="500"/>
  <unicode hex="0304"/>
  <outline>
    <component base="macron" yOffset="-20"/>
    <contour>
      <point x="248" y="467" type="move" name="_top"/>
    </contour>
    <contour>
      <point x="248" y="613" type="move" name="top"/>
    </contour>
  </outline>
</glyph>
<glyph name="brevecomb" format="1">
  <advance width="500"/>
  <unicode hex="0306"/>
  <outline>
    <contour>
      <point x="339" y="668" type="line"/>
      <point x="319" y="616"/>
      <point x="294" y="594"/>
      <point x="258" y="594" type="curve" smooth="yes"/>
      <point x="222" y="594"/>
      <point x="197" y="616"/>
      <point x="177" y="668" type="curve"/>
      <point x="107" y="636" type="line"/>
      <point x="139" y="568"/>
      <point x="192" y="530"/>
      <point x="258" y="530" type="curve" smooth="yes"/>
      <point x="324" y="530"/>
      <point x="377" y="568"/>
      <point x="409" y="636" type="curve"/>
    </contour>
    <contour>
      <point x="258" y="467" type="move" name="_top"/>
    </contour>
    <contour>
      <point x="258" y="598" type="move" name="top"/>
    </contour>
  </outline>
</glyph>
<glyph name="dieresiscomb" format="1">
  <advance width="500"/>
  <unicode hex="0308"/>
  <outline>
    <component base="dieresis"/>
    <contour>
      <point x="251" y="467" type="move" name="_top"/>
    </contour>
    <contour>
      <point x="251" y="620" type="move" name="top"/>
    </contour>
  </outline>
</glyph>
<glyph name="hookabovecomb" format="1">
  <advance width="500"/>
  <unicode hex="0309"/>
  <outline>
    <contour>
      <point x="353" y="638" type="curve" smooth="yes"/>
      <point x="353" y="695"/>
      <point x="305" y="730"/>
      <point x="249" y="730" type="curve" smooth="yes"/>
      <point x="214" y="730"/>
      <point x="176" y="716"/>
      <point x="150" y="684" type="curve"/>
      <point x="186" y="627" type="line"/>
      <point x="198" y="656"/>
      <point x="226" y="671"/>
      <point x="250" y="671" type="curve" smooth="yes"/>
      <point x="269" y="671"/>
      <point x="285" y="661"/>
      <point x="285" y="638" type="curve" smooth="yes"/>
      <point x="285" y="600"/>
      <point x="217" y="581"/>
      <point x="217" y="549" type="curve" smooth="yes"/>
      <point x="217" y="521" type="line"/>
      <point x="285" y="521" type="line"/>
      <point x="285" y="538" type="line" smooth="yes"/>
      <point x="285" y="567"/>
      <point x="353" y="573"/>
    </contour>
    <contour>
      <point x="246" y="467" type="move" name="_top"/>
    </contour>
    <contour>
      <point x="243" y="676" type="move" name="top"/>
    </contour>
  </outline>
</glyph>
<glyph name="hungarumlautcomb" format="1">
  <advance width="500"/>
  <unicode hex="030B"/>
  <outline>
    <component base="hungarumlaut"/>
    <contour>
      <point x="279" y="467" type="move" name="_top"/>
    </contour>
    <contour>
      <point x="279" y="714" type="move" name="top"/>
    </contour>
  </outline>
</glyph>
<glyph name="caroncomb" format="1">
  <advance width="500"/>
  <unicode hex="030C"/>
  <outline>
    <component base="circumflexcomb" yScale="-1" xOffset="5" yOffset="1208"/>
    <contour>
      <point x="255" y="467" type="move" name="_top"/>
    </contour>
    <contour>
      <point x="255" y="602" type="move" name="top"/>
    </contour>
  </outline>
</glyph>
<glyph name="dblgravecomb" format="1">
  <advance width="500"/>
  <unicode hex="030F"/>
  <outline>
    <component base="gravecomb" xOffset="-59"/>
    <component base="gravecomb" xOffset="101"/>
    <contour>
      <point x="251" y="467" type="move" name="_top"/>
    </contour>
    <contour>
      <point x="251" y="664" type="move" name="top"/>
    </contour>
  </outline>
</glyph>
<glyph name="breveinvertedcomb" format="1">
  <advance width="500"/>
  <unicode hex="0311"/>
  <outline>
    <component base="brevecomb" yScale="-1" xOffset="-8" yOffset="1192"/>
    <contour>
      <point x="250" y="467" type="move" name="_top"/>
    </contour>
    <contour>
      <point x="250" y="662" type="move" name="top"/>
    </contour>
  </outline>
</glyph>
<glyph name="commaturnedabovecomb" format="1">
  <advance width="500"/>
  <unicode hex="0312"/>
  <outline>
    <component base="comma" xScale="-1" yScale="-1" xOffset="472" yOffset="653"/>
    <contour>
      <point x="236" y="467" type="move" name="_top"/>
    </contour>
    <contour>
      <point x="236" y="818" type="move" name="top"/>
    </contour>
  </outline>
</glyph>
<glyph name="horncomb" format="1">
  <advance width="500"/>
  <unicode hex="031B"/>
  <outline>
    <contour>
      <point x="429" y="396"/>
      <point x="485" y="434"/>
      <point x="485" y="561" type="curve"/>
      <point x="399" y="561" type="line"/>
      <point x="399" y="494"/>
      <point x="392" y="467"/>
      <point x="376" y="467" type="curve"/>
      <point x="376" y="396" type="line"/>
    </contour>
    <contour>
      <point x="376" y="467" type="move" name="_topright"/>
    </contour>
    <contour>
      <point x="376" y="467" type="move" name="topright"/>
    </contour>
  </outline>
</glyph>
<glyph name="dotbelowcomb" format="1">
  <advance width="500"/>
  <unicode hex="0323"/>
  <outline>
    <component base="period" xScale="0.9" yScale="0.9" xOffset="38" yOffset="-168"/>
    <contour>
      <point x="248" y="0" type="move" name="_bottom"/>
    </contour>
    <contour>
      <point x="248" y="-191" type="move" name="bottom"/>
    </contour>
  </outline>
</glyph>
<glyph name="dieresisbelowcomb" format="1">
  <advance width="500"/>
  <unicode hex="0324"/>
  <outline>
    <component base="dieresiscomb" yOffset="-730"/>
    <contour>
      <point x="252" y="0" type="move" name="_bottom"/>
    </contour>
    <contour>
      <point x="252" y="-166" type="move" name="bottom"/>
    </contour>
  </outline>
</glyph>
<glyph name="commaaccentcomb" format="1">
  <advance width="500"/>
  <unicode hex="0326"/>
  <outline>
    <component base="comma" xScale="0.9" yScale="0.9" xOffset="28" yOffset="-154"/>
    <contour>
      <point x="240" y="0" type="move" name="_bottom"/>
    </contour>
    <contour>
      <point x="240" y="-299" type="move" name="bottom"/>
    </contour>
  </outline>
</glyph>
<glyph name="cedillacomb" format="1">
  <advance width="500"/>
  <unicode hex="0327"/>
  <outline>
    <component base="cedilla"/>
    <contour>
      <point x="271" y="0" type="move" name="_bottom"/>
    </contour>
    <contour>
      <point x="271" y="-190" type="move" name="bottom"/>
    </contour>
  </outline>
</glyph>
<glyph name="ogonekcomb" format="1">
  <advance width="500"/>
  <unicode hex="0328"/>
  <outline>
    <contour>
      <point x="333" y="-150" type="line"/>
      <point x="288" y="-140"/>
      <point x="266" y="-121"/>
      <point x="266" y="-96" type="curve" smooth="yes"/>
      <point x="266" y="-70"/>
      <point x="290" y="-37"/>
      <point x="334" y="0" type="curve"/>
      <point x="294" y="27" type="line"/>
      <point x="204" y="-19"/>
      <point x="156" y="-76"/>
      <point x="156" y="-126" type="curve" smooth="yes"/>
      <point x="156" y="-173"/>
      <point x="198" y="-215"/>
      <point x="288" y="-238" type="curve"/>
    </contour>
    <contour>
      <point x="258" y="0" type="move" name="_ogonek"/>
    </contour>
  </outline>
</glyph>
<glyph name="macronbelowcomb" format="1">
  <advance width="500"/>
  <unicode hex="0331"/>
  <outline>
    <component base="macroncomb" xOffset="2" yOffset="-720"/>
    <contour>
      <point x="250" y="0" type="move" name="_bottom"/>
    </contour>
    <contour>
      <point x="250" y="-166" type="move" name="bottom"/>
    </contour>
  </outline>
</glyph>
<glyph name="strokeshortcomb" format="1">
  <advance width="500"/>
  <unicode hex="0335"/>
  <outline>
    <contour>
      <point x="114" y="285" type="line"/>
      <point x="389" y="285" type="line"/>
      <point x="389" y="356" type="line"/>
      <point x="114" y="356" type="line"/>
    </contour>
    <contour>
      <point x="252" y="321" type="move" name="_center"/>
    </contour>
  </outline>
</glyph>
<glyph name="strokelongcomb" format="1">
  <advance width="500"/>
  <unicode hex="0336"/>
  <outline>
    <component base="hyphen"/>
    <contour>
      <point x="252" y="321" type="move" name="_center"/>
    </contour>
  </outline>
</glyph>
<glyph name="lowernumeral-greek" format="1">
  <advance width="500"/>
  <unicode hex="0375"/>
  <outline>
    <contour>
      <point x="232" y="-76" type="line"/>
      <point x="330" y="116" type="line"/>
      <point x="241" y="116" type="line"/>
      <point x="177" y="-76" type="line"/>
    </contour>
  </outline>
</glyph>
<glyph name="Germandbls" format="1">
  <advance width="500"/>
  <unicode hex="1E9E"/>
  <outline>
    <contour>
      <point x="277" y="-15" type="curve" smooth="yes"/>
      <point x="399" y="-15"/>
      <point x="464" y="76"/>
      <point x="464" y="182" type="curve" smooth="yes"/>
      <point x="464" y="290"/>
      <point x="399" y="385"/>
      <point x="242" y="385" type="curve"/>
      <point x="200" y="321" type="line"/>
      <point x="422" y="486" type="line"/>
      <point x="422" y="581"/>
      <point x="358" y="675"/>
      <point x="238" y="675" type="curve" smooth="yes"/>
      <point x="119" y="675"/>
      <point x="38" y="596"/>
      <point x="38" y="437" type="curve" smooth="yes"/>
      <point x="38" y="0" type="line"/>
      <point x="146" y="0" type="line"/>
      <point x="146" y="454" type="line" smooth="yes"/>
      <point x="146" y="521"/>
      <point x="172" y="585"/>
      <point x="235" y="585" type="curve" smooth="yes"/>
      <point x="287" y="585"/>
      <point x="314" y="540"/>
      <point x="314" y="493" type="curve"/>
      <point x="184" y="395" type="line"/>
      <point x="184" y="306" type="line"/>
      <point x="234" y="306" type="line" smooth="yes"/>
      <point x="316" y="306"/>
      <point x="357" y="253"/>
      <point x="357" y="184" type="curve" smooth="yes"/>
      <point x="357" y="120"/>
      <point x="322" y="80"/>
      <point x="277" y="80" type="curve" smooth="yes"/>
      <point x="257" y="80"/>
      <point x="240" y="88"/>
      <point x="223" y="104" type="curve"/>
      <point x="167" y="16" type="line"/>
      <point x="203" y="-4"/>
      <point x="234" y="-15"/>
    </contour>
  </outline>
</glyph>
<glyph name="figuredash" format="1">
  <advance width="500"/>
  <unicode hex="2012"/>
  <outline>
    <contour>
      <point x="20" y="275" type="line"/>
      <point x="480" y="275" type="line"/>
      <point x="480" y="366" type="line"/>
      <point x="20" y="366" type="line"/>
    </contour>
  </outline>
</glyph>
<glyph name="endash" format="1">
  <advance width="500"/>
  <unicode hex="2013"/>
  <outline>
    <contour>
      <point x="30" y="275" type="line"/>
      <point x="470" y="275" type="line"/>
      <point x="470" y="366" type="line"/>
      <point x="30" y="366" type="line"/>
    </contour>
    <contour>
      <point x="30" y="275" type="line"/>
      <point x="470" y="275" type="line"/>
      <point x="470" y="366" type="line"/>
      <point x="30" y="366" type="line"/>
    </contour>
  </outline>
</glyph>
<glyph name="quoteleft" format="1">
  <advance width="500"/>
  <unicode hex="2018"/>
  <outline>
    <contour>
      <point x="256" y="357" type="curve" smooth="yes"/>
      <point x="291" y="357"/>
      <point x="321" y="376"/>
      <point x="321" y="417" type="curve" smooth="yes"/>
      <point x="321" y="470"/>
      <point x="273" y="473"/>
      <point x="273" y="499" type="curve" smooth="yes"/>
      <point x="273" y="520"/>
      <point x="301" y="562"/>
      <point x="338" y="597" type="curve"/>
      <point x="282" y="648" type="line"/>
      <point x="203" y="567"/>
      <point x="164" y="502"/>
      <point x="164" y="449" type="curve" smooth="yes"/>
      <point x="164" y="389"/>
      <point x="204" y="357"/>
    </contour>
  </outline>
</glyph>
<glyph name="quoteright" format="1">
  <advance width="500"/>
  <unicode hex="2019"/>
  <outline>
    <contour>
      <point x="204" y="357" type="line"/>
      <point x="283" y="438"/>
      <point x="322" y="503"/>
      <point x="322" y="556" type="curve" smooth="yes"/>
      <point x="322" y="610"/>
      <point x="282" y="648"/>
      <point x="240" y="648" type="curve" smooth="yes"/>
      <point x="195" y="648"/>
      <point x="165" y="617"/>
      <point x="165" y="578" type="curve" smooth="yes"/>
      <point x="165" y="543"/>
      <point x="213" y="522"/>
      <point x="213" y="506" type="curve" smooth="yes"/>
      <point x="213" y="485"/>
      <point x="185" y="443"/>
      <point x="148" y="408" type="curve"/>
    </contour>
  </outline>
</glyph>
<glyph name="quotesinglbase" format="1">
  <advance width="500"/>
  <unicode hex="201A"/>
  <outline>
    <contour>
      <point x="205" y="-169" type="line"/>
      <point x="284" y="-88"/>
      <point x="323" y="-23"/>
      <point x="323" y="30" type="curve" smooth="yes"/>
      <point x="323" y="89"/>
      <point x="287" y="122"/>
      <point x="241" y="122" type="curve" smooth="yes"/>
      <point x="196" y="122"/>
      <point x="166" y="91"/>
      <point x="166" y="52" type="curve" smooth="yes"/>
      <point x="166" y="7"/>
      <point x="214" y="3"/>
      <point x="214" y="-20" type="curve" smooth="yes"/>
      <point x="214" y="-41"/>
      <point x="186" y="-83"/>
      <point x="149" y="-118" type="curve"/>
    </contour>
  </outline>
</glyph>
<glyph name="quotedblleft" format="1">
  <advance width="500"/>
  <unicode hex="201C"/>
  <outline>
    <contour>
      <point x="352" y="357" type="curve" smooth="yes"/>
      <point x="397" y="357"/>
      <point x="427" y="388"/>
      <point x="427" y="427" type="curve" smooth="yes"/>
      <point x="427" y="460"/>
      <point x="379" y="472"/>
      <point x="379" y="499" type="curve" smooth="yes"/>
      <point x="379" y="520"/>
      <point x="407" y="562"/>
      <point x="444" y="597" type="curve"/>
      <point x="388" y="648" type="line"/>
      <point x="309" y="567"/>
      <point x="270" y="502"/>
      <point x="270" y="449" type="curve" smooth="yes"/>
      <point x="270" y="395"/>
      <point x="310" y="357"/>
    </contour>
    <contour>
      <point x="146" y="357" type="curve" smooth="yes"/>
      <point x="191" y="357"/>
      <point x="221" y="388"/>
      <point x="221" y="427" type="curve" smooth="yes"/>
      <point x="221" y="472"/>
      <point x="173" y="475"/>
      <point x="173" y="499" type="curve" smooth="yes"/>
      <point x="173" y="520"/>
      <point x="201" y="562"/>
      <point x="238" y="597" type="curve"/>
      <point x="182" y="648" type="line"/>
      <point x="103" y="567"/>
      <point x="64" y="502"/>
      <point x="64" y="449" type="curve" smooth="yes"/>
      <point x="64" y="395"/>
      <point x="104" y="357"/>
    </contour>
  </outline>
</glyph>
<glyph name="quotedblbase" format="1">
  <advance width="500"/>
  <unicode hex="201E"/>
  <outline>
    <contour>
      <point x="311" y="-169" type="line"/>
      <point x="390" y="-88"/>
      <point x="429" y="-23"/>
      <point x="429" y="30" type="curve" smooth="yes"/>
      <point x="429" y="84"/>
      <point x="389" y="122"/>
      <point x="347" y="122" type="curve" smooth="yes"/>
      <point x="302" y="122"/>
      <point x="272" y="91"/>
      <point x="272" y="52" type="curve" smooth="yes"/>
      <point x="272" y="17"/>
      <point x="320" y="-4"/>
      <point x="320" y="-20" type="curve" smooth="yes"/>
      <point x="320" y="-41"/>
      <point x="292" y="-83"/>
      <point x="255" y="-118" type="curve"/>
    </contour>
    <contour>
      <point x="105" y="-169" type="line"/>
      <point x="184" y="-88"/>
      <point x="223" y="-23"/>
      <point x="223" y="30" type="curve" smooth="yes"/>
      <point x="223" y="84"/>
      <point x="183" y="122"/>
      <point x="141" y="122" type="curve" smooth="yes"/>
      <point x="96" y="122"/>
      <point x="66" y="91"/>
      <point x="66" y="52" type="curve" smooth="yes"/>
      <point x="66" y="17"/>
      <point x="114" y="-4"/>
      <point x="114" y="-20" type="curve" smooth="yes"/>
      <point x="114" y="-41"/>
      <point x="86" y="-83"/>
      <point x="49" y="-118" type="curve"/>
    </contour>
  </outline>
</glyph>
<glyph name="dagger" format="1">
  <advance width="500"/>
  <unicode hex="2020"/>
  <outline>
    <contour>
      <point x="194" y="-150" type="line"/>
      <point x="302" y="-150" type="line"/>
      <point x="302" y="382" type="line"/>
      <point x="455" y="382" type="line"/>
      <point x="455" y="474" type="line"/>
      <point x="302" y="474" type="line"/>
      <point x="302" y="652" type="line"/>
      <point x="194" y="652" type="line"/>
      <point x="194" y="474" type="line"/>
      <point x="40" y="474" type="line"/>
      <point x="40" y="382" type="line"/>
      <point x="194" y="382" type="line"/>
    </contour>
  </outline>
</glyph>
